<?xml version="1.0" encoding="utf-8"?>
<!-- Generator: Adobe Illustrator 18.1.1, SVG Export Plug-In . SVG Version: 6.00 Build 0)  -->
<svg version="1.1" id="Layer_1" xmlns="http://www.w3.org/2000/svg" xmlns:xlink="http://www.w3.org/1999/xlink" x="0px" y="0px"
	 viewBox="0 0 18 18" enable-background="new 0 0 18 18" xml:space="preserve">
<g>
	<path d="M5.0664,12.5417l1.1191-3.4175L3.272,7.0183l3.5952,0.0088l1.104-3.4224l1.105,3.4224l3.5947-0.0088l-2.9136,2.106
		l0.5866,1.791h0.877l-0.0002-0.9814c0-1.1045,0.895-2.0005,1.9995-2.0005c0.2118,0,0.412,0.0417,0.6036,0.1027l0.6826-0.4933
		c0.395-0.2852,0.5601-0.7881,0.4102-1.252s-0.5781-0.7754-1.0679-0.7754L10.167,5.5242L9.0361,2.0212
		C8.8867,1.5574,8.4585,1.2458,7.9712,1.2458c-0.4863,0-0.9141,0.3105-1.0654,0.7749L5.7754,5.5242L2.0923,5.5154
		c-0.4878,0-0.916,0.3115-1.0659,0.7754S1.0415,7.2576,1.436,7.5422L4.419,9.6985l-1.145,3.4971
		c-0.1138,0.3457-0.0571,0.7109,0.1538,1.0029c0.3521,0.4849,1.0815,0.606,1.5698,0.25l2.9741-2.1699l0.2845,0.2076
		c0.1129-0.515,0.4228-0.9554,0.8484-1.2376l-1.1329-0.8265L5.0664,12.5417z"/>
	<path d="M16.2783,12.1653h-2.3073l-0.0004-2.2319c0-0.4146-0.3359-0.75-0.75-0.75c-0.4146,0-0.75,0.3359-0.75,0.75l0.0004,2.2319
		h-2.2635c-0.4141,0-0.75,0.3359-0.75,0.75s0.3359,0.75,0.75,0.75h2.2638l0.0004,2.3389c0,0.4146,0.3359,0.75,0.75,0.75
		c0.4146,0,0.75-0.3359,0.75-0.75l-0.0004-2.3389h2.307c0.4141,0,0.75-0.3359,0.75-0.75S16.6924,12.1653,16.2783,12.1653z"/>
</g>
</svg>
