<?xml version="1.0" encoding="utf-8"?>
<!-- Generator: Adobe Illustrator 18.1.1, SVG Export Plug-In . SVG Version: 6.00 Build 0)  -->
<svg version="1.1" id="Layer_1" xmlns="http://www.w3.org/2000/svg" xmlns:xlink="http://www.w3.org/1999/xlink" x="0px" y="0px"
	 viewBox="0 0 18 18" enable-background="new 0 0 18 18" xml:space="preserve">
<g>
	<path d="M4.5576,7.5581c0.2441-0.2441,0.6406-0.2441,0.8848,0l5.0574,5.0579l2.0579-2.0579c0.2441-0.2441,0.6406-0.2441,0.8848,0
		L16,13.1157V4.4805C15.9766,3.5811,15.3877,3,14.5,3H3.4863C2.584,3.0234,2,3.6118,2,4.5v5.616L4.5576,7.5581z M11.0001,5
		c1.105,0,2,0.895,2,2c0,1.105-0.895,2-2,2c-1.105,0-2-0.895-2-2C9.0001,5.895,9.8951,5,11.0001,5z"/>
	<path d="M13,11.8838L9.8841,15h4.6257l0.0098-0.0005c0.4769-0.0125,0.8549-0.1918,1.1136-0.4823L13,11.8838z"/>
	<path d="M9.616,13.4998L5,8.8838l-3,3v1.6357C2.0234,14.4189,2.6123,15,3.5,15h4.6157L9.616,13.4998z"/>
</g>
</svg>
