<?xml version="1.0" encoding="utf-8"?>
<!-- Generator: Adobe Illustrator 18.1.1, SVG Export Plug-In . SVG Version: 6.00 Build 0)  -->
<svg version="1.1" id="Layer_1" xmlns="http://www.w3.org/2000/svg" xmlns:xlink="http://www.w3.org/1999/xlink" x="0px" y="0px"
	 viewBox="0 0 18 18" enable-background="new 0 0 18 18" xml:space="preserve">
<g>
	<path d="M15.9946,12.8838l-0.0215-0.1606c-0.0532-0.2139-0.1992-0.4585-0.3779-0.6343l-2.6729-2.6733
		C12.6523,9.1475,12.2949,9,11.915,9H6.0869C5.7061,9,5.3472,9.1479,5.0742,9.4185l-2.6646,2.6675
		c-0.2144,0.2124-0.353,0.4834-0.4019,0.7837l-0.0107,0.0732l0.0015,0.0688C2,13.0806,2.0005,13.5493,2.001,13.9771
		c0.0005,0.3638,0.001,0.6982,0.0034,0.7808C2.0469,15.4541,2.6304,16,3.333,16h11.3379c0.7124,0,1.2969-0.5649,1.332-1.3213
		C16.0029,14.6284,15.999,13.0337,15.9946,12.8838z M3.502,14.5c-0.0005-0.1362-0.0005-0.3262-0.001-0.5254
		C3.5005,13.6548,3.5,13.312,3.499,13.1177L6.0869,10.5l5.7769-0.022l2.6333,2.5864c0.0024,0.3306,0.0049,1.1128,0.0059,1.4355
		H3.502z"/>
	<path d="M9.002,8c1.6543,0,3-1.3457,3-3s-1.3457-3-3-3s-3,1.3457-3,3S7.3477,8,9.002,8z M9.002,3.5c0.8271,0,1.5,0.6729,1.5,1.5
		s-0.6729,1.5-1.5,1.5s-1.5-0.6729-1.5-1.5S8.1748,3.5,9.002,3.5z"/>
</g>
</svg>
