<svg class="icon" viewBox="0 0 1024 1024" version="1.1" xmlns="http://www.w3.org/2000/svg""><path d="M693.838 426.762c63.818-64.337 87.652-147.223 43.688-188.555-43.964-41.333-128.218-15.25-192.036 49.087-63.819 64.337-87.653 147.223-43.689 188.555 43.964 41.333 128.219 15.25 192.037-49.087z m-36.03-33.873c-47.153 47.537-103.145 64.87-121.213 47.884-18.068-16.987-2.229-72.07 44.924-119.606 47.153-47.537 103.146-64.87 121.214-47.884 18.068 16.986 2.228 72.07-44.925 119.606z" fill="#f59e0b""></path><path d="M720.134 606.411c63.818-64.337 87.652-147.223 43.688-188.555-43.964-41.333-128.218-15.25-192.037 49.087-63.818 64.337-87.652 147.223-43.688 188.555 43.964 41.333 128.218 15.25 192.037-49.087z m-36.03-33.873c-47.153 47.537-103.146 64.87-121.214 47.884-18.068-16.986-2.228-72.07 44.925-119.606 47.153-47.537 103.146-64.87 121.213-47.884 18.068 16.987 2.23 72.07-44.924 119.606z" fill="#f59e0b"></path><path d="M650.472 888.458c24.32-12.02 48.303-29.537 69.662-51.07 63.818-64.337 87.652-147.222 43.688-188.555-43.964-41.332-128.218-15.25-192.037 49.087-63.818 64.338-87.652 147.223-43.688 188.556 9.95 9.353 25.804 9.084 35.411-0.602 9.608-9.686 9.332-25.12-0.618-34.475-18.068-16.986-2.228-72.07 44.925-119.606s103.146-64.87 121.213-47.883c18.068 16.986 2.23 72.07-44.924 119.606-17.569 17.712-37.07 31.956-56.305 41.462-12.333 6.095-17.255 20.77-10.994 32.777 6.26 12.006 21.334 16.798 33.667 10.703zM318.563 392.89c-47.153-47.537-62.993-102.62-44.925-119.607 18.068-16.986 74.06 0.347 121.214 47.884 47.153 47.536 62.992 102.62 44.924 119.606-18.068 16.986-74.06-0.347-121.213-47.884z m-36.03 33.872c63.818 64.338 148.073 90.42 192.037 49.087 43.964-41.332 20.13-124.218-43.689-188.555-63.818-64.338-148.072-90.42-192.036-49.087-43.964 41.332-20.13 124.218 43.688 188.555z" fill="#f59e0b"></path><path d="M435.158 165.181c0-66.084 27.91-116.42 53.028-116.42 25.117 0 53.027 50.336 53.027 116.42S513.303 281.6 488.186 281.6c-25.118 0-53.028-50.335-53.028-116.419z m-50.087 0c0 89.44 41.997 165.18 103.115 165.18 61.117 0 103.114-75.74 103.114-165.18C591.3 75.741 549.303 0 488.186 0 427.068 0 385.07 75.741 385.07 165.181zM344.858 572.538c-47.153-47.536-62.992-102.62-44.924-119.606 18.068-16.986 74.06 0.347 121.214 47.884 47.153 47.536 62.992 102.62 44.924 119.606-18.068 16.986-74.06-0.347-121.214-47.884z m-36.03 33.873c63.82 64.338 148.073 90.42 192.037 49.087 43.964-41.332 20.13-124.218-43.688-188.555-63.818-64.338-148.072-90.42-192.036-49.087-43.965 41.332-20.13 124.218 43.688 188.555z" fill="#f59e0b"></path><path d="M344.858 803.516c-47.153-47.537-62.992-102.62-44.924-119.606 18.068-16.987 74.06 0.347 121.214 47.883C468.3 779.33 484.14 834.413 466.072 851.4c-18.068 16.987-74.06-0.347-121.214-47.883z m-36.03 33.873c63.82 64.337 148.073 90.42 192.037 49.087s20.13-124.218-43.688-188.556c-63.818-64.337-148.072-90.42-192.036-49.087-43.965 41.333-20.13 124.218 43.688 188.556z" fill="#f59e0b"></path><path d="M526.377 993.284V312.339c0-13.465-11.213-24.38-25.044-24.38-13.83 0-25.043 10.915-25.043 24.38v680.945c0 13.465 11.212 24.38 25.043 24.38s25.044-10.915 25.044-24.38z" fill="#f59e0b"></path></svg>
