<svg width="24" height="25" viewBox="0 0 24 25" fill="none" xmlns="http://www.w3.org/2000/svg">
    <path fill-rule="evenodd" clip-rule="evenodd"
        d="M20.0982 2.89541C19.5659 2.3679 18.7035 2.36824 18.1716 2.89615L12.0377 8.98407L11.7589 8.70746C10.423 9.41711 9.01767 9.97541 7.51529 10.2239C5.70145 10.5238 3.87484 10.6464 2.03794 10.6464C1.52092 16.8024 6.35296 22.0219 12.6021 21.4582L12.8202 21.0254C13.5139 19.6489 14.1886 17.6304 14.6816 15.9999C15.0269 14.8579 15.3417 13.7081 15.6335 12.5518L15.4664 12.386L21.6013 6.29716C22.1333 5.76901 22.1328 4.91276 21.6004 4.38498L20.0982 2.89541ZM13.276 10.2126L14.2282 11.1574L20.0879 5.3416L19.1354 4.39712L13.276 10.2126ZM9.3924 11.5718L13.0841 15.2347C13.3531 14.3321 13.5659 13.5522 13.6909 13.0815L11.4191 10.8274C10.9555 11.0344 10.2492 11.3217 9.3924 11.5718ZM12.4945 17.1069L7.35584 12.0083C5.83853 12.2368 4.50898 12.3258 3.69411 12.361C3.80597 16.4923 7.58011 19.8571 11.4691 19.7974C11.821 19.0222 12.1728 18.0695 12.4945 17.1069Z"
        fill="white" />
    <path d="M1 16.5L1.27009 17.2299L2 17.5L1.27009 17.7701L1 18.5L0.729909 17.7701L0 17.5L0.729909 17.2299L1 16.5Z"
        fill="white" />
    <path d="M2.5 18.5L3.17523 20.3248L5 21L3.17523 21.6752L2.5 23.5L1.82477 21.6752L0 21L1.82477 20.3248L2.5 18.5Z"
        fill="white" />
</svg>