<svg class="icon" viewBox="0 0 1024 1024" version="1.1" xmlns="http://www.w3.org/2000/svg">
    <path
        d="M645.981 223.103H1024V134.24H528.518a427.358 427.358 0 0 1 117.463 88.863M1024 445.344v-88.896H730.213c11.169 28.276 19.465 58.006 24.356 88.896H1024zM1024 667.552v-88.896H754.569c-4.89 30.859-13.17 60.587-24.356 88.896H1024zM528.518 889.759H1024v-88.896H645.981a427.118 427.118 0 0 1-117.463 88.896M335.491 176.493C150.227 176.493 0 326.703 0 512.017c0 185.28 150.227 335.458 335.491 335.458 185.265 0 335.491-150.177 335.491-335.458-0.001-185.314-150.226-335.524-335.491-335.524m287.476 335.249c0 158.779-128.696 287.508-287.477 287.508-158.78 0-287.507-128.729-287.507-287.508 0-158.765 128.727-287.475 287.507-287.475 158.782 0 287.477 128.711 287.477 287.475"
        fill="#eab308"></path>
    <path d="M350.275 545.087v89.121c14.912-4.082 34.506-13.912 34.506-42.219 0.001-29.891-22.659-40.705-34.506-46.902"
        fill="#eab308"></path>
    <path
        d="M335.507 242.86c-148.531 0.289-268.625 120.382-268.899 268.882 0.274 148.531 120.368 268.592 268.899 268.916 148.467-0.324 268.577-120.384 268.868-268.916-0.291-148.5-120.401-268.593-268.868-268.882m108.474 346.029c0 71.594-56.1 95.303-90.091 100.919V713c0 8.748-1.582 10.298-10.813 10.298h-10.329c-9.263 0-10.83-1.55-10.83-10.298v-23.192c-17.462 0-89.59-11.813-89.59-27.259 0-1.55 0-1.55 1.066-4.649l14.912-43.237c0.501-1.049 2.567-4.148 4.649-4.148 3.066 0 37.605 20.095 68.963 23.678V533.305c-31.358-13.912-90.59-31.956-90.59-99.969 0-75.661 66.914-97.288 90.59-98.338v-25.225c0-8.781 1.567-10.329 10.83-10.329h10.329c9.232 0 10.813 1.549 10.813 10.329v25.225c14.945 1.049 80.842 12.38 80.842 29.875 0 2.066-0.501 3.614-1.534 5.68l-15.945 35.007c-1.081 2.581-2.615 4.099-4.647 4.099-3.132 0-36.572-20.577-58.716-20.577v95.287c33.473 16.462 90.091 38.621 90.091 104.52"
        fill="#eab308"></path>
    <path d="M290.559 429.237c0 27.841 23.66 38.638 35.022 43.803v-83.958c-10.329 2.567-35.022 9.781-35.022 40.155"
        fill="#eab308"></path>
</svg>