<?xml version="1.0" standalone="no"?><!DOCTYPE svg PUBLIC "-//W3C//DTD SVG 1.1//EN" "http://www.w3.org/Graphics/SVG/1.1/DTD/svg11.dtd"><svg t="1684130293890" class="icon" viewBox="0 0 1024 1024" version="1.1" xmlns="http://www.w3.org/2000/svg" p-id="20385" width="16" height="16" xmlns:xlink="http://www.w3.org/1999/xlink"><path d="M0 512c0 282.4 229.6 512 512 512s512-229.6 512-512S794.4 0 512 0 0 229.6 0 512z" fill="#C0E0FF" p-id="20386"></path><path d="M709.6 824H315.2c-36 0-65.6-29.6-65.6-65.6 0-117.6 95.2-213.6 213.6-213.6h98.4c117.6 0 213.6 95.2 213.6 213.6 0 36-28.8 65.6-65.6 65.6zM512 528c-90.4 0-164-73.6-164-164S421.6 200 512 200s164 73.6 164 164C676.8 455.2 602.4 528 512 528z" fill="#64B9FF" p-id="20387"></path><path d="M709.6 824H315.2c-36 0-65.6-29.6-65.6-65.6 0-117.6 95.2-213.6 213.6-213.6h98.4c117.6 0 213.6 95.2 213.6 213.6 0 36-28.8 65.6-65.6 65.6zM512.8 528c-90.4 0-164-73.6-164-164C348 273.6 421.6 200 512 200s164 73.6 164 164C676.8 455.2 602.4 528 512.8 528z" fill="#64B9FF" p-id="20388"></path></svg>