<svg class="icon" viewBox="0 0 1024 1024" version="1.1" xmlns="http://www.w3.org/2000/svg"><path d="M407.104 626.24a70.56 70.56 0 0 0-71.296 71.136c0 40.32 31.392 66.88 71.296 66.88 35.648 0 66.528-26.56 66.528-66.88 0-39.808-30.88-71.136-66.528-71.136z m0 106.688c-22.336 0-35.648-17.504-35.648-35.552 0-17.504 13.312-35.552 35.648-35.552 17.568 0 30.88 18.048 30.88 35.552 0 18.048-13.312 35.552-30.88 35.552z m520.448-154.976v70.56c0 22.304-13.312 35.552-30.816 35.552h-40.512c-4.256-44.064-44.192-79.552-88.864-79.552S682.816 640 678.496 684.064h-182.528c-9.056-44.064-44.16-79.552-88.864-79.552-48.928 0-84.576 35.488-93.632 79.552H269.28c-18.08 0-31.392-13.248-31.392-35.552v-70.56h689.664zM767.36 626.24a70.56 70.56 0 0 0-71.328 71.136c0 40.32 31.36 66.88 71.328 66.88 39.872 0 71.328-26.56 71.328-66.88a70.592 70.592 0 0 0-71.328-71.136z m0 106.688c-17.632 0-35.616-17.504-35.616-35.552 0-17.504 18.016-35.552 35.616-35.552 17.568 0 35.68 18.048 35.68 35.552 0.032 18.048-18.112 35.552-35.68 35.552z m146.88-230.912l-129.312-128.48c-8.512-9.024-21.824-13.28-35.2-13.28h-62.176v-26.528c0-18.048-18.048-31.328-35.68-31.328H269.28a30.464 30.464 0 0 0-31.392 31.328v8.48l-137.824 13.824 240 30.752-244.224 26.56 244.224 31.296-244.224 21.792 142.048 27.072v66.336h689.664v-26.496c0-13.28-4.224-22.272-13.312-31.328z m-57.984 4.768h-124.512c-4.32 0-9.056-4.768-9.056-4.768v-97.152c0-4.768 4.736-4.768 9.056-4.768h26.56l102.752 97.664c4.256 4.256 0 9.024-4.8 9.024z" fill="#22c55e"></path></svg>
