<?xml version="1.0" standalone="no"?><!DOCTYPE svg PUBLIC "-//W3C//DTD SVG 1.1//EN" "http://www.w3.org/Graphics/SVG/1.1/DTD/svg11.dtd"><svg t="1699596229588" class="icon" viewBox="0 0 1024 1024" version="1.1" xmlns="http://www.w3.org/2000/svg" p-id="20460" xmlns:xlink="http://www.w3.org/1999/xlink" width="32" height="32"><path d="M576 128a96 96 0 0 1 96 96v128h-224a96 96 0 0 0-95.84 90.368L352 448v224H224a96 96 0 0 1-96-96V224a96 96 0 0 1 96-96h352z" fill="#CCD9FF" p-id="20461"></path><path d="M576 96a128 128 0 0 1 128 128v128h-64V224a64 64 0 0 0-59.2-63.84L576 160H224a64 64 0 0 0-64 64v352a64 64 0 0 0 64 64h128v64H224a128 128 0 0 1-128-128V224a128 128 0 0 1 128-128z" fill="#3671FD" p-id="20462"></path><path d="M800 320H448a128 128 0 0 0-128 128v352a128 128 0 0 0 128 128h352a128 128 0 0 0 128-128V448a128 128 0 0 0-128-128z m-352 64h352a64 64 0 0 1 64 64v352a64 64 0 0 1-64 64H448a64 64 0 0 1-64-64V448a64 64 0 0 1 64-64z" fill="#3671FD" p-id="20463"></path><path d="M128 736a32 32 0 0 1 32 32 96 96 0 0 0 90.368 95.84L256 864a32 32 0 0 1 0 64 160 160 0 0 1-160-160 32 32 0 0 1 32-32z" fill="#FE9C23" p-id="20464"></path></svg>