<svg width="1280" height="720" xmlns="http://www.w3.org/2000/svg" xmlns:xlink="http://www.w3.org/1999/xlink" overflow="hidden"><defs><clipPath id="clip0"><rect x="0" y="0" width="1280" height="720"/></clipPath></defs><g clip-path="url(#clip0)"><rect x="0" y="0" width="1280" height="720" fill="#FFFFFF"/><text font-family="Consolas,Consolas_MSFontService,sans-serif" font-weight="400" font-size="14" transform="translate(704.536 105)">(1)<tspan fill="#0000FF" font-size="14" x="0" y="17">for</tspan><tspan font-size="14" x="30.6667" y="17">(</tspan><tspan fill="#0000FF" font-size="14" x="38.3333" y="17">int</tspan><tspan font-size="14" x="69" y="17">ibs1</tspan><tspan font-size="14" x="107.333" y="17">= 0; </tspan><tspan font-size="14" x="145.667" y="17">ibs1</tspan><tspan font-size="14" x="184" y="17">&lt; head_num; ++ibs1)</tspan><tspan font-size="14" x="0" y="168">(2)</tspan><tspan fill="#0000FF" font-size="14" x="7.66669" y="185">for</tspan><tspan font-size="14" x="38.3333" y="185">(</tspan><tspan fill="#0000FF" font-size="14" x="46" y="185">int</tspan><tspan font-size="14" x="76.6667" y="185">j</tspan><tspan font-size="14" x="92" y="185">= 0; </tspan><tspan font-size="14" x="130.333" y="185">j</tspan><tspan font-size="14" x="145.667" y="185">&lt; </tspan><tspan font-size="14" x="161" y="185">head_size</tspan>; j+=16)<tspan font-size="14" x="0" y="269">(3)</tspan><tspan fill="#0000FF" font-size="14" x="30.6667" y="286">for</tspan><tspan font-size="14" x="61.3333" y="286">(</tspan><tspan fill="#0000FF" font-size="14" x="69" y="286">int</tspan><tspan font-size="14" x="99.6667" y="286">ibs0</tspan><tspan font-size="14" x="138" y="286">= 0; </tspan><tspan font-size="14" x="176.333" y="286">ibs0</tspan><tspan font-size="14" x="214.667" y="286">&lt; </tspan><tspan font-size="14" x="230" y="286">batch_size</tspan>; ++ibs0)<tspan font-size="14" x="0" y="420">(4)</tspan><tspan fill="#0000FF" font-size="14" x="38.3333" y="437">for</tspan><tspan font-size="14" x="69" y="437">(</tspan><tspan fill="#0000FF" font-size="14" x="76.6667" y="437">int</tspan><tspan font-size="14" x="107.333" y="437">i</tspan><tspan font-size="14" x="122.667" y="437">= 0; </tspan><tspan font-size="14" x="161" y="437">i</tspan><tspan font-size="14" x="176.333" y="437">&lt; </tspan><tspan font-size="14" x="191.667" y="437">seq_len</tspan><tspan font-size="14" x="245.333" y="437">; </tspan><tspan font-size="14" x="260.667" y="437">i</tspan><tspan font-size="14" x="268.333" y="437">+=16)</tspan><tspan font-family="Calibri,Calibri_MSFontService,sans-serif" font-size="32" x="-3.08337" y="-55">matmul_vnni_noperm_p2031_p1302</tspan></text><rect x="26.5001" y="263.5" width="651" height="419" stroke="#70AD47" stroke-width="1.33333" stroke-miterlimit="8" fill="none"/><rect x="32.5001" y="364.5" width="639" height="309" stroke="#70AD47" stroke-width="1.33333" stroke-miterlimit="8" fill="none"/><path d="M391.94 512.634 666.5 512.692 666.5 660.5 38.5001 660.5 38.5001 512.692 252.414 512.5" stroke="#70AD47" stroke-width="1.33333" stroke-miterlimit="8" fill="none" fill-rule="evenodd"/><rect x="17.5001" y="16.5001" width="666" height="679" stroke="#70AD47" stroke-width="1.33333" stroke-miterlimit="8" fill="none"/><text font-family="Calibri,Calibri_MSFontService,sans-serif" font-weight="400" font-size="12" transform="matrix(-1.83697e-16 -1 1 -1.83697e-16 79.6966 617)">seq_len</text><path d="M502.5 316.5 665.329 316.5" stroke="#70AD47" stroke-linejoin="round" stroke-miterlimit="10" stroke-dasharray="4 3" fill="none" fill-rule="evenodd"/><text font-family="Calibri,Calibri_MSFontService,sans-serif" font-weight="400" font-size="12" transform="matrix(-1.83697e-16 -1 1 -1.83697e-16 500.504 312)">16</text><rect x="343.5" y="52.5001" width="52" height="52" stroke="#70AD47" stroke-width="1.33333" stroke-miterlimit="8" stroke-dasharray="4 1.33333" fill="none"/><rect x="291.5" y="52.5001" width="52" height="53" stroke="#70AD47" stroke-width="1.33333" stroke-miterlimit="8" fill="none"/><text font-family="Calibri,Calibri_MSFontService,sans-serif" font-weight="400" font-size="14" transform="translate(296.198 48)">seq_len</text><text font-family="Calibri,Calibri_MSFontService,sans-serif" font-weight="400" font-size="12" transform="matrix(-1.83697e-16 -1 1 -1.83697e-16 286.363 99)">seq_len<tspan font-size="12" x="-83" y="-9.07648">×</tspan>head_num</text><path d="M283.833 124.5 283.833 179.042 283.167 179.042 283.167 124.5ZM287.5 177.709 283.5 185.709 279.5 177.709Z" fill="#4472C4"/><text font-family="Calibri,Calibri_MSFontService,sans-serif" font-weight="400" font-size="12" transform="translate(346.916 40)">×batch_size</text><path d="M342.5 45.1667 404.786 45.1668 404.786 45.8335 342.5 45.8334ZM403.453 41.5001 411.453 45.5002 403.453 49.5001Z" fill="#4472C4"/><path d="M316.833 78.5001 316.833 141.346 316.167 141.346 316.167 78.5001ZM320.5 140.012 316.5 148.012 312.5 140.012Z" fill="#5B9BD5"/><path d="M316.5 144.5 316.5 222.293" stroke="#5B9BD5" stroke-width="0.666667" stroke-miterlimit="8" fill="none" fill-rule="evenodd"/><path d="M373.833 78.5001 373.833 141.346 373.167 141.346 373.167 78.5001ZM377.5 140.012 373.5 148.012 369.5 140.012Z" fill="#5B9BD5"/><path d="M373.5 143.5 373.5 221.293" stroke="#5B9BD5" stroke-width="0.666667" stroke-miterlimit="8" fill="none" fill-rule="evenodd"/><path d="M0 0 57.0756 142.414" stroke="#5B9BD5" stroke-width="0.666667" stroke-miterlimit="8" fill="none" fill-rule="evenodd" transform="matrix(-1 0 0 1 373.576 79.5001)"/><path d="M411.27 52.5001 291.5 52.5002" stroke="#70AD47" stroke-linejoin="round" stroke-miterlimit="10" stroke-dasharray="4 3" fill="none" fill-rule="evenodd"/><path d="M291.5 52.5001 291.5 231.601" stroke="#70AD47" stroke-linejoin="round" stroke-miterlimit="10" stroke-dasharray="4 3" fill="none" fill-rule="evenodd"/><path d="M410.5 52.5001 410.5 231.601" stroke="#70AD47" stroke-linejoin="round" stroke-miterlimit="10" stroke-dasharray="4 3" fill="none" fill-rule="evenodd"/><path d="M294.5 105.5 411.665 105.5" stroke="#70AD47" stroke-linejoin="round" stroke-miterlimit="10" stroke-dasharray="4 3" fill="none" fill-rule="evenodd"/><path d="M295.5 69.1668 310.129 69.1667 310.129 69.8334 295.5 69.8334ZM308.796 65.5 316.796 69.5 308.796 73.5Z" fill="#5B9BD5"/><path d="M315.5 69.5001 339.333 69.4999" stroke="#5B9BD5" stroke-width="0.666667" stroke-miterlimit="8" fill="none" fill-rule="evenodd"/><path d="M295.5 75.1668 310.129 75.1667 310.129 75.8334 295.5 75.8334ZM308.796 71.5 316.796 75.5 308.796 79.5Z" fill="#5B9BD5"/><path d="M315.5 75.5001 339.333 75.4999" stroke="#5B9BD5" stroke-width="0.666667" stroke-miterlimit="8" fill="none" fill-rule="evenodd"/><path d="M295.5 82.1668 310.129 82.1667 310.129 82.8334 295.5 82.8334ZM308.796 78.5 316.796 82.5 308.796 86.5Z" fill="#5B9BD5"/><path d="M315.5 82.5001 339.333 82.4999" stroke="#5B9BD5" stroke-width="0.666667" stroke-miterlimit="8" fill="none" fill-rule="evenodd"/><path d="M295.5 89.1668 310.129 89.1667 310.129 89.8334 295.5 89.8334ZM308.796 85.5 316.796 89.5 308.796 93.5Z" fill="#5B9BD5"/><path d="M315.5 89.5001 339.333 89.4999" stroke="#5B9BD5" stroke-width="0.666667" stroke-miterlimit="8" fill="none" fill-rule="evenodd"/><path d="M0 0 43.8351 6.99885" stroke="#5B9BD5" stroke-width="0.666667" stroke-miterlimit="8" fill="none" fill-rule="evenodd" transform="matrix(-1 0 0 1 339.335 68.5001)"/><path d="M0 0 43.8351 6.99885" stroke="#5B9BD5" stroke-width="0.666667" stroke-miterlimit="8" fill="none" fill-rule="evenodd" transform="matrix(-1 0 0 1 339.335 76.5001)"/><path d="M0 0 43.8351 6.99885" stroke="#5B9BD5" stroke-width="0.666667" stroke-miterlimit="8" fill="none" fill-rule="evenodd" transform="matrix(-1 0 0 1 339.335 82.5001)"/><path d="M502.5 73.5001 502.5 194.99" stroke="#70AD47" stroke-linejoin="round" stroke-miterlimit="10" stroke-dasharray="4 3" fill="none" fill-rule="evenodd"/><path d="M502.5 73.5001 665.329 73.5002" stroke="#70AD47" stroke-linejoin="round" stroke-miterlimit="10" stroke-dasharray="4 3" fill="none" fill-rule="evenodd"/><path d="M665.5 73.5001 665.5 194.99" stroke="#70AD47" stroke-linejoin="round" stroke-miterlimit="10" stroke-dasharray="4 3" fill="none" fill-rule="evenodd"/><text font-family="DengXian,DengXian_MSFontService,sans-serif" font-weight="400" font-size="14" transform="translate(570.742 58)">×<tspan font-family="Calibri,Calibri_MSFontService,sans-serif" font-size="14" x="9.33337" y="0">batch_size</tspan></text><rect x="502.5" y="73.5001" width="52" height="34" stroke="#70AD47" stroke-width="1.33333" stroke-miterlimit="8" fill="none"/><text font-family="Calibri,Calibri_MSFontService,sans-serif" font-weight="400" font-size="12" transform="matrix(-1.83697e-16 -1 1 -1.83697e-16 494.896 117)">head_size</text><path d="M570.5 61.1667 645.941 61.1668 645.941 61.8335 570.5 61.8334ZM644.608 57.5001 652.608 61.5002 644.608 65.5001Z" fill="#4472C4"/><text font-family="Calibri,Calibri_MSFontService,sans-serif" font-weight="400" font-size="14" transform="translate(506.119 63)">seq_len</text><text font-family="DengXian,DengXian_MSFontService,sans-serif" font-weight="400" font-size="12" transform="matrix(-1.83697e-16 -1 1 -1.83697e-16 490.766 182)">×<tspan font-family="Calibri,Calibri_MSFontService,sans-serif" font-size="12" x="8" y="1.46958e-15">head_num</tspan></text><path d="M497.833 123.5 497.833 178.042 497.167 178.042 497.167 123.5ZM501.5 176.709 497.5 184.709 493.5 176.709Z" fill="#4472C4"/><text font-family="DengXian,DengXian_MSFontService,sans-serif" font-weight="400" font-size="48" transform="translate(448.361 143)">×<tspan font-family="Calibri,Calibri_MSFontService,sans-serif" font-size="48" x="-214.365" y="0">=</tspan><tspan font-family="Calibri,Calibri_MSFontService,sans-serif" font-size="16" x="-133.319" y="-8">softmax</tspan><tspan font-family="Calibri,Calibri_MSFontService,sans-serif" font-size="16" x="-80.9654" y="-8">(QK</tspan><tspan font-family="Calibri,Calibri_MSFontService,sans-serif" font-size="11" x="-56.9654" y="-13">T</tspan><tspan font-family="Calibri,Calibri_MSFontService,sans-serif" font-size="16" x="-51.7987" y="-8">)</tspan><tspan font-family="Calibri,Calibri_MSFontService,sans-serif" font-size="32" x="129.421" y="-3">V</tspan></text><path d="M512.5 80.1668 575.345 80.1667 575.345 80.8333 512.5 80.8334ZM574.012 76.5 582.012 80.5 574.012 84.5Z" fill="#5B9BD5"/><path d="M577.5 80.5001 655.293 80.5" stroke="#5B9BD5" stroke-width="0.666667" stroke-miterlimit="8" fill="none" fill-rule="evenodd"/><path d="M512.5 87.1668 575.345 87.1667 575.345 87.8333 512.5 87.8334ZM574.012 83.5 582.012 87.5 574.012 91.5Z" fill="#5B9BD5"/><path d="M577.5 87.5001 655.293 87.5" stroke="#5B9BD5" stroke-width="0.666667" stroke-miterlimit="8" fill="none" fill-rule="evenodd"/><path d="M512.5 93.1668 575.345 93.1667 575.345 93.8333 512.5 93.8334ZM574.012 89.5 582.012 93.5 574.012 97.5Z" fill="#5B9BD5"/><path d="M577.5 93.5001 655.293 93.5" stroke="#5B9BD5" stroke-width="0.666667" stroke-miterlimit="8" fill="none" fill-rule="evenodd"/><path d="M512.5 100.167 575.345 100.167 575.345 100.833 512.5 100.833ZM574.012 96.5 582.012 100.5 574.012 104.5Z" fill="#5B9BD5"/><path d="M577.5 100.5 655.293 100.5" stroke="#5B9BD5" stroke-width="0.666667" stroke-miterlimit="8" fill="none" fill-rule="evenodd"/><path d="M502.5 107.5 665.329 107.5" stroke="#70AD47" stroke-linejoin="round" stroke-miterlimit="10" stroke-dasharray="4 3" fill="none" fill-rule="evenodd"/><path d="M39.5001 72.5001 39.5002 193.99" stroke="#70AD47" stroke-linejoin="round" stroke-miterlimit="10" stroke-dasharray="4 3" fill="none" fill-rule="evenodd"/><path d="M39.5001 72.5001 202.329 72.5002" stroke="#70AD47" stroke-linejoin="round" stroke-miterlimit="10" stroke-dasharray="4 3" fill="none" fill-rule="evenodd"/><path d="M202.5 72.5001 202.5 193.99" stroke="#70AD47" stroke-linejoin="round" stroke-miterlimit="10" stroke-dasharray="4 3" fill="none" fill-rule="evenodd"/><text font-family="DengXian,DengXian_MSFontService,sans-serif" font-weight="400" font-size="12" transform="matrix(-1.83697e-16 -1 1 -1.83697e-16 27.1088 182)">×<tspan font-family="Calibri,Calibri_MSFontService,sans-serif" font-size="12" x="8" y="1.46958e-15">head_num</tspan></text><text font-family="DengXian,DengXian_MSFontService,sans-serif" font-weight="400" font-size="14" transform="translate(107.085 57)">×<tspan font-family="Calibri,Calibri_MSFontService,sans-serif" font-size="14" x="9.33334" y="0">batch_size</tspan></text><rect x="39.5001" y="72.5001" width="52" height="34" stroke="#70AD47" stroke-width="1.33333" stroke-miterlimit="8" fill="none"/><text font-family="Calibri,Calibri_MSFontService,sans-serif" font-weight="400" font-size="12" transform="matrix(-1.83697e-16 -1 1 -1.83697e-16 31.2383 117)">head_size</text><path d="M106.5 60.1667 181.941 60.1668 181.941 60.8335 106.5 60.8334ZM180.608 56.5001 188.608 60.5002 180.608 64.5001Z" fill="#4472C4"/><text font-family="Calibri,Calibri_MSFontService,sans-serif" font-weight="400" font-size="14" transform="translate(42.4619 62)">seq_len</text><path d="M33.8334 122.5 33.8335 177.042 33.1668 177.042 33.1667 122.5ZM37.5001 175.709 33.5002 183.709 29.5001 175.709Z" fill="#4472C4"/><path d="M48.5 79.1668 111.345 79.1667 111.345 79.8333 48.5 79.8334ZM110.012 75.5 118.012 79.5 110.012 83.5Z" fill="#5B9BD5"/><path d="M114.5 79.5001 192.293 79.5" stroke="#5B9BD5" stroke-width="0.666667" stroke-miterlimit="8" fill="none" fill-rule="evenodd"/><path d="M48.5 86.1668 111.345 86.1667 111.345 86.8333 48.5 86.8334ZM110.012 82.5 118.012 86.5 110.012 90.5Z" fill="#5B9BD5"/><path d="M114.5 86.5001 192.293 86.5" stroke="#5B9BD5" stroke-width="0.666667" stroke-miterlimit="8" fill="none" fill-rule="evenodd"/><path d="M48.5 93.1668 111.345 93.1667 111.345 93.8333 48.5 93.8334ZM110.012 89.5 118.012 93.5 110.012 97.5Z" fill="#5B9BD5"/><path d="M114.5 93.5001 192.293 93.5" stroke="#5B9BD5" stroke-width="0.666667" stroke-miterlimit="8" fill="none" fill-rule="evenodd"/><path d="M48.5 100.167 111.345 100.167 111.345 100.833 48.5 100.833ZM110.012 96.5 118.012 100.5 110.012 104.5Z" fill="#5B9BD5"/><path d="M114.5 100.5 192.293 100.5" stroke="#5B9BD5" stroke-width="0.666667" stroke-miterlimit="8" fill="none" fill-rule="evenodd"/><path d="M38.5001 106.5 201.329 106.5" stroke="#70AD47" stroke-linejoin="round" stroke-miterlimit="10" stroke-dasharray="4 3" fill="none" fill-rule="evenodd"/><text font-family="DengXian,DengXian_MSFontService,sans-serif" font-weight="400" font-size="48" transform="translate(448.361 331)">×</text><path d="M502.5 298.5 502.5 332.978" stroke="#70AD47" stroke-linejoin="round" stroke-miterlimit="10" stroke-dasharray="4 3" fill="none" fill-rule="evenodd"/><path d="M502.5 298.5 665.329 298.5" stroke="#70AD47" stroke-linejoin="round" stroke-miterlimit="10" stroke-dasharray="4 3" fill="none" fill-rule="evenodd"/><text font-family="DengXian,DengXian_MSFontService,sans-serif" font-weight="400" font-size="14" transform="translate(570.742 283)">×<tspan font-family="Calibri,Calibri_MSFontService,sans-serif" font-size="14" x="9.33337" y="0">batch_size</tspan></text><rect x="502.5" y="298.5" width="52" height="17" stroke="#70AD47" stroke-width="1.33333" stroke-miterlimit="8" fill="none"/><path d="M570.5 286.167 645.941 286.167 645.941 286.833 570.5 286.833ZM644.608 282.5 652.608 286.5 644.608 290.5Z" fill="#4472C4"/><text font-family="Calibri,Calibri_MSFontService,sans-serif" font-weight="400" font-size="14" transform="translate(506.119 288)">seq_len<tspan font-size="48" x="-271.616" y="42">=</tspan></text><rect x="291.5" y="298.5" width="53" height="52" stroke="#70AD47" stroke-width="1.33333" stroke-miterlimit="8" fill="none"/><text font-family="Calibri,Calibri_MSFontService,sans-serif" font-weight="400" font-size="14" transform="translate(296.86 293)">seq_len</text><text font-family="Calibri,Calibri_MSFontService,sans-serif" font-weight="400" font-size="12" transform="matrix(-1.83697e-16 -1 1 -1.83697e-16 287.025 344)">seq_len</text><text font-family="Calibri,Calibri_MSFontService,sans-serif" font-weight="400" font-size="12" transform="translate(347.579 285)">×batch_size</text><path d="M343.5 291.167 405.786 291.167 405.786 291.833 343.5 291.833ZM404.453 287.5 412.453 291.5 404.453 295.5Z" fill="#4472C4"/><path d="M512.5 305.167 575.345 305.167 575.345 305.833 512.5 305.833ZM574.012 301.5 582.012 305.5 574.012 309.5Z" fill="#5B9BD5"/><path d="M577.5 305.5 655.293 305.5" stroke="#5B9BD5" stroke-width="0.666667" stroke-miterlimit="8" fill="none" fill-rule="evenodd"/><path d="M512.5 312.167 575.345 312.167 575.345 312.833 512.5 312.833ZM574.012 308.5 582.012 312.5 574.012 316.5Z" fill="#5B9BD5"/><path d="M577.5 312.5 655.293 312.5" stroke="#5B9BD5" stroke-width="0.666667" stroke-miterlimit="8" fill="none" fill-rule="evenodd"/><path d="M411.27 298.5 291.5 298.5" stroke="#70AD47" stroke-linejoin="round" stroke-miterlimit="10" stroke-dasharray="4 3" fill="none" fill-rule="evenodd"/><path d="M291.5 298.5 291.5 350.431" stroke="#70AD47" stroke-linejoin="round" stroke-miterlimit="10" stroke-dasharray="4 3" fill="none" fill-rule="evenodd"/><path d="M411.5 298.5 411.5 350.431" stroke="#70AD47" stroke-linejoin="round" stroke-miterlimit="10" stroke-dasharray="4 3" fill="none" fill-rule="evenodd"/><path d="M294.5 350.5 411.665 350.5" stroke="#70AD47" stroke-linejoin="round" stroke-miterlimit="10" stroke-dasharray="4 3" fill="none" fill-rule="evenodd"/><path d="M296.5 313.167 311.129 313.167 311.129 313.833 296.5 313.833ZM309.796 309.5 317.796 313.5 309.796 317.5Z" fill="#5B9BD5"/><path d="M316.5 313.5 340.333 313.5" stroke="#5B9BD5" stroke-width="0.666667" stroke-miterlimit="8" fill="none" fill-rule="evenodd"/><path d="M296.5 320.167 311.129 320.167 311.129 320.833 296.5 320.833ZM309.796 316.5 317.796 320.5 309.796 324.5Z" fill="#5B9BD5"/><path d="M316.5 320.5 340.333 320.5" stroke="#5B9BD5" stroke-width="0.666667" stroke-miterlimit="8" fill="none" fill-rule="evenodd"/><path d="M296.5 327.167 311.129 327.167 311.129 327.833 296.5 327.833ZM309.796 323.5 317.796 327.5 309.796 331.5Z" fill="#5B9BD5"/><path d="M316.5 327.5 340.333 327.5" stroke="#5B9BD5" stroke-width="0.666667" stroke-miterlimit="8" fill="none" fill-rule="evenodd"/><path d="M296.5 334.167 311.129 334.167 311.129 334.833 296.5 334.833ZM309.796 330.5 317.796 334.5 309.796 338.5Z" fill="#5B9BD5"/><path d="M316.5 334.5 340.333 334.5" stroke="#5B9BD5" stroke-width="0.666667" stroke-miterlimit="8" fill="none" fill-rule="evenodd"/><path d="M0 0 43.8351 6.99885" stroke="#5B9BD5" stroke-width="0.666667" stroke-miterlimit="8" fill="none" fill-rule="evenodd" transform="matrix(-1 0 0 1 340.335 313.5)"/><path d="M0 0 43.8351 6.99885" stroke="#5B9BD5" stroke-width="0.666667" stroke-miterlimit="8" fill="none" fill-rule="evenodd" transform="matrix(-1 0 0 1 340.335 320.5)"/><path d="M0 0 43.8351 6.99885" stroke="#5B9BD5" stroke-width="0.666667" stroke-miterlimit="8" fill="none" fill-rule="evenodd" transform="matrix(-1 0 0 1 340.335 327.5)"/><path d="M666.5 297.5 666.5 331.978" stroke="#70AD47" stroke-linejoin="round" stroke-miterlimit="10" stroke-dasharray="4 3" fill="none" fill-rule="evenodd"/><rect x="344.5" y="297.5" width="52" height="53" stroke="#70AD47" stroke-width="1.33333" stroke-miterlimit="8" stroke-dasharray="4 1.33333" fill="none"/><path d="M39.5001 316.5 202.329 316.5" stroke="#70AD47" stroke-linejoin="round" stroke-miterlimit="10" stroke-dasharray="4 3" fill="none" fill-rule="evenodd"/><text font-family="Calibri,Calibri_MSFontService,sans-serif" font-weight="400" font-size="12" transform="matrix(-1.83697e-16 -1 1 -1.83697e-16 36.5931 313)">16</text><path d="M39.5001 298.5 39.5002 332.978" stroke="#70AD47" stroke-linejoin="round" stroke-miterlimit="10" stroke-dasharray="4 3" fill="none" fill-rule="evenodd"/><path d="M39.5001 298.5 202.329 298.5" stroke="#70AD47" stroke-linejoin="round" stroke-miterlimit="10" stroke-dasharray="4 3" fill="none" fill-rule="evenodd"/><text font-family="DengXian,DengXian_MSFontService,sans-serif" font-weight="400" font-size="14" transform="translate(107.125 283)">×<tspan font-family="Calibri,Calibri_MSFontService,sans-serif" font-size="14" x="9.33333" y="0">batch_size</tspan></text><rect x="38.5001" y="298.5" width="53" height="17" stroke="#70AD47" stroke-width="1.33333" stroke-miterlimit="8" fill="none"/><path d="M106.5 286.167 181.941 286.167 181.941 286.833 106.5 286.833ZM180.608 282.5 188.608 286.5 180.608 290.5Z" fill="#4472C4"/><text font-family="Calibri,Calibri_MSFontService,sans-serif" font-weight="400" font-size="14" transform="translate(42.5025 288)">seq_len</text><path d="M48.5 305.167 111.345 305.167 111.345 305.833 48.5 305.833ZM110.012 301.5 118.012 305.5 110.012 309.5Z" fill="#5B9BD5"/><path d="M114.5 305.5 192.293 305.5" stroke="#5B9BD5" stroke-width="0.666667" stroke-miterlimit="8" fill="none" fill-rule="evenodd"/><path d="M48.5 312.167 111.345 312.167 111.345 312.833 48.5 312.833ZM110.012 308.5 118.012 312.5 110.012 316.5Z" fill="#5B9BD5"/><path d="M114.5 312.5 192.293 312.5" stroke="#5B9BD5" stroke-width="0.666667" stroke-miterlimit="8" fill="none" fill-rule="evenodd"/><path d="M202.5 297.5 202.5 331.978" stroke="#70AD47" stroke-linejoin="round" stroke-miterlimit="10" stroke-dasharray="4 3" fill="none" fill-rule="evenodd"/><path d="M502.5 445.5 665.329 445.5" stroke="#70AD47" stroke-linejoin="round" stroke-miterlimit="10" stroke-dasharray="4 3" fill="none" fill-rule="evenodd"/><text font-family="DengXian,DengXian_MSFontService,sans-serif" font-weight="400" font-size="48" transform="translate(448.361 450)">×</text><path d="M502.5 427.5 665.329 427.5" stroke="#70AD47" stroke-linejoin="round" stroke-miterlimit="10" stroke-dasharray="4 3" fill="none" fill-rule="evenodd"/><text font-family="DengXian,DengXian_MSFontService,sans-serif" font-weight="400" font-size="14" transform="translate(570.742 413)">×<tspan font-family="Calibri,Calibri_MSFontService,sans-serif" font-size="14" x="9.33337" y="0">batch_size</tspan></text><rect x="502.5" y="427.5" width="52" height="18" stroke="#70AD47" stroke-width="1.33333" stroke-miterlimit="8" fill="none"/><path d="M570.5 415.167 645.941 415.167 645.941 415.833 570.5 415.833ZM644.608 411.5 652.608 415.5 644.608 419.5Z" fill="#4472C4"/><text font-family="Calibri,Calibri_MSFontService,sans-serif" font-weight="400" font-size="14" transform="translate(506.119 417)">seq_len<tspan font-size="48" x="-271.616" y="33">=</tspan></text><rect x="291.5" y="417.5" width="53" height="53" stroke="#70AD47" stroke-width="1.33333" stroke-miterlimit="8" fill="none"/><text font-family="Calibri,Calibri_MSFontService,sans-serif" font-weight="400" font-size="14" transform="translate(296.86 413)">seq_len</text><text font-family="Calibri,Calibri_MSFontService,sans-serif" font-weight="400" font-size="12" transform="matrix(-1.83697e-16 -1 1 -1.83697e-16 287.025 464)">seq_len</text><text font-family="Calibri,Calibri_MSFontService,sans-serif" font-weight="400" font-size="12" transform="translate(347.579 405)">×batch_size</text><path d="M343.5 410.167 405.786 410.167 405.786 410.833 343.5 410.833ZM404.453 406.5 412.453 410.5 404.453 414.5Z" fill="#4472C4"/><path d="M512.5 434.167 575.345 434.167 575.345 434.833 512.5 434.833ZM574.012 430.5 582.012 434.5 574.012 438.5Z" fill="#5B9BD5"/><path d="M577.5 434.5 655.293 434.5" stroke="#5B9BD5" stroke-width="0.666667" stroke-miterlimit="8" fill="none" fill-rule="evenodd"/><path d="M512.5 441.167 575.345 441.167 575.345 441.833 512.5 441.833ZM574.012 437.5 582.012 441.5 574.012 445.5Z" fill="#5B9BD5"/><path d="M577.5 441.5 655.293 441.5" stroke="#5B9BD5" stroke-width="0.666667" stroke-miterlimit="8" fill="none" fill-rule="evenodd"/><path d="M296.5 433.167 311.129 433.167 311.129 433.833 296.5 433.833ZM309.796 429.5 317.796 433.5 309.796 437.5Z" fill="#5B9BD5"/><path d="M316.5 433.5 340.333 433.5" stroke="#5B9BD5" stroke-width="0.666667" stroke-miterlimit="8" fill="none" fill-rule="evenodd"/><path d="M296.5 440.167 311.129 440.167 311.129 440.833 296.5 440.833ZM309.796 436.5 317.796 440.5 309.796 444.5Z" fill="#5B9BD5"/><path d="M316.5 440.5 340.333 440.5" stroke="#5B9BD5" stroke-width="0.666667" stroke-miterlimit="8" fill="none" fill-rule="evenodd"/><path d="M296.5 447.167 311.129 447.167 311.129 447.833 296.5 447.833ZM309.796 443.5 317.796 447.5 309.796 451.5Z" fill="#5B9BD5"/><path d="M316.5 447.5 340.333 447.5" stroke="#5B9BD5" stroke-width="0.666667" stroke-miterlimit="8" fill="none" fill-rule="evenodd"/><path d="M296.5 454.167 311.129 454.167 311.129 454.833 296.5 454.833ZM309.796 450.5 317.796 454.5 309.796 458.5Z" fill="#5B9BD5"/><path d="M316.5 454.5 340.333 454.5" stroke="#5B9BD5" stroke-width="0.666667" stroke-miterlimit="8" fill="none" fill-rule="evenodd"/><path d="M0 0 43.8351 6.99885" stroke="#5B9BD5" stroke-width="0.666667" stroke-miterlimit="8" fill="none" fill-rule="evenodd" transform="matrix(-1 0 0 1 340.335 433.5)"/><path d="M0 0 43.8351 6.99885" stroke="#5B9BD5" stroke-width="0.666667" stroke-miterlimit="8" fill="none" fill-rule="evenodd" transform="matrix(-1 0 0 1 340.335 440.5)"/><path d="M0 0 43.8351 6.99885" stroke="#5B9BD5" stroke-width="0.666667" stroke-miterlimit="8" fill="none" fill-rule="evenodd" transform="matrix(-1 0 0 1 340.335 447.5)"/><path d="M54.5001 445.5 217.329 445.5" stroke="#70AD47" stroke-linejoin="round" stroke-miterlimit="10" stroke-dasharray="4 3" fill="none" fill-rule="evenodd"/><path d="M54.5001 427.5 54.5002 445.037" stroke="#70AD47" stroke-linejoin="round" stroke-miterlimit="10" stroke-dasharray="4 3" fill="none" fill-rule="evenodd"/><path d="M54.5001 427.5 217.329 427.5" stroke="#70AD47" stroke-linejoin="round" stroke-miterlimit="10" stroke-dasharray="4 3" fill="none" fill-rule="evenodd"/><text font-family="DengXian,DengXian_MSFontService,sans-serif" font-weight="400" font-size="14" transform="translate(122.725 413)">×<tspan font-family="Calibri,Calibri_MSFontService,sans-serif" font-size="14" x="9.33333" y="0">batch_size</tspan></text><rect x="54.5001" y="427.5" width="52" height="18" stroke="#70AD47" stroke-width="1.33333" stroke-miterlimit="8" fill="none"/><path d="M122.5 415.167 197.941 415.167 197.941 415.833 122.5 415.833ZM196.608 411.5 204.608 415.5 196.608 419.5Z" fill="#4472C4"/><text font-family="Calibri,Calibri_MSFontService,sans-serif" font-weight="400" font-size="14" transform="translate(58.1025 417)">seq_len</text><path d="M64.5 434.167 127.345 434.167 127.345 434.833 64.5 434.833ZM126.012 430.5 134.012 434.5 126.012 438.5Z" fill="#5B9BD5"/><path d="M129.5 434.5 207.293 434.5" stroke="#5B9BD5" stroke-width="0.666667" stroke-miterlimit="8" fill="none" fill-rule="evenodd"/><path d="M64.5 441.167 127.345 441.167 127.345 441.833 64.5 441.833ZM126.012 437.5 134.012 441.5 126.012 445.5Z" fill="#5B9BD5"/><path d="M129.5 441.5 207.293 441.5" stroke="#5B9BD5" stroke-width="0.666667" stroke-miterlimit="8" fill="none" fill-rule="evenodd"/><text font-family="Calibri,Calibri_MSFontService,sans-serif" font-weight="400" font-size="12" transform="matrix(-1.83697e-16 -1 1 -1.83697e-16 500.504 442)">16<tspan font-size="12" x="8.23534e-14" y="-448.311">16</tspan></text><text font-family="DengXian,DengXian_MSFontService,sans-serif" font-weight="400" font-size="48" transform="translate(448.361 601)">×<tspan font-family="Calibri,Calibri_MSFontService,sans-serif" font-size="48" x="-213.857" y="-1">=</tspan></text><rect x="303.5" y="545.5" width="94" height="53" stroke="#70AD47" stroke-width="1.33333" stroke-miterlimit="8" fill="none"/><text font-family="Calibri,Calibri_MSFontService,sans-serif" font-weight="400" font-size="14" transform="translate(323.179 539)">seq_len</text><text font-family="Calibri,Calibri_MSFontService,sans-serif" font-weight="400" font-size="12" transform="matrix(-1.83697e-16 -1 1 -1.83697e-16 296.625 614)">seq_len</text><path d="M307.5 558.167 341.576 558.167 341.576 558.833 307.5 558.833ZM340.243 554.5 348.243 558.5 340.243 562.5Z" fill="#5B9BD5"/><path d="M345.5 558.5 391.097 558.5" stroke="#5B9BD5" stroke-width="0.666667" stroke-miterlimit="8" fill="none" fill-rule="evenodd"/><path d="M307.5 567.167 341.576 567.167 341.576 567.833 307.5 567.833ZM340.243 563.5 348.243 567.5 340.243 571.5Z" fill="#5B9BD5"/><path d="M345.5 567.5 391.097 567.5" stroke="#5B9BD5" stroke-width="0.666667" stroke-miterlimit="8" fill="none" fill-rule="evenodd"/><path d="M307.5 577.167 341.576 577.167 341.576 577.833 307.5 577.833ZM340.243 573.5 348.243 577.5 340.243 581.5Z" fill="#5B9BD5"/><path d="M345.5 577.5 391.097 577.5" stroke="#5B9BD5" stroke-width="0.666667" stroke-miterlimit="8" fill="none" fill-rule="evenodd"/><path d="M307.5 586.167 341.576 586.167 341.576 586.833 307.5 586.833ZM340.243 582.5 348.243 586.5 340.243 590.5Z" fill="#5B9BD5"/><path d="M345.5 586.5 391.097 586.5" stroke="#5B9BD5" stroke-width="0.666667" stroke-miterlimit="8" fill="none" fill-rule="evenodd"/><path d="M0 0 83.8647 9.55223" stroke="#5B9BD5" stroke-width="0.666667" stroke-miterlimit="8" fill="none" fill-rule="evenodd" transform="matrix(-1 0 0 1 391.365 558.5)"/><path d="M0 0 83.8647 9.55223" stroke="#5B9BD5" stroke-width="0.666667" stroke-miterlimit="8" fill="none" fill-rule="evenodd" transform="matrix(-1 0 0 1 391.365 568.5)"/><path d="M0 0 83.8647 9.55223" stroke="#5B9BD5" stroke-width="0.666667" stroke-miterlimit="8" fill="none" fill-rule="evenodd" transform="matrix(-1 0 0 1 391.365 577.5)"/><path d="M91.5001 544.5 91.5002 638.076" stroke="#70AD47" stroke-linejoin="round" stroke-miterlimit="10" stroke-dasharray="4 3" fill="none" fill-rule="evenodd"/><path d="M91.5001 544.5 144.1 544.5" stroke="#70AD47" stroke-linejoin="round" stroke-miterlimit="10" stroke-dasharray="4 3" fill="none" fill-rule="evenodd"/><rect x="91.5001" y="545.5" width="52" height="53" stroke="#70AD47" stroke-width="1.33333" stroke-miterlimit="8" fill="none"/><text font-family="Calibri,Calibri_MSFontService,sans-serif" font-weight="400" font-size="12" transform="translate(110.817 553)">16</text><path d="M143.5 545.5 143.5 638.778" stroke="#70AD47" stroke-linejoin="round" stroke-miterlimit="10" stroke-dasharray="4 3" fill="none" fill-rule="evenodd"/><path d="M126.833 560.5 126.833 590.513 126.167 590.513 126.167 560.5ZM130.5 589.18 126.5 597.18 122.5 589.18Z" fill="#5B9BD5"/><path d="M126.5 594.5 126.5 635.55" stroke="#5B9BD5" stroke-width="0.666667" stroke-miterlimit="8" fill="none" fill-rule="evenodd"/><path d="M119.833 560.5 119.833 590.513 119.167 590.513 119.167 560.5ZM123.5 589.18 119.5 597.18 115.5 589.18Z" fill="#5B9BD5"/><path d="M119.5 594.5 119.5 635.55" stroke="#5B9BD5" stroke-width="0.666667" stroke-miterlimit="8" fill="none" fill-rule="evenodd"/><path d="M112.833 560.5 112.833 590.513 112.167 590.513 112.167 560.5ZM116.5 589.18 112.5 597.18 108.5 589.18Z" fill="#5B9BD5"/><path d="M112.5 594.5 112.5 635.55" stroke="#5B9BD5" stroke-width="0.666667" stroke-miterlimit="8" fill="none" fill-rule="evenodd"/><path d="M106.833 560.5 106.833 590.513 106.167 590.513 106.167 560.5ZM110.5 589.18 106.5 597.18 102.5 589.18Z" fill="#5B9BD5"/><path d="M106.5 594.5 106.5 635.55" stroke="#5B9BD5" stroke-width="0.666667" stroke-miterlimit="8" fill="none" fill-rule="evenodd"/><text font-family="Calibri,Calibri_MSFontService,sans-serif" font-weight="400" font-size="12" transform="matrix(-1.83697e-16 -1 1 -1.83697e-16 99.0978 575)">16<tspan font-size="12" x="-31" y="434.681">seq_len</tspan></text><rect x="543.5" y="545.5" width="53" height="93" stroke="#70AD47" stroke-width="1.33333" stroke-miterlimit="8" fill="none"/><text font-family="Calibri,Calibri_MSFontService,sans-serif" font-weight="400" font-size="12" transform="translate(563.767 536)">16</text><path d="M579.833 554.5 579.833 584.513 579.167 584.513 579.167 554.5ZM583.5 583.18 579.5 591.18 575.5 583.18Z" fill="#5B9BD5"/><path d="M579.5 588.5 579.5 629.55" stroke="#5B9BD5" stroke-width="0.666667" stroke-miterlimit="8" fill="none" fill-rule="evenodd"/><path d="M572.833 554.5 572.833 584.513 572.167 584.513 572.167 554.5ZM576.5 583.18 572.5 591.18 568.5 583.18Z" fill="#5B9BD5"/><path d="M572.5 588.5 572.5 629.55" stroke="#5B9BD5" stroke-width="0.666667" stroke-miterlimit="8" fill="none" fill-rule="evenodd"/><path d="M565.833 554.5 565.833 584.513 565.167 584.513 565.167 554.5ZM569.5 583.18 565.5 591.18 561.5 583.18Z" fill="#5B9BD5"/><path d="M565.5 588.5 565.5 629.55" stroke="#5B9BD5" stroke-width="0.666667" stroke-miterlimit="8" fill="none" fill-rule="evenodd"/><path d="M559.833 554.5 559.833 584.513 559.167 584.513 559.167 554.5ZM563.5 583.18 559.5 591.18 555.5 583.18Z" fill="#5B9BD5"/><path d="M559.5 588.5 559.5 629.55" stroke="#5B9BD5" stroke-width="0.666667" stroke-miterlimit="8" fill="none" fill-rule="evenodd"/><path d="M397.418 545.5 303.5 545.5" stroke="#70AD47" stroke-linejoin="round" stroke-miterlimit="10" stroke-dasharray="4 3" fill="none" fill-rule="evenodd"/><path d="M303.5 545.5 303.5 638.778" stroke="#70AD47" stroke-linejoin="round" stroke-miterlimit="10" stroke-dasharray="4 3" fill="none" fill-rule="evenodd"/><path d="M397.5 545.5 397.5 638.778" stroke="#70AD47" stroke-linejoin="round" stroke-miterlimit="10" stroke-dasharray="4 3" fill="none" fill-rule="evenodd"/><rect x="251.5" y="496.5" width="140" height="28" stroke="#70AD47" stroke-width="1.33333" stroke-miterlimit="8" fill="none"/><text font-family="Calibri,Calibri_MSFontService,sans-serif" font-weight="400" font-size="19" transform="translate(283.274 516)">kernel tile</text><path d="M291.5 416.5 291.5 469.548" stroke="#70AD47" stroke-linejoin="round" stroke-miterlimit="10" stroke-dasharray="4 3" fill="none" fill-rule="evenodd"/><path d="M291.5 469.5 410.502 469.5" stroke="#70AD47" stroke-linejoin="round" stroke-miterlimit="10" stroke-dasharray="4 3" fill="none" fill-rule="evenodd"/><path d="M291.5 416.5 410.502 416.5" stroke="#70AD47" stroke-linejoin="round" stroke-miterlimit="10" stroke-dasharray="4 3" fill="none" fill-rule="evenodd"/></g></svg>