<svg height="126" node-id="1" sillyvg="true" template-height="126" template-width="126" version="1.1" viewBox="0 0 126 126" width="126" xmlns="http://www.w3.org/2000/svg" xmlns:xlink="http://www.w3.org/1999/xlink"><defs node-id="274"></defs><g node-id="980"><path d="M 105.78 77.49 C 104.29 77.27 90.17 81.90 88.67 88.23 C 87.17 94.57 75.87 101.17 71.06 99.54 C 66.24 97.91 59.93 99.65 59.93 99.65 L 55.96 101.57 L 55.05 102.00 L 55.04 102.00 L 1.00 70.80 L 68.44 31.60 L 120.77 61.82 C 122.42 62.77 123.79 64.18 124.51 65.94 C 128.48 75.66 107.15 77.68 105.78 77.49 Z" fill="#f3f6fd" fill-rule="nonzero" group-id="1" node-id="282" stroke="none" target-height="70.4" target-width="127.479996" target-x="1" target-y="31.6"></path><path d="M 105.78 77.49 C 104.29 77.27 90.17 81.90 88.67 88.23 C 87.17 94.57 75.87 101.17 71.06 99.54 C 66.24 97.91 59.93 99.65 59.93 99.65 L 55.96 101.57 L 55.05 102.00 L 55.04 102.00 L 1.00 70.80 L 68.44 31.60 L 120.77 61.82 C 122.42 62.77 123.79 64.18 124.51 65.94 C 128.48 75.66 107.15 77.68 105.78 77.49 Z" fill="#f3f6fd" fill-rule="nonzero" group-id="1" node-id="284" stroke="none" target-height="70.4" target-width="127.479996" target-x="1" target-y="31.6"></path><g node-id="982"><path d="M 101.99 62.25 L 101.98 64.20 C 101.98 65.18 101.33 66.16 100.04 66.92 C 97.44 68.43 93.21 68.43 90.59 66.92 C 89.27 66.15 88.61 65.16 88.62 64.16 L 88.62 62.22 C 88.62 63.21 89.28 64.21 90.59 64.97 C 93.21 66.48 97.44 66.48 100.04 64.97 C 101.34 64.22 101.98 63.24 101.99 62.25 Z" fill="#e1e9f4" fill-rule="nonzero" group-id="1,3" node-id="288" stroke="none" target-height="6.209999" target-width="13.379997" target-x="88.61" target-y="62.22"></path></g><path d="M 95.47 64.40 C 94.93 65.30 94.94 66.26 94.97 66.64 C 94.90 66.65 94.85 66.65 94.80 66.66 C 94.95 65.88 94.82 65.16 94.80 64.91 C 94.79 64.81 94.82 64.57 94.87 64.26 C 94.46 64.24 94.05 64.20 93.66 64.14 C 93.52 64.60 93.35 65.02 93.16 65.34 C 92.74 66.05 92.65 66.82 92.64 67.28 C 91.79 67.78 92.10 67.82 91.59 69.31 C 91.32 70.13 91.18 70.68 91.11 71.02 L 89.59 71.55 C 89.58 71.55 89.58 71.55 89.58 71.55 C 89.53 71.54 89.50 71.54 89.50 71.54 C 89.08 71.54 88.62 71.74 88.45 71.86 C 88.39 71.90 88.37 71.90 88.37 71.98 L 87.63 72.23 C 87.57 72.25 87.55 72.28 87.54 72.31 L 87.51 72.43 C 87.43 72.48 87.37 72.55 87.35 72.61 L 86.81 74.82 C 86.80 74.87 86.82 74.90 86.86 74.90 C 86.85 74.91 86.85 74.90 86.84 74.90 L 86.99 74.97 C 87.02 74.98 87.07 74.98 87.12 74.96 L 89.83 74.01 L 89.98 74.22 C 90.02 74.28 90.03 74.36 89.99 74.44 C 89.95 74.53 89.90 74.63 89.85 74.74 C 89.28 75.16 88.64 75.49 89.29 76.17 C 89.12 76.75 89.10 77.24 89.43 77.34 C 89.52 77.36 89.60 77.38 89.68 77.38 C 89.78 77.41 89.88 77.42 89.98 77.44 C 89.94 77.60 89.84 77.84 89.64 78.14 C 89.19 78.87 88.58 79.87 90.31 80.26 C 90.31 80.26 91.13 80.48 91.50 80.18 C 91.50 80.18 92.48 80.24 92.97 79.21 C 93.35 78.43 93.17 77.76 92.64 77.28 C 92.71 77.23 92.78 77.18 92.83 77.14 C 93.19 76.88 93.62 76.69 94.07 76.55 C 94.17 76.51 94.27 76.47 94.38 76.42 C 94.78 76.29 94.92 75.90 94.92 75.90 C 95.04 75.61 95.35 74.02 95.45 73.21 C 95.47 73.05 95.40 72.90 95.26 72.79 L 95.05 72.64 C 95.06 72.64 95.06 72.63 95.06 72.63 C 95.94 71.98 96.03 71.73 96.27 71.12 C 96.28 71.10 96.29 71.09 96.29 71.08 C 96.29 71.08 96.29 71.08 96.29 71.07 C 96.60 70.27 97.07 66.87 97.07 66.87 C 96.98 66.81 96.88 66.75 96.75 66.72 C 97.32 65.75 97.18 64.61 97.12 64.12 C 96.60 64.21 96.08 64.26 95.55 64.27 C 95.52 64.31 95.50 64.35 95.47 64.40 Z" fill="#e1e9f4" fill-rule="nonzero" group-id="1" node-id="291" stroke="none" target-height="16.36" target-width="10.519997" target-x="86.8" target-y="64.12"></path><path d="M 60.88 98.74 C 60.87 98.73 60.86 98.72 60.85 98.71 C 60.86 98.70 60.87 98.70 60.88 98.70 C 60.88 98.70 61.01 95.46 59.38 95.94 C 58.72 96.14 57.87 96.42 57.03 96.71 C 56.49 95.95 57.10 94.34 57.33 93.83 C 57.60 93.24 57.81 92.76 57.81 92.76 C 57.81 92.76 58.54 91.08 58.16 88.96 C 58.11 88.69 58.12 88.41 58.17 88.14 C 58.30 87.35 58.56 85.84 58.72 85.43 C 59.37 85.19 60.51 84.94 60.91 84.93 C 61.37 84.92 61.93 84.65 61.30 84.42 C 60.66 84.19 58.79 84.49 58.79 84.49 L 58.81 84.41 C 58.83 84.35 58.76 84.31 58.67 84.31 L 57.72 84.36 C 57.62 84.36 57.54 84.41 57.54 84.47 C 57.51 84.65 57.48 85.02 57.48 85.20 C 57.35 85.40 56.34 87.06 56.23 88.27 C 56.19 88.67 56.12 89.08 55.97 89.48 C 55.94 89.27 55.95 89.04 55.99 88.82 C 56.12 88.02 57.20 82.87 57.36 82.50 C 57.18 82.23 56.34 82.42 55.74 82.50 C 55.74 82.50 54.14 87.70 54.04 88.99 C 54.01 89.41 53.94 89.84 53.77 90.26 C 53.56 90.77 53.24 91.43 52.79 92.00 C 52.27 92.63 52.22 93.15 52.29 93.50 C 52.26 93.51 52.24 93.52 52.24 93.52 L 52.24 93.56 C 52.21 94.21 52.11 94.87 51.93 95.52 C 51.49 96.14 51.23 96.67 51.22 96.67 C 50.89 97.59 50.64 98.38 50.55 99.03 C 50.52 99.27 50.70 99.45 50.99 99.53 C 51.02 99.53 51.04 99.53 51.05 99.54 C 51.29 99.61 51.56 99.62 51.73 99.62 C 51.68 99.76 51.63 99.89 51.59 100.01 L 55.04 102.00 L 55.05 102.00 L 55.96 101.57 L 59.93 99.65 C 59.93 99.65 60.38 99.53 61.11 99.38 C 61.10 99.26 61.09 99.14 61.09 99.14 C 61.09 99.13 60.98 98.80 60.88 98.74 Z" fill="#e1e9f4" fill-rule="nonzero" group-id="1,4" node-id="295" stroke="none" target-height="19.769997" target-width="11.41" target-x="50.52" target-y="82.23"></path><path d="M 65.24 84.36 L 65.23 86.30 C 65.23 87.28 64.58 88.27 63.29 89.02 C 60.69 90.53 56.46 90.53 53.84 89.02 C 52.52 88.26 51.86 87.26 51.87 86.26 L 51.87 84.32 C 51.87 85.31 52.53 86.31 53.85 87.07 C 56.46 88.58 60.69 88.58 63.30 87.07 C 64.59 86.32 65.23 85.34 65.24 84.36 Z" fill="#e1e9f4" fill-rule="nonzero" group-id="1,5" node-id="300" stroke="none" target-height="6.209999" target-width="13.379997" target-x="51.86" target-y="84.32"></path><path d="M 57.67 48.39 C 57.56 48.42 57.42 48.45 57.24 48.48 C 56.71 48.57 56.01 48.36 55.51 48.55 C 55.06 49.04 53.29 52.72 53.05 53.31 C 52.85 53.78 51.96 55.18 51.66 55.62 C 51.76 55.71 51.73 55.83 51.61 55.95 C 51.42 56.15 51.20 56.42 50.95 56.73 L 51.94 57.14 C 52.35 57.12 52.67 57.26 52.76 57.35 C 52.79 57.39 52.81 57.38 52.75 57.46 L 53.70 57.85 C 53.74 57.87 53.75 57.89 53.74 57.91 L 53.65 58.05 C 53.69 58.09 53.70 58.14 53.67 58.19 L 52.36 60.18 C 52.33 60.23 52.26 60.26 52.20 60.26 L 52.04 60.31 C 52.00 60.32 51.95 60.32 51.90 60.30 L 49.18 59.19 C 48.91 59.59 48.68 59.94 48.50 60.21 C 47.92 61.08 46.86 61.11 46.45 61.08 C 46.42 61.11 46.40 61.12 46.37 61.14 L 46.31 61.17 C 46.30 61.37 46.19 61.61 46.06 61.82 L 46.06 61.83 C 46.06 61.99 45.85 62.29 45.81 62.34 C 45.81 62.35 45.81 62.35 45.81 62.35 L 45.77 62.40 C 45.38 63.00 43.80 62.84 43.57 62.83 C 42.26 62.78 43.33 61.60 44.05 61.27 C 44.06 61.26 44.08 61.25 44.10 61.25 C 44.20 61.19 44.31 61.13 44.45 61.08 C 44.48 61.02 44.49 60.96 44.53 60.90 C 44.14 60.75 43.55 60.56 43.24 60.43 C 43.23 60.43 43.21 60.42 43.21 60.42 C 42.85 60.33 42.96 60.05 42.96 60.05 C 43.03 59.85 43.96 58.54 44.31 58.12 C 44.39 58.02 44.57 57.94 44.78 57.89 C 44.91 57.74 45.04 57.57 45.19 57.39 L 45.19 57.38 L 45.20 57.37 L 45.29 57.22 C 45.30 57.21 45.31 57.20 45.34 57.19 C 45.77 56.63 46.25 55.97 46.75 55.19 C 46.80 55.10 46.91 55.01 47.05 54.96 C 48.42 52.87 50.86 49.83 51.06 49.65 C 51.09 49.62 51.14 49.60 51.20 49.59 L 51.54 49.01 C 51.56 48.98 51.60 48.96 51.65 48.94 L 52.70 48.73 C 52.81 48.70 52.91 48.74 52.87 48.80 L 52.83 48.84 C 54.16 48.49 54.85 48.63 55.32 48.65 C 55.60 48.67 55.48 48.92 55.18 49.01 C 55.07 49.04 54.93 49.07 54.76 49.10 C 54.22 49.19 53.39 49.50 52.89 49.70 C 52.50 50.17 51.67 51.68 51.15 52.67 C 52.18 51.45 53.55 48.63 53.68 48.52 C 53.71 48.49 53.76 48.47 53.82 48.46 L 54.16 47.87 C 54.18 47.85 54.22 47.82 54.27 47.81 L 55.32 47.59 C 55.43 47.56 55.53 47.60 55.49 47.66 L 55.45 47.70 C 56.78 47.36 57.34 48.01 57.81 48.04 C 58.09 48.05 57.97 48.30 57.67 48.39 Z" fill="#e1e9f4" fill-rule="nonzero" group-id="1,6,15" node-id="307" stroke="none" target-height="15.639999" target-width="15.830002" target-x="42.26" target-y="47.36"></path><path d="M 61.05 49.72 L 61.04 51.66 C 61.04 52.65 60.39 53.63 59.10 54.38 C 56.50 55.89 52.27 55.89 49.65 54.38 C 48.33 53.62 47.67 52.62 47.68 51.62 L 47.68 49.68 C 47.68 50.68 48.34 51.67 49.65 52.43 C 52.27 53.95 56.50 53.95 59.10 52.43 C 60.40 51.68 61.04 50.70 61.05 49.72 Z" fill="#e1e9f4" fill-rule="nonzero" group-id="1,7" node-id="313" stroke="none" target-height="6.209999" target-width="13.380001" target-x="47.67" target-y="49.68"></path><path d="M 89.43 70.93 L 89.44 70.15 L 89.42 67.43 L 84.94 66.80 C 84.57 65.77 83.89 64.78 82.94 63.85 L 84.91 61.96 L 84.92 61.18 L 81.58 59.25 L 77.65 60.64 C 75.87 59.96 73.90 59.50 71.88 59.26 L 70.78 56.67 L 66.07 56.67 L 65.00 59.26 C 62.98 59.50 61.02 59.96 59.24 60.64 L 55.30 59.25 L 51.99 61.18 L 51.98 61.96 L 53.99 63.86 C 53.05 64.78 52.39 65.77 52.02 66.80 L 47.55 67.43 L 47.55 68.21 L 47.57 70.93 L 52.05 71.56 C 52.42 72.59 53.10 73.58 54.05 74.51 L 52.07 76.40 L 52.07 77.18 L 55.41 79.11 L 59.33 77.72 C 61.12 78.40 63.08 78.86 65.10 79.10 L 66.21 81.69 L 70.91 81.69 L 71.99 79.10 C 74.01 78.86 75.96 78.40 77.75 77.72 L 81.69 79.11 L 85.00 77.18 L 85.01 76.40 L 85.00 76.40 L 83.00 74.50 C 83.93 73.58 84.60 72.58 84.96 71.56 L 89.43 70.93 Z M 55.05 70.19 C 54.98 69.94 54.94 69.69 54.92 69.44 C 55.05 67.83 56.00 66.25 57.81 64.94 L 60.62 66.56 C 59.77 67.46 59.42 68.48 59.58 69.49 L 55.05 70.19 Z M 63.54 76.36 C 61.85 75.98 60.27 75.39 58.91 74.61 C 57.88 74.01 57.05 73.35 56.42 72.64 L 60.38 72.03 C 60.82 72.56 61.42 73.06 62.18 73.50 C 62.86 73.89 63.62 74.19 64.42 74.43 L 63.54 76.36 Z M 63.33 64.79 L 60.81 63.33 C 63.58 62.23 66.89 61.79 70.09 62.02 L 69.25 63.87 C 67.19 63.76 65.09 64.07 63.33 64.79 Z M 66.89 76.85 L 67.74 75.00 C 69.80 75.11 71.90 74.80 73.66 74.08 L 76.18 75.54 C 73.41 76.64 70.10 77.07 66.89 76.85 Z M 74.80 65.37 C 74.13 64.98 73.37 64.68 72.56 64.44 L 73.45 62.50 C 75.13 62.89 76.71 63.47 78.08 64.26 C 79.11 64.86 79.94 65.52 80.57 66.23 L 76.60 66.84 C 76.17 66.31 75.57 65.81 74.80 65.37 Z M 79.18 73.93 L 76.36 72.31 C 77.07 71.54 77.44 70.70 77.45 69.86 L 77.45 69.37 L 81.94 68.68 C 82.01 68.95 82.05 69.23 82.07 69.51 C 81.92 71.08 80.96 72.63 79.18 73.93 Z" fill="#e1e9f4" fill-rule="nonzero" group-id="1" node-id="316" stroke="none" target-height="25.020004" target-width="41.890003" target-x="47.55" target-y="56.67"></path><path d="M 120.41 61.61 L 82.02 83.62 L 72.84 78.31 L 111.22 56.30 L 110.67 55.99 L 72.29 78.00 L 43.64 61.46 L 82.02 39.44 L 81.47 39.13 L 43.09 61.14 L 33.91 55.84 L 72.29 33.83 L 71.74 33.51 L 4.04 72.56 L 4.59 72.87 L 33.47 56.09 L 42.65 61.39 L 13.77 78.17 L 14.32 78.49 L 43.20 61.71 L 52.47 67.06 L 23.59 83.84 L 23.98 84.07 L 52.86 67.28 L 62.21 72.68 L 33.32 89.46 L 33.71 89.69 L 62.59 72.90 L 71.85 78.25 L 42.97 95.03 L 43.52 95.35 L 72.40 78.57 L 81.59 83.87 L 52.71 100.65 L 53.26 100.97 L 120.96 61.92 Z" fill="#fafcff" fill-rule="nonzero" group-id="1" node-id="318" stroke="none" target-height="67.46001" target-width="116.92" target-x="4.04" target-y="33.51"></path></g><g node-id="981"><g node-id="987"><g node-id="995"><g node-id="1006"><g node-id="1030"><g node-id="1044"><path d="M 61.05 47.90 L 61.04 49.84 C 61.04 50.82 60.39 51.81 59.10 52.56 C 56.50 54.07 52.27 54.07 49.65 52.56 C 48.33 51.80 47.67 50.80 47.68 49.80 L 47.68 47.86 C 47.68 46.88 48.33 45.89 49.62 45.14 C 52.23 43.63 56.46 43.63 59.07 45.14 C 60.39 45.90 61.05 46.90 61.05 47.90 Z" fill="#83a1cc" fill-rule="nonzero" group-id="2,8,16,27,51,65" node-id="333" stroke="none" target-height="10.439999" target-width="13.380001" target-x="47.67" target-y="43.63"></path></g></g></g><g node-id="1007"><path d="M 61.05 47.90 L 61.04 49.84 C 61.04 50.82 60.39 51.81 59.10 52.56 C 56.50 54.07 52.27 54.07 49.65 52.56 C 48.33 51.80 47.67 50.80 47.68 49.80 L 47.68 47.86 C 47.68 48.85 48.34 49.85 49.65 50.61 C 52.27 52.12 56.50 52.12 59.10 50.61 C 60.40 49.86 61.04 48.88 61.05 47.90 Z" fill="#83a1cc" fill-rule="nonzero" group-id="2,8,16,28" node-id="340" stroke="none" target-height="6.209999" target-width="13.380001" target-x="47.67" target-y="47.86"></path></g><g node-id="1008"><path d="M 61.05 47.90 L 61.04 49.84 C 61.04 50.82 60.39 51.81 59.10 52.56 C 56.50 54.07 52.27 54.07 49.65 52.56 C 48.33 51.80 47.67 50.80 47.68 49.80 L 47.68 47.86 C 47.68 48.85 48.34 49.85 49.65 50.61 C 52.27 52.12 56.50 52.12 59.10 50.61 C 60.40 49.86 61.04 48.88 61.05 47.90 Z" fill="#83a1cc" fill-rule="nonzero" group-id="2,8,16,29" node-id="345" stroke="none" target-height="6.209999" target-width="13.380001" target-x="47.67" target-y="47.86"></path></g><path d="M 59.07 45.14 C 61.69 46.65 61.71 49.10 59.10 50.61 C 56.50 52.12 52.27 52.12 49.65 50.61 C 47.04 49.10 47.02 46.65 49.62 45.14 C 52.23 43.63 56.45 43.63 59.07 45.14 Z" fill="#b6cbea" fill-rule="nonzero" group-id="2,8,16,30" node-id="350" stroke="none" target-height="8.489998" target-width="14.689999" target-x="47.02" target-y="43.63"></path></g></g><g node-id="988"><g node-id="996"><g node-id="1010"><g node-id="1031"><g node-id="1045"><path d="M 65.24 82.54 L 65.23 84.48 C 65.23 85.46 64.58 86.45 63.29 87.20 C 60.69 88.71 56.46 88.71 53.84 87.20 C 52.52 86.44 51.87 85.44 51.87 84.44 L 51.87 82.50 C 51.87 81.52 52.52 80.53 53.82 79.78 C 56.42 78.27 60.65 78.27 63.27 79.78 C 64.58 80.54 65.24 81.54 65.24 82.54 Z" fill="#83a1cc" fill-rule="nonzero" group-id="2,9,17,31,52,66" node-id="365" stroke="none" target-height="10.440002" target-width="13.369999" target-x="51.87" target-y="78.27"></path></g></g></g><g node-id="1011"><path d="M 65.24 82.53 L 65.23 84.48 C 65.23 85.46 64.58 86.45 63.29 87.20 C 60.69 88.71 56.46 88.71 53.84 87.20 C 52.52 86.44 51.86 85.44 51.87 84.44 L 51.87 82.50 C 51.87 83.49 52.53 84.49 53.85 85.25 C 56.46 86.76 60.69 86.76 63.30 85.25 C 64.59 84.50 65.23 83.52 65.24 82.53 Z" fill="#83a1cc" fill-rule="nonzero" group-id="2,9,17,32" node-id="372" stroke="none" target-height="6.209999" target-width="13.379997" target-x="51.86" target-y="82.5"></path></g><g node-id="1012"><path d="M 65.24 82.53 L 65.23 84.48 C 65.23 85.46 64.58 86.45 63.29 87.20 C 60.69 88.71 56.46 88.71 53.84 87.20 C 52.52 86.44 51.86 85.44 51.87 84.44 L 51.87 82.50 C 51.87 83.49 52.53 84.49 53.85 85.25 C 56.46 86.76 60.69 86.76 63.30 85.25 C 64.59 84.50 65.23 83.52 65.24 82.53 Z" fill="#83a1cc" fill-rule="nonzero" group-id="2,9,17,33" node-id="377" stroke="none" target-height="6.209999" target-width="13.379997" target-x="51.86" target-y="82.5"></path></g><path d="M 63.26 79.78 C 65.88 81.29 65.90 83.74 63.30 85.25 C 60.69 86.76 56.46 86.76 53.85 85.25 C 51.23 83.74 51.21 81.29 53.82 79.78 C 56.42 78.27 60.65 78.27 63.26 79.78 Z" fill="#b6cbea" fill-rule="nonzero" group-id="2,9,17,34" node-id="382" stroke="none" target-height="8.4900055" target-width="14.690002" target-x="51.21" target-y="78.27"></path></g></g><g node-id="989"><g node-id="997"><g node-id="1014"><g node-id="1032"><g node-id="1046"><path d="M 101.99 60.43 L 101.98 62.38 C 101.98 63.36 101.33 64.34 100.04 65.10 C 97.44 66.61 93.21 66.61 90.59 65.10 C 89.27 64.33 88.61 63.34 88.62 62.34 L 88.62 60.40 C 88.62 59.41 89.27 58.43 90.56 57.68 C 93.17 56.17 97.40 56.17 100.01 57.68 C 101.33 58.44 101.99 59.44 101.99 60.43 Z" fill="#83a1cc" fill-rule="nonzero" group-id="2,10,18,35,53,67" node-id="397" stroke="none" target-height="10.440002" target-width="13.379997" target-x="88.61" target-y="56.17"></path></g></g></g><g node-id="1015"><path d="M 101.99 60.43 L 101.98 62.38 C 101.98 63.36 101.33 64.34 100.04 65.09 C 97.44 66.61 93.21 66.61 90.59 65.09 C 89.27 64.33 88.61 63.34 88.62 62.34 L 88.62 60.39 C 88.62 61.39 89.28 62.39 90.59 63.15 C 93.21 64.66 97.44 64.66 100.04 63.15 C 101.34 62.40 101.98 61.42 101.99 60.43 Z" fill="#83a1cc" fill-rule="nonzero" group-id="2,10,18,36" node-id="404" stroke="none" target-height="6.220001" target-width="13.379997" target-x="88.61" target-y="60.39"></path></g><g node-id="1016"><path d="M 100.01 57.68 C 102.63 59.19 102.65 61.64 100.04 63.15 C 97.44 64.66 93.21 64.66 90.59 63.15 C 87.98 61.64 87.96 59.19 90.56 57.68 C 93.17 56.16 97.39 56.16 100.01 57.68 Z" fill="#b6cbea" fill-rule="nonzero" group-id="2,10,18,37" node-id="409" stroke="none" target-height="8.500004" target-width="14.690002" target-x="87.96" target-y="56.16"></path></g><g node-id="1017"><path d="M 95.36 61.57 C 95.36 61.57 95.36 61.57 95.36 61.56 C 95.37 61.51 95.38 61.48 95.38 61.47 C 95.43 61.46 95.46 61.45 95.50 61.44 C 95.56 61.42 95.63 61.40 95.71 61.38 C 96.18 61.16 96.01 60.56 95.89 60.42 C 95.74 60.26 95.89 59.80 95.89 59.80 L 95.60 59.80 C 95.60 59.80 95.58 60.20 95.54 60.32 C 95.50 60.43 95.21 60.59 95.18 60.10 C 95.14 59.60 95.06 60.28 94.28 60.06 C 93.70 59.90 93.42 60.05 93.31 60.14 C 93.28 60.17 93.28 60.20 93.31 60.22 C 93.46 60.33 93.78 60.65 93.78 60.65 C 94.02 60.87 94.10 60.72 94.17 61.22 C 94.21 61.58 94.02 62.97 93.66 64.14 C 94.05 64.21 94.46 64.24 94.87 64.26 C 94.99 63.38 95.27 61.95 95.36 61.57 Z" fill="#e1e9f4" fill-opacity="0.35" fill-rule="nonzero" group-id="2,10,18,38" node-id="414" stroke="none" target-height="4.6600037" target-width="2.9000015" target-x="93.28" target-y="59.6"></path><path d="M 97.46 62.87 C 98.32 62.81 98.11 61.99 97.96 61.83 C 97.81 61.67 97.96 61.20 97.96 61.20 L 97.67 61.20 C 97.67 61.20 97.65 61.62 97.61 61.72 C 97.57 61.84 97.28 62.00 97.25 61.50 C 97.21 61.01 97.13 61.66 96.35 61.44 C 96.07 61.36 95.86 61.35 95.71 61.38 C 95.65 61.41 95.58 61.43 95.50 61.44 C 95.45 61.47 95.41 61.50 95.38 61.52 C 95.37 61.53 95.36 61.55 95.36 61.56 C 95.36 61.57 95.36 61.57 95.36 61.57 C 95.36 61.58 95.36 61.59 95.38 61.60 C 95.53 61.70 95.86 62.03 95.86 62.03 C 96.09 62.26 96.17 62.13 96.24 62.63 C 96.30 63.11 96.17 63.25 95.55 64.27 C 96.08 64.26 96.60 64.21 97.12 64.12 C 97.11 64.07 97.11 64.02 97.11 63.98 C 97.07 63.55 97.46 62.87 97.46 62.87 Z" fill="#e1e9f4" fill-opacity="0.35" fill-rule="nonzero" group-id="2,10,18,38" node-id="416" stroke="none" target-height="3.2599983" target-width="2.959999" target-x="95.36" target-y="61.01"></path></g></g></g><g node-id="990"><g node-id="998"><g node-id="1018"><path d="M 54.89 68.63 L 54.89 67.83 C 54.90 66.11 55.87 64.39 57.82 62.97 L 61.15 64.89 L 61.15 65.70 L 57.82 63.77 C 55.87 65.19 54.90 66.91 54.89 68.63 Z" fill="#1e72c6" fill-rule="nonzero" group-id="2,11,19,39" node-id="427" stroke="none" target-height="5.659996" target-width="6.260002" target-x="54.89" target-y="62.97"></path><path d="M 52.05 70.40 L 47.57 69.77 L 47.55 67.04 L 47.55 66.27 L 47.57 68.99 L 52.05 69.62 C 52.48 70.79 53.28 71.93 54.45 72.96 L 54.45 73.74 C 53.28 72.70 52.48 71.57 52.05 70.40 Z" fill="#1e72c6" fill-rule="nonzero" group-id="2,11,19,39" node-id="429" stroke="none" target-height="7.470001" target-width="6.9000015" target-x="47.55" target-y="66.27"></path><path d="M 55.86 70.77 L 60.39 70.06 C 60.82 70.60 61.42 71.10 62.19 71.54 C 62.95 71.98 63.82 72.33 64.74 72.57 L 64.74 73.38 C 63.81 73.13 62.95 72.78 62.19 72.34 C 61.42 71.90 60.82 71.40 60.39 70.87 L 55.86 71.57 L 55.86 70.77 Z" fill="#1e72c6" fill-rule="nonzero" group-id="2,11,19,39" node-id="431" stroke="none" target-height="3.3199997" target-width="8.879997" target-x="55.86" target-y="70.06"></path><path d="M 77.41 67.42 L 81.95 66.71 C 82.05 67.11 82.10 67.51 82.10 67.91 L 82.10 68.71 C 82.10 68.31 82.05 67.91 81.94 67.51 L 77.45 68.21 L 77.45 68.70 C 77.45 69.73 76.91 70.77 75.84 71.65 L 75.85 70.85 C 76.80 70.06 77.33 69.14 77.43 68.22 L 77.41 68.22 L 77.41 67.42 Z" fill="#1e72c6" fill-rule="nonzero" group-id="2,11,19,39" node-id="433" stroke="none" target-height="4.9400024" target-width="6.260002" target-x="75.84" target-y="66.71"></path><path d="M 81.69 77.17 L 85.01 75.24 L 85.00 76.02 L 81.69 77.94 L 77.75 76.56 C 75.97 77.24 74.01 77.70 71.99 77.94 L 70.91 80.53 L 66.21 80.53 L 65.11 77.94 C 63.09 77.70 61.12 77.24 59.34 76.56 L 55.41 77.94 L 52.08 76.02 L 52.08 75.24 L 55.41 77.17 L 59.34 75.78 C 61.13 76.46 63.09 76.92 65.11 77.16 L 66.21 79.76 L 70.91 79.76 L 71.99 77.16 C 74.01 76.92 75.97 76.46 77.75 75.78 L 81.69 77.17 Z" fill="#1e72c6" fill-rule="nonzero" group-id="2,11,19,39" node-id="435" stroke="none" target-height="5.290001" target-width="32.93" target-x="52.08" target-y="75.24"></path><path d="M 89.44 68.99 L 89.43 69.77 L 84.96 70.40 C 84.55 71.57 83.76 72.70 82.60 73.74 L 82.60 72.96 C 83.77 71.93 84.55 70.80 84.96 69.62 L 89.44 68.99 Z" fill="#1e72c6" fill-rule="nonzero" group-id="2,11,19,39" node-id="437" stroke="none" target-height="4.75" target-width="6.840004" target-x="82.6" target-y="68.99"></path><path d="M 60.00 62.50 L 60.00 61.70 C 63.01 60.31 66.82 59.77 70.45 60.08 L 70.45 60.88 C 66.82 60.57 63.01 61.11 60.00 62.50 Z" fill="#1e72c6" fill-rule="nonzero" group-id="2,11,19,39" node-id="439" stroke="none" target-height="2.7299995" target-width="10.449997" target-x="60" target-y="59.77"></path><path d="M 73.66 72.12 L 76.99 74.04 L 76.99 74.84 L 73.66 72.92 C 71.90 73.64 69.80 73.94 67.74 73.84 L 66.54 76.47 L 66.54 75.66 L 67.74 73.04 C 69.80 73.14 71.90 72.83 73.66 72.12 Z" fill="#1e72c6" fill-rule="nonzero" group-id="2,11,19,39" node-id="441" stroke="none" target-height="4.3499985" target-width="10.449997" target-x="66.54" target-y="72.12"></path><path d="M 73.45 61.34 L 72.25 63.97 L 72.25 63.17 L 73.45 60.54 C 75.14 60.92 76.72 61.51 78.08 62.30 C 79.45 63.09 80.47 64.00 81.13 64.98 L 81.13 65.78 C 80.47 64.80 79.45 63.89 78.08 63.10 C 76.72 62.31 75.14 61.73 73.45 61.34 Z" fill="#1e72c6" fill-rule="nonzero" group-id="2,11,19,39" node-id="443" stroke="none" target-height="5.239998" target-width="8.879997" target-x="72.25" target-y="60.54"></path><path d="M 54.39 63.07 L 51.99 60.79 L 51.99 60.02 L 54.39 62.30 Z" fill="#1e72c6" fill-rule="nonzero" group-id="2,11,19,39" node-id="445" stroke="none" target-height="3.0499992" target-width="2.3999977" target-x="51.99" target-y="60.02"></path><path d="M 60.37 67.58 L 60.37 68.31 C 60.35 68.16 60.34 68.02 60.34 67.87 L 60.34 67.14 C 60.34 67.29 60.35 67.44 60.37 67.58 Z" fill="#1e72c6" fill-rule="nonzero" group-id="2,11,19,39" node-id="447" stroke="none" target-height="1.1699982" target-width="0.02999878" target-x="60.34" target-y="67.14"></path><path d="M 84.92 60.79 L 82.54 63.07 L 82.54 62.30 L 84.92 60.02 Z" fill="#1e72c6" fill-rule="nonzero" group-id="2,11,19,39" node-id="449" stroke="none" target-height="3.0499992" target-width="2.3799973" target-x="82.54" target-y="60.02"></path></g><path d="M 81.69 77.17 L 77.75 75.78 C 75.97 76.46 74.01 76.92 71.99 77.16 L 70.92 79.76 L 66.21 79.76 L 65.11 77.16 C 63.09 76.92 61.13 76.46 59.34 75.78 L 55.41 77.17 L 52.08 75.24 L 54.45 72.96 C 53.28 71.93 52.48 70.79 52.05 69.62 L 47.57 68.99 L 47.55 66.27 L 52.03 65.64 C 52.44 64.47 53.23 63.33 54.39 62.30 L 51.99 60.02 L 55.30 58.09 L 59.24 59.48 C 61.03 58.80 62.98 58.34 65.00 58.10 L 66.08 55.50 L 70.78 55.50 L 71.88 58.10 C 73.91 58.34 75.87 58.80 77.66 59.48 L 81.58 58.09 L 84.92 60.02 L 82.54 62.30 C 83.71 63.33 84.52 64.47 84.94 65.64 L 89.42 66.27 L 89.44 68.99 L 84.96 69.62 C 84.55 70.79 83.76 71.93 82.60 72.96 L 85.01 75.24 L 81.69 77.17 Z M 63.33 63.62 C 65.09 62.91 67.20 62.60 69.25 62.71 L 70.45 60.08 C 66.82 59.77 63.02 60.31 60.00 61.70 L 63.33 63.62 M 75.85 70.85 L 79.18 72.77 C 81.57 71.02 82.50 68.82 81.95 66.71 L 77.41 67.42 C 77.60 68.61 77.08 69.83 75.85 70.85 M 66.54 75.67 C 70.17 75.98 73.98 75.44 76.99 74.04 L 73.66 72.12 C 71.90 72.83 69.80 73.14 67.74 73.04 L 66.54 75.67 M 55.05 69.03 L 59.58 68.33 C 59.40 67.13 59.92 65.91 61.15 64.89 L 57.82 62.97 C 55.42 64.72 54.50 66.93 55.05 69.03 M 58.91 73.44 C 60.27 74.23 61.85 74.82 63.54 75.20 L 64.74 72.58 C 63.82 72.33 62.95 71.98 62.19 71.54 C 61.42 71.10 60.82 70.60 60.39 70.06 L 55.86 70.77 C 56.53 71.74 57.54 72.66 58.91 73.44 M 76.60 65.68 L 81.14 64.98 C 80.47 64.00 79.45 63.09 78.08 62.30 C 76.72 61.51 75.14 60.92 73.45 60.54 L 72.25 63.17 C 73.17 63.42 74.04 63.76 74.81 64.20 C 75.57 64.65 76.17 65.15 76.60 65.68" fill="#a6c2ff" fill-rule="nonzero" group-id="2,11,19,40,54,68" node-id="458" stroke="none" target-height="24.260002" target-width="41.890003" target-x="47.55" target-y="55.5"></path></g><g node-id="999"><g node-id="1020"><g node-id="1034"><g node-id="1048"><path d="M 75.27 66.66 C 75.28 67.85 74.52 68.95 73.16 69.74 C 71.86 70.50 70.19 70.88 68.51 70.88 C 66.84 70.88 65.17 70.50 63.86 69.74 C 62.48 68.95 61.72 67.84 61.72 66.64 C 61.71 65.45 62.46 64.35 63.83 63.55 C 66.43 62.04 70.51 62.04 73.13 63.55 C 73.82 63.95 74.36 64.43 74.72 64.95 C 75.08 65.48 75.27 66.06 75.27 66.66 Z" fill="#6262aa" fill-rule="nonzero" group-id="2,11,20,41,55,69" node-id="472" stroke="none" target-height="8.839996" target-width="13.57" target-x="61.71" target-y="62.04"></path></g></g><path d="M 72.78 64.16 C 75.16 65.53 75.18 67.76 72.81 69.14 C 70.44 70.52 66.59 70.52 64.21 69.14 C 61.82 67.76 61.81 65.53 64.18 64.16 C 66.55 62.78 70.40 62.78 72.78 64.16 Z" fill="#2a2a5e" fill-rule="nonzero" group-id="2,11,20,41,56" node-id="478" stroke="none" target-height="7.739998" target-width="13.369999" target-x="61.81" target-y="62.78"></path></g><g node-id="1021"><g node-id="1036"><g node-id="1049"><path d="M 71.58 67.72 C 69.89 68.71 67.13 68.71 65.43 67.72 C 64.57 67.22 64.14 66.57 64.14 65.93 L 64.14 69.10 C 64.16 69.11 64.18 69.13 64.21 69.14 C 66.59 70.52 70.44 70.52 72.81 69.14 C 72.82 69.13 72.83 69.12 72.85 69.12 L 72.85 65.95 C 72.85 66.59 72.43 67.23 71.58 67.72 Z" fill="#6b9ef9" fill-rule="nonzero" group-id="2,11,20,42,57,70" node-id="488" stroke="none" target-height="4.5899963" target-width="8.709999" target-x="64.14" target-y="65.93"></path></g><g node-id="1050"><g node-id="1060"><path d="M 73.16 65.95 L 73.16 66.73 C 73.16 67.42 72.71 68.11 71.80 68.63 C 69.99 69.69 67.03 69.69 65.20 68.63 C 64.28 68.10 63.82 67.40 63.83 66.71 L 63.83 65.93 C 63.83 66.62 64.29 67.32 65.21 67.85 C 67.04 68.91 69.99 68.91 71.81 67.85 C 72.71 67.33 73.16 66.64 73.16 65.95 Z" fill="#1e72c6" fill-rule="nonzero" group-id="2,11,20,42,57,71,81" node-id="495" stroke="none" target-height="3.7600021" target-width="9.340004" target-x="63.82" target-y="65.93"></path></g><g node-id="1061"><path d="M 71.78 64.03 C 73.61 65.08 73.62 66.79 71.81 67.85 C 69.99 68.91 67.04 68.91 65.21 67.85 C 63.38 66.79 63.37 65.08 65.19 64.03 C 67.00 62.97 69.96 62.97 71.78 64.03 Z" fill="#ffffff" fill-rule="nonzero" group-id="2,11,20,42,57,71,82" node-id="500" stroke="none" target-height="5.9400024" target-width="10.250004" target-x="63.37" target-y="62.97"></path></g><path d="M 67.90 43.41 C 62.35 43.71 57.84 48.28 57.61 53.83 C 57.50 56.65 58.46 59.24 60.11 61.23 C 61.39 62.77 62.68 64.10 63.33 64.74 C 63.65 65.07 63.86 65.50 63.86 65.95 C 63.86 65.96 63.86 65.96 63.86 65.96 C 63.86 66.31 63.98 66.65 64.21 66.98 C 64.43 67.30 64.77 67.61 65.23 67.87 C 66.13 68.39 67.32 68.65 68.50 68.66 C 69.68 68.65 70.86 68.39 71.76 67.87 C 72.67 67.34 73.13 66.65 73.12 65.96 L 73.13 65.96 C 73.13 65.96 73.13 65.96 73.13 65.96 C 73.13 65.50 73.34 65.06 73.67 64.74 C 74.32 64.09 75.60 62.77 76.89 61.23 C 78.45 59.34 79.38 56.92 79.38 54.29 C 79.38 48.07 74.18 43.08 67.90 43.41 Z" fill="#1e72c6" fill-opacity="0.7" fill-rule="nonzero" group-id="2,11,20,42,57,71,83" node-id="505" stroke="none" target-height="25.580002" target-width="21.879997" target-x="57.5" target-y="43.08"></path></g></g></g></g></g><g node-id="991"><g node-id="1000"><g node-id="1022"><g node-id="1037"><g node-id="1051"><g node-id="1063"><g node-id="1074"><g node-id="1087"><path d="M 95.39 61.48 C 95.56 61.33 95.98 60.84 95.98 60.84 C 96.69 60.83 97.03 58.60 97.88 58.70 C 98.72 58.80 98.30 60.03 98.11 60.27 C 97.92 60.51 97.96 61.20 97.96 61.20 L 97.68 61.20 C 97.68 61.20 97.75 60.59 97.74 60.42 C 97.73 60.26 97.48 60.01 97.32 60.76 C 97.16 61.50 97.15 61.39 96.32 61.73 C 95.70 61.98 95.45 61.74 95.37 61.60 C 95.34 61.56 95.35 61.51 95.39 61.48 Z" fill="#4c4a8b" fill-rule="nonzero" group-id="2,12,21,43,58,72,84,95,108" node-id="529" stroke="none" target-height="3.380001" target-width="3.380005" target-x="95.34" target-y="58.6"></path><path d="M 97.88 58.70 C 97.88 58.70 97.66 57.68 97.80 57.04 C 97.94 56.40 98.69 53.89 97.89 52.18 L 96.39 52.80 C 96.39 52.80 95.88 54.68 96.27 56.41 C 96.67 58.13 96.78 58.32 96.59 59.07 C 96.40 59.82 96.26 60.50 95.98 60.84 C 95.98 60.84 96.74 61.28 97.15 60.49 C 97.55 59.70 97.39 60.07 97.76 59.65 C 98.14 59.22 97.88 58.70 97.88 58.70 Z" fill="#ecb4bf" fill-rule="nonzero" group-id="2,12,21,43,58,72,84,95,108" node-id="531" stroke="none" target-height="9.099998" target-width="2.8100052" target-x="95.88" target-y="52.18"></path></g><g node-id="1088"><path d="M 93.32 60.07 C 93.49 59.92 93.90 59.44 93.90 59.44 C 94.62 59.43 94.96 57.19 95.81 57.29 C 96.65 57.39 96.23 58.62 96.04 58.86 C 95.85 59.10 95.89 59.80 95.89 59.80 L 95.60 59.80 C 95.60 59.80 95.68 59.19 95.67 59.02 C 95.66 58.85 95.41 58.60 95.25 59.35 C 95.09 60.10 95.08 59.99 94.25 60.32 C 93.63 60.57 93.38 60.34 93.30 60.20 C 93.27 60.16 93.28 60.11 93.32 60.07 Z" fill="#4c4a8b" fill-rule="nonzero" group-id="2,12,21,43,58,72,84,95,109" node-id="536" stroke="none" target-height="3.380001" target-width="3.380005" target-x="93.27" target-y="57.19"></path><path d="M 95.81 57.29 C 95.81 57.29 95.59 56.28 95.73 55.64 C 95.87 55.00 96.62 52.48 95.82 50.78 L 94.32 51.39 C 94.32 51.39 93.81 53.27 94.20 55.00 C 94.60 56.73 94.71 56.92 94.52 57.66 C 94.33 58.41 94.19 59.10 93.91 59.44 C 93.91 59.44 94.67 59.87 95.08 59.08 C 95.48 58.29 95.32 58.67 95.69 58.24 C 96.07 57.81 95.81 57.29 95.81 57.29 Z" fill="#ecb4bf" fill-rule="nonzero" group-id="2,12,21,43,58,72,84,95,109" node-id="538" stroke="none" target-height="9.09" target-width="2.8100052" target-x="93.81" target-y="50.78"></path></g><path d="M 93.61 45.83 C 93.61 45.83 93.50 46.76 93.63 49.03 C 93.76 51.30 93.44 51.33 94.21 52.11 C 94.99 52.89 97.58 53.60 98.49 52.69 C 98.49 52.69 98.91 47.37 98.76 46.30 C 98.61 45.23 98.46 45.32 98.46 45.32 L 93.61 45.83 Z" fill="#4c4a8b" fill-rule="nonzero" group-id="2,12,21,43,58,72,84,95,110" node-id="543" stroke="none" target-height="8.369999" target-width="5.470001" target-x="93.44" target-y="45.23"></path></g><g node-id="1075"><g node-id="1090"><g node-id="1098"><g node-id="1108"><g node-id="1117"><g node-id="1123"><g node-id="1128"><g node-id="1130"><g node-id="1133"><g node-id="1134"><g node-id="1135"><g node-id="1136"><g node-id="1137"><g node-id="1138"><g node-id="1139"><g node-id="1140"><path d="M 93.26 41.64 C 93.32 41.54 93.34 41.43 93.32 41.31 C 93.10 40.04 92.76 37.24 93.49 36.96 C 94.45 36.59 94.57 37.67 94.57 37.67 C 94.65 38.11 94.74 40.56 94.74 41.83 C 94.74 42.08 94.65 42.31 94.49 42.47 L 91.96 45.13 C 91.71 44.63 91.41 44.62 91.41 44.62 L 93.26 41.64 Z" fill="#3887e5" fill-rule="nonzero" group-id="2,12,21,43,58,72,84,96,111,119,129,138,144,149,151,154,155,156,157,158,159,160,161" node-id="579" stroke="none" target-height="8.540001" target-width="3.3299942" target-x="91.41" target-y="36.59"></path></g></g></g></g></g></g></g></g></g></g></g></g></g><g node-id="1109"><g node-id="1118"><path d="M 97.94 44.03 C 96.71 42.33 97.87 40.60 97.87 40.60 C 98.97 39.06 98.42 38.41 97.93 38.15 C 97.51 37.93 97.13 37.64 96.84 37.26 C 96.69 37.06 96.38 36.60 96.38 36.60 C 96.38 36.60 95.41 36.63 94.48 36.76 C 94.09 36.81 93.42 36.83 93.25 37.33 C 92.99 38.11 93.34 38.37 93.11 38.63 C 91.96 39.97 93.16 40.45 93.57 41.39 C 94.01 42.40 93.61 45.83 93.61 45.83 C 97.74 48.01 98.77 46.37 98.77 46.37 C 98.67 45.41 98.67 45.04 97.94 44.03 Z" fill="#6b9ef9" fill-rule="nonzero" group-id="2,12,21,43,58,72,84,96,111,119,130,139" node-id="598" stroke="none" target-height="11.41" target-width="7.010002" target-x="91.96" target-y="36.6"></path></g></g><path d="M 95.18 37.98 C 95.18 37.98 95.99 37.27 96.18 37.05 C 96.57 36.58 96.49 35.78 96.49 35.78 C 96.49 35.78 95.02 35.67 95.16 36.31 C 95.18 36.39 95.04 36.52 94.95 36.52 C 94.75 37.10 95.11 37.10 95.18 37.98 Z" fill="#e0a4b2" fill-rule="nonzero" group-id="2,12,21,43,58,72,84,96,111,119" node-id="602" stroke="none" target-height="2.3100014" target-width="1.8199997" target-x="94.75" target-y="35.67"></path></g></g></g><g node-id="1076"><path d="M 94.36 33.74 C 95.20 33.21 97.07 35.60 97.07 35.60 L 96.86 36.14 L 96.38 36.71 C 96.00 37.15 95.36 37.32 94.85 37.05 C 94.66 36.95 94.49 36.78 94.38 36.54 C 93.99 35.64 93.51 34.27 94.36 33.74 Z" fill="#ecb4bf" fill-rule="nonzero" group-id="2,12,21,43,58,72,84,97" node-id="609" stroke="none" target-height="4.1100006" target-width="3.5599976" target-x="93.51" target-y="33.21"></path><path d="M 94.87 37.05 C 94.88 37.09 94.04 37.32 94.04 37.32 C 94.04 37.32 94.17 36.84 93.90 35.75 C 93.63 34.66 93.27 33.15 95.10 32.56 C 95.10 32.56 95.98 32.24 96.27 32.68 C 96.27 32.68 97.27 32.58 97.51 34.15 C 97.74 35.71 97.04 36.97 95.97 37.65 C 95.97 37.65 97.35 35.55 95.42 34.52 C 95.42 34.52 95.37 34.80 95.46 35.00 C 95.46 35.00 94.85 34.70 94.69 34.35 C 94.53 34.00 94.53 33.58 94.22 34.06 C 93.91 34.54 94.02 35.98 94.38 36.43 C 94.63 36.74 94.85 36.95 94.87 37.05 Z" fill="#3a3a77" fill-rule="nonzero" group-id="2,12,21,43,58,72,84,97" node-id="611" stroke="none" target-height="5.41" target-width="4.470001" target-x="93.27" target-y="32.24"></path></g></g><g node-id="1064"><g node-id="1077"><path d="M 95.05 38.70 C 94.88 38.61 94.75 38.69 94.75 38.87 C 94.75 39.06 94.88 39.29 95.05 39.39 C 95.21 39.48 95.35 39.41 95.35 39.22 C 95.35 39.03 95.21 38.80 95.05 38.70 Z" fill="#1e72c6" fill-rule="nonzero" group-id="2,12,21,43,58,72,85,98" node-id="619" stroke="none" target-height="0.86999893" target-width="0.5999985" target-x="94.75" target-y="38.61"></path><path d="M 95.05 40.53 C 94.88 40.43 94.75 40.51 94.75 40.70 C 94.75 40.89 94.88 41.12 95.04 41.21 C 95.21 41.31 95.34 41.23 95.34 41.04 C 95.34 40.85 95.21 40.62 95.05 40.53 Z" fill="#1e72c6" fill-rule="nonzero" group-id="2,12,21,43,58,72,85,98" node-id="621" stroke="none" target-height="0.88000107" target-width="0.58999634" target-x="94.75" target-y="40.43"></path><path d="M 95.04 42.35 C 94.88 42.26 94.74 42.33 94.74 42.52 C 94.74 42.71 94.88 42.94 95.04 43.04 C 95.20 43.13 95.34 43.06 95.34 42.87 C 95.34 42.68 95.21 42.45 95.04 42.35 Z" fill="#1e72c6" fill-rule="nonzero" group-id="2,12,21,43,58,72,85,98" node-id="623" stroke="none" target-height="0.87000275" target-width="0.5999985" target-x="94.74" target-y="42.26"></path><path d="M 95.04 44.18 C 94.87 44.08 94.74 44.16 94.74 44.35 C 94.74 44.54 94.87 44.77 95.04 44.86 C 95.20 44.96 95.33 44.88 95.34 44.69 C 95.34 44.50 95.20 44.27 95.04 44.18 Z" fill="#1e72c6" fill-rule="nonzero" group-id="2,12,21,43,58,72,85,98" node-id="625" stroke="none" target-height="0.87999725" target-width="0.5999985" target-x="94.74" target-y="44.08"></path></g></g></g></g></g></g><g node-id="1001"><g node-id="1023"><g node-id="1038"><g node-id="1052"><g node-id="1065"><g node-id="1078"><g node-id="1091"><g node-id="1099"><path d="M 98.63 45.41 L 98.63 45.67 C 98.63 45.71 98.60 45.75 98.55 45.78 L 95.67 47.45 C 95.57 47.51 95.41 47.51 95.30 47.45 L 90.41 44.62 C 90.35 44.59 90.33 44.55 90.33 44.52 L 90.33 44.26 C 90.33 44.22 90.36 44.18 90.41 44.15 L 93.29 42.48 C 93.39 42.42 93.55 42.42 93.65 42.48 L 98.55 45.31 C 98.60 45.34 98.63 45.38 98.63 45.41 Z" fill="#83a1cc" fill-rule="nonzero" group-id="2,12,22,44,59,73,86,99,112,120" node-id="649" stroke="none" target-height="5.09" target-width="8.299995" target-x="90.33" target-y="42.42"></path></g></g></g><g node-id="1079"><g node-id="1092"><g node-id="1100"><g node-id="1110"><path d="M 98.63 45.41 L 98.63 45.67 C 98.63 45.71 98.60 45.75 98.55 45.78 L 95.67 47.45 C 95.57 47.51 95.41 47.51 95.30 47.45 L 90.41 44.62 C 90.35 44.59 90.33 44.55 90.33 44.52 L 90.33 44.26 C 90.33 44.30 90.36 44.34 90.41 44.37 L 95.31 47.19 C 95.41 47.25 95.57 47.25 95.67 47.19 L 98.55 45.52 C 98.60 45.49 98.63 45.45 98.63 45.41 Z" fill="#83a1cc" fill-rule="nonzero" group-id="2,12,22,44,59,73,86,100,113,121,131" node-id="662" stroke="none" target-height="3.25" target-width="8.299995" target-x="90.33" target-y="44.26"></path></g><path d="M 98.55 45.31 C 98.65 45.37 98.65 45.46 98.55 45.52 L 95.67 47.19 C 95.57 47.25 95.41 47.25 95.31 47.19 L 90.41 44.37 C 90.30 44.31 90.30 44.21 90.41 44.15 L 93.28 42.48 C 93.39 42.42 93.55 42.42 93.65 42.48 L 98.55 45.31 Z" fill="#dee7f8" fill-rule="nonzero" group-id="2,12,22,44,59,73,86,100,113,121,132" node-id="667" stroke="none" target-height="4.830002" target-width="8.349998" target-x="90.3" target-y="42.42"></path></g></g><path d="M 96.99 44.61 L 95.43 43.71 C 95.40 43.69 95.35 43.69 95.31 43.71 L 94.56 44.15 C 94.52 44.17 94.52 44.20 94.56 44.22 L 96.11 45.12 C 96.14 45.13 96.20 45.13 96.23 45.12 L 96.99 44.68 C 97.02 44.66 97.02 44.63 96.99 44.61 Z" fill="#b6cbea" fill-rule="nonzero" group-id="2,12,22,44,59,73,86,100" node-id="672" stroke="none" target-height="1.4400024" target-width="2.5" target-x="94.52" target-y="43.69"></path></g></g></g><path d="M 94.88 44.90 L 94.88 46.88 L 95.22 47.08 L 96.94 46.08 Z" fill="#b6cbea" fill-rule="nonzero" group-id="2,12,22,44,59,74,87,101" node-id="683" stroke="none" target-height="2.1800003" target-width="2.0600052" target-x="94.88" target-y="44.9"></path></g><path d="M 97.00 42.98 C 97.07 42.88 97.10 42.77 97.09 42.66 C 96.97 41.43 96.83 38.66 97.55 38.36 C 98.53 37.95 98.61 39.12 98.61 39.12 C 98.67 39.55 98.57 41.93 98.47 43.16 C 98.45 43.40 98.34 43.62 98.17 43.79 L 95.44 46.37 C 95.23 45.88 94.93 45.87 94.93 45.87 L 97.00 42.98 Z" fill="#3887e5" fill-rule="nonzero" group-id="2,12,22,44" node-id="689" stroke="none" target-height="8.419998" target-width="3.7399979" target-x="94.93" target-y="37.95"></path><path d="M 90.42 40.63 L 90.51 40.68 L 90.42 40.84 L 90.41 44.17 C 90.41 44.17 95.47 47.21 95.44 47.23 L 95.60 47.13 C 95.64 47.11 95.66 47.07 95.66 47.01 L 95.67 43.68 C 95.67 43.56 95.58 43.42 95.48 43.36 L 90.58 40.53 C 90.53 40.50 90.48 40.50 90.45 40.52 L 90.29 40.62 C 90.32 40.60 90.37 40.60 90.42 40.63 Z" fill="#6262aa" fill-rule="nonzero" group-id="2,12,22,44,60" node-id="693" stroke="none" target-height="6.7299995" target-width="5.3799973" target-x="90.29" target-y="40.5"></path><path d="M 95.32 43.46 C 95.42 43.52 95.50 43.66 95.50 43.78 L 95.49 47.11 C 95.49 47.22 95.41 47.27 95.31 47.21 L 90.41 44.38 C 90.30 44.33 90.22 44.18 90.22 44.06 L 90.23 40.74 C 90.23 40.62 90.31 40.57 90.42 40.63 L 95.32 43.46 Z" fill="#9eb5df" fill-rule="nonzero" group-id="2,12,22,44,60,75,88,102" node-id="701" stroke="none" target-height="6.700001" target-width="5.279999" target-x="90.22" target-y="40.57"></path><path d="M 92.26 45.32 C 92.10 45.11 91.79 44.93 91.60 44.83 C 91.50 44.78 91.35 44.80 91.26 44.89 L 91.09 45.02 C 91.06 45.14 91.08 45.13 91.13 45.20 C 91.27 45.37 91.69 45.67 92.10 45.67 C 92.10 45.67 92.51 45.65 92.26 45.32 Z" fill="#ecb4bf" fill-rule="nonzero" group-id="2,12,22,44,60" node-id="706" stroke="none" target-height="0.8899994" target-width="1.4500046" target-x="91.06" target-y="44.78"></path><path d="M 92.86 43.59 C 92.59 43.43 92.37 43.56 92.37 43.87 C 92.37 44.18 92.59 44.55 92.86 44.71 C 93.13 44.86 93.35 44.74 93.35 44.43 C 93.35 44.12 93.13 43.74 92.86 43.59 Z" fill="#83a1cc" fill-rule="nonzero" group-id="2,12,22,44,60,76" node-id="710" stroke="none" target-height="1.4300003" target-width="0.9799957" target-x="92.37" target-y="43.43"></path></g></g></g><g node-id="992"><g node-id="1002"><g node-id="1024"><path d="M 58.81 59.95 L 63.43 62.61 C 63.49 62.65 63.57 62.61 63.60 62.53 L 64.87 59.25 C 64.91 59.17 64.88 59.07 64.82 59.04 L 60.21 56.38 C 60.14 56.34 60.07 56.38 60.03 56.46 L 58.76 59.74 C 58.73 59.82 58.75 59.91 58.81 59.95 Z" fill="#dee7f8" fill-rule="nonzero" group-id="2,13,23,45" node-id="723" stroke="none" target-height="6.3100014" target-width="6.180004" target-x="58.73" target-y="56.34"></path></g><g node-id="1025"><path d="M 60.31 56.67 L 64.56 59.13 L 63.32 62.31 L 59.07 59.86 Z" fill="#3a3a77" fill-rule="nonzero" group-id="2,13,23,46" node-id="728" stroke="none" target-height="5.640003" target-width="5.489998" target-x="59.07" target-y="56.67"></path></g><path d="M 64.87 59.25 L 63.60 62.53 C 63.57 62.59 63.52 62.63 63.47 62.62 L 63.72 62.65 C 63.77 62.65 63.83 62.62 63.85 62.55 L 65.13 59.27 C 65.16 59.19 65.13 59.10 65.07 59.06 L 60.46 56.40 C 60.44 56.39 60.43 56.39 60.42 56.38 L 60.16 56.36 C 60.18 56.36 60.19 56.37 60.21 56.38 L 64.82 59.04 C 64.88 59.07 64.91 59.17 64.87 59.25 Z" fill="#b6cbea" fill-rule="nonzero" group-id="2,13,23,47" node-id="733" stroke="none" target-height="6.290001" target-width="5.000004" target-x="60.16" target-y="56.36"></path></g><g node-id="1003"><g node-id="1027"><g node-id="1040"><g node-id="1056"><g node-id="1068"><g node-id="1082"><g node-id="1093"><g node-id="1101"><path d="M 58.99 81.94 C 58.38 82.52 56.87 82.59 56.87 82.59 L 56.87 82.66 C 56.87 82.75 56.80 82.85 56.72 82.88 L 55.90 82.96 C 55.82 82.98 55.78 82.92 55.77 82.83 C 55.73 82.42 55.70 81.91 55.74 81.78 C 55.79 81.60 56.15 82.20 56.94 81.36 C 57.58 81.55 58.42 81.34 58.78 81.22 C 59.18 81.09 59.60 81.36 58.99 81.94 Z" fill="#2a2a5e" fill-rule="nonzero" group-id="2,13,24,48,61,77,89,103,114,122" node-id="753" stroke="none" target-height="1.890007" target-width="3.8999977" target-x="55.7" target-y="81.09"></path></g><g node-id="1102"><g node-id="1112"><g node-id="1119"><g node-id="1124"><g node-id="1129"><g node-id="1131"><path d="M 57.49 75.98 C 57.36 76.40 57.30 76.83 57.26 77.26 C 57.17 78.51 57.00 80.94 57.05 81.53 C 56.80 81.95 56.33 82.01 55.75 81.89 C 55.75 81.89 55.10 79.00 55.37 76.98 C 55.45 76.33 55.50 75.66 55.45 75.00 C 55.39 74.20 55.26 73.17 54.96 72.28 C 54.37 70.54 55.10 69.38 55.26 69.09 L 58.21 70.03 C 58.21 70.03 58.46 72.66 57.49 75.98 Z" fill="#3a3a77" fill-rule="nonzero" group-id="2,13,24,48,61,77,89,103,114,123,133,140,145,150,152" node-id="768" stroke="none" target-height="12.920006" target-width="4.09" target-x="54.37" target-y="69.09"></path></g><path d="M 61.33 84.14 C 60.63 84.50 58.84 84.03 58.84 84.03 L 58.84 84.15 C 58.84 84.24 58.76 84.31 58.67 84.31 L 57.73 84.24 C 57.64 84.23 57.57 84.15 57.59 84.06 C 57.62 83.71 57.72 82.88 57.77 82.76 C 57.83 82.61 58.10 83.09 59.01 82.55 C 59.59 82.92 60.68 83.33 61.09 83.34 C 61.54 83.35 62.02 83.77 61.33 84.14 Z" fill="#2a2a5e" fill-rule="nonzero" group-id="2,13,24,48,61,77,89,103,114,123,133,140,145,150" node-id="771" stroke="none" target-height="1.949997" target-width="4.450001" target-x="57.57" target-y="82.55"></path><path d="M 59.48 77.04 C 59.35 77.46 59.29 77.89 59.26 78.32 C 59.16 79.56 58.99 82.00 59.04 82.59 C 58.79 83.01 58.32 83.07 57.74 82.95 C 57.74 82.95 57.11 80.13 57.35 78.11 C 57.43 77.39 57.49 76.68 57.42 75.95 C 57.34 75.11 57.18 74.04 56.81 73.19 C 56.12 71.55 56.59 69.89 56.75 69.60 L 60.20 71.08 C 60.20 71.08 60.45 73.72 59.48 77.04 Z" fill="#4c4a8b" fill-rule="nonzero" group-id="2,13,24,48,61,77,89,103,114,123,133,140,145,150,153" node-id="775" stroke="none" target-height="13.470001" target-width="4.330002" target-x="56.12" target-y="69.6"></path></g></g></g></g></g></g></g></g></g></g><path d="M 54.72 61.28 C 54.62 62.29 54.65 63.53 54.72 64.97 C 54.74 64.98 55.04 67.54 55.98 68.95 C 56.66 68.91 56.73 68.77 56.82 68.57 C 56.41 67.27 56.33 66.23 56.36 64.73 C 56.38 64.35 56.55 63.07 56.87 61.90 C 56.99 61.47 56.80 60.97 56.41 60.68 C 55.71 60.15 54.79 60.50 54.72 61.28 Z" fill="#4c4a8b" fill-rule="nonzero" group-id="2,13,24,48" node-id="788" stroke="none" target-height="8.799995" target-width="2.3700027" target-x="54.62" target-y="60.15"></path><path d="M 60.50 62.83 C 59.64 62.44 60.47 62.31 59.90 61.84 C 59.38 61.42 57.89 60.79 57.89 60.79 C 57.89 60.79 57.12 61.10 56.20 60.37 C 56.20 60.37 54.74 60.19 54.74 61.51 C 54.74 62.09 54.75 62.59 54.83 63.13 C 55.19 65.34 55.20 67.62 54.86 69.84 C 54.85 69.86 54.85 69.89 54.85 69.91 C 54.85 69.91 58.44 72.95 60.20 71.08 C 60.20 71.08 60.12 70.34 60.03 69.41 C 59.94 68.57 59.77 65.84 60.65 64.73 C 61.16 64.09 61.39 63.24 60.50 62.83 Z" fill="#6262aa" fill-rule="nonzero" group-id="2,13,24,48" node-id="790" stroke="none" target-height="12.759998" target-width="6.6499977" target-x="54.74" target-y="60.19"></path><path d="M 60.02 57.82 C 59.92 57.45 59.94 57.01 59.94 57.01 L 57.82 57.27 C 57.82 57.27 57.61 61.95 58.94 60.49 C 60.27 59.03 60.13 58.19 60.02 57.82 Z" fill="#ecb4bf" fill-rule="nonzero" group-id="2,13,24,48" node-id="792" stroke="none" target-height="4.9400024" target-width="2.6599998" target-x="57.61" target-y="57.01"></path><path d="M 59.23 56.05 C 58.43 55.70 57.59 55.54 56.82 56.12 C 55.95 56.76 55.62 58.02 55.98 59.26 C 56.01 59.36 56.04 59.89 56.06 60.44 C 56.06 60.58 56.12 60.73 56.22 60.83 C 56.75 61.35 57.38 61.57 58.10 61.58 C 58.33 61.59 58.56 61.46 58.66 61.24 C 58.93 60.64 59.02 59.95 58.77 59.43 C 58.77 59.42 58.77 59.42 58.77 59.41 C 58.66 59.19 58.51 58.78 58.90 58.76 C 59.30 58.75 59.44 58.52 59.53 58.25 C 59.62 58.03 59.92 57.79 60.15 57.60 C 60.21 57.54 60.25 57.45 60.24 57.37 C 60.17 56.71 59.80 56.30 59.23 56.05 Z" fill="#a0533f" fill-rule="nonzero" group-id="2,13,24,48" node-id="794" stroke="none" target-height="6.049999" target-width="4.630001" target-x="55.62" target-y="55.54"></path></g><g node-id="1028"><g node-id="1041"><path d="M 63.92 60.64 C 63.97 60.73 63.95 61.00 63.95 61.00 C 63.95 61.00 63.95 61.19 64.05 61.39 C 64.15 61.59 64.12 61.80 64.04 62.07 L 64.71 62.25 C 64.71 62.25 64.85 61.84 64.97 61.74 C 65.08 61.64 65.28 61.13 65.29 61.11 C 65.29 61.11 65.44 60.47 65.45 60.40 C 65.47 60.21 65.20 59.92 64.94 59.76 L 64.55 60.75 C 64.38 61.12 64.22 60.89 64.22 60.89 C 64.22 60.89 64.17 60.68 64.17 60.63 C 64.15 60.49 63.98 60.30 63.81 60.39 C 63.79 60.39 63.79 60.40 63.80 60.42 L 63.92 60.64 Z" fill="#ecb4bf" fill-rule="nonzero" group-id="2,13,24,49,62" node-id="801" stroke="none" target-height="2.4900017" target-width="1.6800003" target-x="63.79" target-y="59.76"></path><path d="M 58.54 62.48 C 58.81 61.67 59.62 61.57 60.30 62.09 C 60.85 62.50 61.61 63.22 62.47 64.11 C 62.47 64.11 62.99 64.07 64.06 61.60 C 64.22 61.46 64.68 61.69 64.95 61.80 C 64.95 61.80 64.17 66.87 62.67 66.11 C 61.63 65.59 60.10 64.66 59.02 63.92 C 58.55 63.61 58.36 63.02 58.54 62.48 Z" fill="#6262aa" fill-rule="nonzero" group-id="2,13,24,49,62" node-id="803" stroke="none" target-height="5.4100037" target-width="6.5899963" target-x="58.36" target-y="61.46"></path></g></g></g></g><g node-id="993"><g node-id="1004"><g node-id="1029"><g node-id="1042"><g node-id="1057"><g node-id="1069"><g node-id="1083"><g node-id="1094"><g node-id="1103"><g node-id="1113"><g node-id="1120"><g node-id="1125"><path d="M 54.26 45.88 C 54.39 46.13 55.11 46.47 55.67 46.22 C 55.67 46.22 56.75 47.34 57.46 47.59 C 57.62 47.64 57.73 47.70 57.82 47.76 C 58.07 47.92 58.03 48.37 57.74 48.40 C 57.25 48.44 56.47 48.68 55.37 48.06 L 55.38 48.14 C 55.38 48.25 55.26 48.31 55.17 48.26 L 54.25 47.87 C 54.21 47.85 54.19 47.80 54.19 47.75 L 54.26 45.88 Z" fill="#3a3a77" fill-rule="nonzero" group-id="2,14,25,50,63,78,90,104,115,124,134,141,146" node-id="833" stroke="none" target-height="2.7999992" target-width="3.880001" target-x="54.19" target-y="45.88"></path><path d="M 56.02 36.81 C 56.01 36.66 55.85 36.14 55.81 35.82 C 55.80 35.73 53.28 35.59 53.28 35.59 C 52.84 37.20 54.00 46.17 54.13 46.59 C 54.15 46.66 54.19 46.70 54.26 46.72 C 55.17 47.04 56.03 46.73 56.03 46.73 C 55.87 46.39 55.75 42.33 55.90 41.15 C 56.03 40.20 56.03 37.19 56.02 36.81 Z" fill="#4c4a8b" fill-rule="nonzero" group-id="2,14,25,50,63,78,90,104,115,124,134,141,146" node-id="835" stroke="none" target-height="11.450001" target-width="3.1899986" target-x="52.84" target-y="35.59"></path><path d="M 51.65 47.02 C 51.77 47.27 52.50 47.60 53.06 47.35 C 53.06 47.35 54.14 48.48 54.85 48.73 C 55.00 48.78 55.12 48.84 55.21 48.90 C 55.45 49.06 55.41 49.50 55.12 49.53 C 54.64 49.58 53.86 49.82 52.75 49.19 L 52.76 49.28 C 52.76 49.38 52.64 49.45 52.55 49.39 L 51.64 49.01 C 51.60 48.98 51.58 48.94 51.58 48.89 L 51.65 47.02 Z" fill="#3a3a77" fill-rule="nonzero" group-id="2,14,25,50,63,78,90,104,115,124,134,141,146" node-id="837" stroke="none" target-height="2.7999992" target-width="3.869999" target-x="51.58" target-y="47.02"></path><path d="M 53.77 39.63 C 53.84 38.57 54.00 37.68 54.33 36.65 C 54.40 36.42 54.31 35.72 54.33 35.66 C 54.18 35.69 54.03 35.72 53.89 35.73 C 52.80 35.83 51.43 36.08 51.06 35.93 C 50.76 39.13 51.41 47.35 51.51 47.75 C 51.53 47.81 51.57 47.85 51.63 47.87 C 52.52 48.17 53.41 47.88 53.41 47.88 C 53.18 47.35 53.65 41.13 53.69 40.70 C 53.71 40.53 53.74 40.10 53.77 39.63 Z" fill="#6262aa" fill-rule="nonzero" group-id="2,14,25,50,63,78,90,104,115,124,134,141,146" node-id="839" stroke="none" target-height="12.509998" target-width="3.6400032" target-x="50.76" target-y="35.66"></path><path d="M 56.19 36.41 C 55.92 34.82 55.86 30.62 55.86 28.76 C 55.86 26.77 54.20 27.21 54.20 27.21 C 54.29 27.32 52.76 27.26 52.76 27.26 C 52.34 27.60 50.73 28.27 50.49 28.55 C 49.73 29.44 50.88 31.01 50.83 37.79 C 50.82 38.03 50.95 38.26 51.17 38.36 C 52.36 38.92 54.42 37.78 54.42 37.78 C 55.20 37.50 55.82 37.21 56.00 37.03 C 56.17 36.87 56.23 36.63 56.19 36.41 Z" fill="#a6c2ff" fill-rule="nonzero" group-id="2,14,25,50,63,78,90,104,115,124,134,141,146" node-id="841" stroke="none" target-height="12.149998" target-width="6.5" target-x="49.73" target-y="26.77"></path></g></g></g></g></g></g></g></g><path d="M 52.64 26.86 L 52.48 27.27 C 52.48 27.27 52.86 28.28 53.72 28.64 C 53.72 28.64 54.32 27.91 54.21 27.14 C 54.10 26.36 52.64 26.86 52.64 26.86 Z" fill="#e0a4b2" fill-rule="nonzero" group-id="2,14,25,50,63" node-id="851" stroke="none" target-height="2.2799988" target-width="1.8400002" target-x="52.48" target-y="26.36"></path><path d="M 53.97 33.01 L 54.71 33.01 C 54.59 31.52 54.30 30.13 53.92 28.75 L 54.19 27.90 L 53.12 28.50 L 53.50 28.84 C 53.70 30.26 53.95 31.62 53.97 33.01 Z" fill="#4c4a8b" fill-rule="nonzero" group-id="2,14,25,50,63,79,91" node-id="857" stroke="none" target-height="5.1099987" target-width="1.5900002" target-x="53.12" target-y="27.9"></path><path d="M 54.34 27.09 L 54.26 26.96 C 54.26 26.96 54.11 27.86 53.67 28.19 L 54.24 28.75 C 54.33 28.52 54.44 28.02 54.48 27.63 C 54.50 27.48 54.42 27.22 54.34 27.09 Z" fill="#6b9ef9" fill-rule="nonzero" group-id="2,14,25,50,63,79" node-id="860" stroke="none" target-height="1.7900009" target-width="0.83000183" target-x="53.67" target-y="26.96"></path><path d="M 52.41 27.04 C 52.37 27.43 52.21 27.63 52.56 28.27 C 52.71 28.54 52.96 28.75 53.15 28.88 L 53.67 28.19 C 53.08 27.88 52.41 27.04 52.41 27.04 Z" fill="#6b9ef9" fill-rule="nonzero" group-id="2,14,25,50,63,79" node-id="862" stroke="none" target-height="1.8399982" target-width="1.4599991" target-x="52.21" target-y="27.04"></path><path d="M 54.47 25.13 C 54.47 25.13 54.74 28.20 53.22 27.66 C 52.26 27.33 52.10 26.86 51.92 26.37 C 51.86 26.21 51.84 26.15 51.79 25.84 C 51.79 25.84 53.61 23.15 54.47 25.13 Z" fill="#ecb4bf" fill-rule="nonzero" group-id="2,14,25,50,63" node-id="865" stroke="none" target-height="5.050001" target-width="2.9500008" target-x="51.79" target-y="23.15"></path></g><g node-id="1043"><g node-id="1059"><g node-id="1071"><g node-id="1084"><g node-id="1095"><g node-id="1104"><g node-id="1114"><g node-id="1121"><path d="M 50.70 33.85 L 50.71 34.12 C 50.71 34.16 50.73 34.20 50.79 34.24 L 53.87 36.03 C 53.98 36.09 54.16 36.09 54.27 36.03 L 59.52 33.00 C 59.57 32.97 59.60 32.92 59.60 32.88 L 59.60 32.61 C 59.60 32.57 59.57 32.52 59.52 32.49 L 56.43 30.70 C 56.32 30.64 56.15 30.64 56.04 30.70 L 50.79 33.73 C 50.73 33.76 50.70 33.80 50.70 33.85 Z" fill="#83a1cc" fill-rule="nonzero" group-id="2,14,25,50,64,80,92,105,116,125,135,142" node-id="884" stroke="none" target-height="5.450001" target-width="8.899998" target-x="50.7" target-y="30.64"></path></g></g></g><g node-id="1105"><g node-id="1115"><g node-id="1122"><g node-id="1126"><path d="M 50.70 33.85 L 50.71 34.12 C 50.71 34.16 50.73 34.20 50.79 34.24 L 53.87 36.03 C 53.98 36.09 54.16 36.09 54.27 36.03 L 59.52 33.00 C 59.57 32.97 59.60 32.92 59.60 32.88 L 59.60 32.61 C 59.60 32.65 59.57 32.69 59.52 32.72 L 54.27 35.75 C 54.16 35.82 53.98 35.82 53.87 35.75 L 50.79 33.96 C 50.73 33.93 50.70 33.89 50.70 33.85 Z" fill="#83a1cc" fill-rule="nonzero" group-id="2,14,25,50,64,80,92,105,116,126,136,143,147" node-id="897" stroke="none" target-height="3.4799995" target-width="8.899998" target-x="50.7" target-y="32.61"></path></g><path d="M 50.79 33.73 C 50.68 33.79 50.68 33.90 50.79 33.96 L 53.87 35.75 C 53.98 35.82 54.16 35.82 54.27 35.75 L 59.52 32.72 C 59.63 32.66 59.63 32.56 59.52 32.49 L 56.43 30.70 C 56.32 30.64 56.15 30.64 56.04 30.70 L 50.79 33.73 Z" fill="#dee7f8" fill-rule="nonzero" group-id="2,14,25,50,64,80,92,105,116,126,136,143,148" node-id="902" stroke="none" target-height="5.1800003" target-width="8.950001" target-x="50.68" target-y="30.64"></path></g></g><path d="M 52.72 32.86 L 54.38 31.89 C 54.42 31.87 54.47 31.87 54.51 31.89 L 55.32 32.37 C 55.36 32.39 55.36 32.42 55.32 32.44 L 53.65 33.40 C 53.62 33.42 53.56 33.42 53.53 33.40 L 52.71 32.93 C 52.68 32.91 52.68 32.88 52.72 32.86 Z" fill="#b6cbea" fill-rule="nonzero" group-id="2,14,25,50,64,80,92,105,116,126" node-id="907" stroke="none" target-height="1.5499973" target-width="2.6800003" target-x="52.68" target-y="31.87"></path></g></g></g><g node-id="1085"><g node-id="1096"><g node-id="1106"><path d="M 54.65 35.06 L 54.13 35.36 L 53.84 35.19 L 54.37 34.89 Z" fill="#2a2a5e" fill-rule="nonzero" group-id="2,14,25,50,64,80,92,106,117,127" node-id="918" stroke="none" target-height="0.47000122" target-width="0.8100014" target-x="53.84" target-y="34.89"></path><path d="M 53.59 34.50 L 53.94 34.30 L 54.22 34.46 L 53.87 34.67 Z" fill="#2a2a5e" fill-rule="nonzero" group-id="2,14,25,50,64,80,92,106,117,127" node-id="920" stroke="none" target-height="0.36999893" target-width="0.63000107" target-x="53.59" target-y="34.3"></path><path d="M 54.72 34.68 L 54.72 34.96 L 54.49 34.82 Z" fill="#2a2a5e" fill-rule="nonzero" group-id="2,14,25,50,64,80,92,106,117,127" node-id="922" stroke="none" target-height="0.27999878" target-width="0.22999954" target-x="54.49" target-y="34.68"></path><path d="M 53.58 34.09 L 53.86 34.25 L 53.04 34.73 L 52.76 34.56 Z" fill="#2a2a5e" fill-rule="nonzero" group-id="2,14,25,50,64,80,92,106,117,127" node-id="924" stroke="none" target-height="0.6399994" target-width="1.1000023" target-x="52.76" target-y="34.09"></path><path d="M 53.75 34.74 L 53.40 34.94 L 53.12 34.77 L 53.47 34.57 Z" fill="#2a2a5e" fill-rule="nonzero" group-id="2,14,25,50,64,80,92,106,117,127" node-id="926" stroke="none" target-height="0.36999893" target-width="0.63000107" target-x="53.12" target-y="34.57"></path><path d="M 54.59 34.68 L 53.77 35.15 L 53.48 34.98 L 54.30 34.51 Z" fill="#2a2a5e" fill-rule="nonzero" group-id="2,14,25,50,64,80,92,106,117,127" node-id="928" stroke="none" target-height="0.6400032" target-width="1.1100006" target-x="53.48" target-y="34.51"></path><path d="M 54.72 34.26 L 54.72 34.60 L 54.71 34.61 L 54.42 34.44 Z" fill="#2a2a5e" fill-rule="nonzero" group-id="2,14,25,50,64,80,92,106,117,127" node-id="930" stroke="none" target-height="0.3500023" target-width="0.30000305" target-x="54.42" target-y="34.26"></path><path d="M 54.72 33.43 L 54.72 33.76 L 53.98 34.19 L 53.70 34.02 Z" fill="#2a2a5e" fill-rule="nonzero" group-id="2,14,25,50,64,80,92,106,117,127" node-id="932" stroke="none" target-height="0.7599983" target-width="1.0200005" target-x="53.7" target-y="33.43"></path><path d="M 54.06 34.23 L 54.41 34.03 L 54.69 34.19 L 54.34 34.40 Z" fill="#2a2a5e" fill-rule="nonzero" group-id="2,14,25,50,64,80,92,106,117,127" node-id="934" stroke="none" target-height="0.37000275" target-width="0.62999725" target-x="54.06" target-y="34.03"></path><path d="M 54.70 35.29 L 54.36 35.49 L 54.20 35.40 L 54.55 35.20 Z" fill="#2a2a5e" fill-rule="nonzero" group-id="2,14,25,50,64,80,92,106,117,127" node-id="936" stroke="none" target-height="0.29000092" target-width="0.5" target-x="54.2" target-y="35.2"></path></g></g></g></g><g node-id="1072"><path d="M 53.28 33.59 C 53.30 33.60 53.46 33.66 53.56 33.65 C 53.66 33.63 53.77 33.47 54.32 33.52 C 54.69 33.54 54.89 33.58 54.98 33.60 C 55.01 33.60 55.02 33.64 55.00 33.66 C 54.98 33.68 54.95 33.69 54.91 33.71 C 54.82 33.76 54.66 33.80 54.41 33.74 C 54.38 33.73 54.35 33.74 54.34 33.77 C 54.31 33.82 54.33 33.91 54.62 33.98 C 55.06 34.10 55.20 34.27 55.21 34.28 C 55.21 34.28 55.21 34.30 55.17 34.33 C 55.12 34.35 55.01 34.36 54.80 34.29 C 54.82 34.30 55.17 34.46 55.05 34.52 C 55.03 34.53 54.99 34.54 54.92 34.54 C 54.92 34.54 54.89 34.54 54.77 34.47 C 54.83 34.51 54.92 34.58 54.88 34.61 C 54.85 34.62 54.82 34.62 54.74 34.61 C 54.49 34.58 54.40 34.54 54.37 34.53 C 54.40 34.57 54.48 34.67 54.42 34.70 C 54.40 34.71 54.35 34.71 54.27 34.70 C 54.00 34.65 53.50 34.45 53.33 34.14 C 53.28 34.06 53.20 34.00 53.08 33.98 L 52.99 33.96 L 53.28 33.59 Z" fill="#ecb4bf" fill-rule="nonzero" group-id="2,14,25,50,64,80,93" node-id="944" stroke="none" target-height="1.2399979" target-width="2.2199974" target-x="52.99" target-y="33.47"></path><path d="M 50.23 29.04 C 50.23 29.04 50.34 28.16 51.28 28.35 C 52.01 28.49 51.77 30.98 51.62 31.83 C 51.58 32.07 51.71 32.30 51.96 32.41 L 53.44 33.56 C 53.44 33.56 53.22 33.66 53.03 34.08 L 50.66 32.94 C 50.46 32.86 50.33 32.70 50.31 32.51 C 50.23 31.76 50.16 29.40 50.23 29.04 Z" fill="#6b9ef9" fill-rule="nonzero" group-id="2,14,25,50,64,80,93" node-id="946" stroke="none" target-height="5.920002" target-width="3.2799988" target-x="50.16" target-y="28.16"></path></g><g node-id="1073"><g node-id="1086"><path d="M 54.08 31.62 L 59.33 28.59 C 59.38 28.56 59.43 28.56 59.47 28.58 L 59.65 28.68 C 59.61 28.66 59.56 28.66 59.51 28.70 L 59.40 28.76 L 59.51 28.92 L 59.52 32.49 L 54.27 35.52 L 54.07 35.64 C 54.07 35.70 54.09 35.75 54.13 35.77 L 53.95 35.66 C 53.91 35.64 53.89 35.60 53.89 35.54 L 53.88 31.97 C 53.88 31.84 53.97 31.69 54.08 31.62 Z" fill="#4c4a8b" fill-rule="nonzero" group-id="2,14,25,50,64,80,94,107" node-id="953" stroke="none" target-height="7.210001" target-width="5.7700005" target-x="53.88" target-y="28.56"></path><g node-id="1097"><g node-id="1107"><g node-id="1116"><path d="M 59.51 28.70 C 59.62 28.63 59.70 28.68 59.70 28.81 L 59.71 32.38 C 59.72 32.50 59.63 32.66 59.52 32.72 L 54.27 35.75 C 54.16 35.81 54.07 35.76 54.07 35.64 L 54.06 32.07 C 54.06 31.94 54.15 31.79 54.26 31.73 L 59.51 28.70 Z" fill="#2a2a5e" fill-rule="nonzero" group-id="2,14,25,50,64,80,94,107,118,128,137" node-id="961" stroke="none" target-height="7.180002" target-width="5.66" target-x="54.06" target-y="28.63"></path></g></g></g></g><path d="M 57.12 33.85 C 57.31 33.64 57.64 33.48 57.84 33.39 C 57.95 33.35 58.09 33.40 58.17 33.51 L 58.32 33.69 C 58.33 33.83 58.32 33.82 58.25 33.89 C 58.09 34.07 57.64 34.35 57.23 34.28 C 57.23 34.27 56.83 34.18 57.12 33.85 Z" fill="#ecb4bf" fill-rule="nonzero" group-id="2,14,25,50,64,80,94" node-id="967" stroke="none" target-height="1" target-width="1.5" target-x="56.83" target-y="33.35"></path></g></g></g></g><path d="M 54.48 25.86 C 54.48 25.86 54.49 25.46 54.40 25.13 C 54.39 25.14 54.39 25.14 54.38 25.14 C 54.25 25.16 54.12 25.16 54.00 25.14 C 52.08 24.88 52.65 26.38 52.65 26.38 L 52.47 26.38 C 52.43 26.01 52.30 25.85 52.17 25.81 C 52.05 25.77 51.94 25.87 51.95 26.00 C 51.99 26.35 52.13 26.83 52.15 26.89 C 51.62 26.35 51.28 24.13 52.65 24.04 C 52.89 24.03 54.57 23.74 54.57 24.81 L 54.57 24.91 C 54.57 24.91 54.57 24.91 54.57 24.92 C 54.58 25.01 54.60 25.58 54.48 25.86 Z" fill="#3a3a77" fill-rule="nonzero" group-id="2,14,25" node-id="973" stroke="none" target-height="3.1499996" target-width="3.3199997" target-x="51.28" target-y="23.74"></path></g><path d="M 56.88 31.66 C 57.15 31.51 57.37 31.63 57.37 31.94 C 57.37 32.25 57.16 32.63 56.89 32.78 C 56.62 32.94 56.40 32.82 56.40 32.51 C 56.40 32.20 56.62 31.82 56.88 31.66 Z" fill="#6262aa" fill-rule="nonzero" group-id="2,14,26" node-id="978" stroke="none" target-height="1.4299984" target-width="0.9699974" target-x="56.4" target-y="31.51"></path></g></g></svg>