<svg height="1024" node-id="1" sillyvg="true" template-height="1024" template-width="1440" version="1.1" viewBox="0 0 1440 1024" width="1440" xmlns="http://www.w3.org/2000/svg" xmlns:xlink="http://www.w3.org/1999/xlink"><defs node-id="152"><linearGradient gradientUnits="objectBoundingBox" id="linearGradient-1" node-id="7" spreadMethod="pad" x1="0.08381742" x2="0.5657025" y1="0.31386477" y2="0.5"><stop offset="0" stop-color="#cfe49f"></stop><stop offset="1" stop-color="#a9d386"></stop></linearGradient><linearGradient gradientUnits="objectBoundingBox" id="linearGradient-2" node-id="10" spreadMethod="pad" x1="0.34980085" x2="0.66602623" y1="0.24563533" y2="0.8041807"><stop offset="0" stop-color="#6eae7c"></stop><stop offset="1" stop-color="#0f575d"></stop></linearGradient><linearGradient gradientUnits="objectBoundingBox" id="linearGradient-3" node-id="13" spreadMethod="pad" x1="0.3411517" x2="0.6483335" y1="0.33968368" y2="0.5240704"><stop offset="0" stop-color="#77d791"></stop><stop offset="1" stop-color="#4fa67e"></stop></linearGradient><linearGradient gradientUnits="objectBoundingBox" id="linearGradient-4" node-id="16" spreadMethod="pad" x1="0.08381742" x2="0.5657025" y1="0.13142543" y2="0.5"><stop offset="0" stop-color="#cfe49f"></stop><stop offset="1" stop-color="#a9d386"></stop></linearGradient><linearGradient gradientUnits="objectBoundingBox" id="linearGradient-5" node-id="19" spreadMethod="pad" x1="0.5" x2="0.5" y1="-0.000000000000000024894982" y2="1"><stop offset="0" stop-color="#4dbcfa"></stop><stop offset="1" stop-color="#1486db"></stop></linearGradient><linearGradient gradientUnits="objectBoundingBox" id="linearGradient-6" node-id="22" spreadMethod="pad" x1="0.5" x2="0.5" y1="0.07264389" y2="1.5105782"><stop offset="0" stop-color="#d0f6ff"></stop><stop offset="1" stop-color="#8be2f7"></stop></linearGradient><linearGradient gradientUnits="objectBoundingBox" id="linearGradient-7" node-id="25" spreadMethod="pad" x1="0.5" x2="0.5" y1="0" y2="0.9184823"><stop offset="0" stop-color="#eafcff"></stop><stop offset="1" stop-color="#ffffff"></stop></linearGradient><linearGradient gradientUnits="objectBoundingBox" id="linearGradient-8" node-id="28" spreadMethod="pad" x1="0.5" x2="0.5" y1="0.07264389" y2="1.5105782"><stop offset="0" stop-color="#d0f6ff"></stop><stop offset="1" stop-color="#8be2f7"></stop></linearGradient><linearGradient gradientUnits="objectBoundingBox" id="linearGradient-9" node-id="31" spreadMethod="pad" x1="0.5" x2="0.5" y1="0" y2="1"><stop offset="0" stop-color="#ff9485"></stop><stop offset="1" stop-color="#ff676e"></stop></linearGradient><linearGradient gradientUnits="objectBoundingBox" id="linearGradient-10" node-id="34" spreadMethod="pad" x1="0.5" x2="0.5" y1="0" y2="1"><stop offset="0" stop-color="#ff9485"></stop><stop offset="1" stop-color="#ff676e"></stop></linearGradient><linearGradient gradientUnits="objectBoundingBox" id="linearGradient-11" node-id="37" spreadMethod="pad" x1="0.5" x2="0.5" y1="0" y2="1"><stop offset="0" stop-color="#ff9485"></stop><stop offset="1" stop-color="#ff676e"></stop></linearGradient><linearGradient gradientUnits="objectBoundingBox" id="linearGradient-12" node-id="40" spreadMethod="pad" x1="0.5" x2="0.5" y1="0" y2="1"><stop offset="0" stop-color="#ff9485"></stop><stop offset="1" stop-color="#ff676e"></stop></linearGradient><linearGradient gradientUnits="objectBoundingBox" id="linearGradient-13" node-id="43" spreadMethod="pad" x1="0.5" x2="0.5" y1="0" y2="1"><stop offset="0" stop-color="#1d2a78"></stop><stop offset="1" stop-color="#12033b"></stop></linearGradient><linearGradient gradientUnits="objectBoundingBox" id="linearGradient-14" node-id="46" spreadMethod="pad" x1="0.5" x2="0.5" y1="0.07264389" y2="1.5105782"><stop offset="0" stop-color="#d0f6ff"></stop><stop offset="1" stop-color="#8be2f7"></stop></linearGradient><linearGradient gradientUnits="objectBoundingBox" id="linearGradient-15" node-id="49" spreadMethod="pad" x1="0.5" x2="0.5" y1="0" y2="0.9184823"><stop offset="0" stop-color="#eafcff"></stop><stop offset="1" stop-color="#ffffff"></stop></linearGradient><linearGradient gradientUnits="objectBoundingBox" id="linearGradient-16" node-id="52" spreadMethod="pad" x1="0.5" x2="0.5" y1="0" y2="1"><stop offset="0" stop-color="#ff9485"></stop><stop offset="1" stop-color="#ff676e"></stop></linearGradient><linearGradient gradientUnits="objectBoundingBox" id="linearGradient-17" node-id="55" spreadMethod="pad" x1="0.5" x2="0.57149917" y1="0" y2="0.8936784"><stop offset="0" stop-color="#0f1752"></stop><stop offset="1" stop-color="#272884"></stop></linearGradient><linearGradient gradientUnits="objectBoundingBox" id="linearGradient-18" node-id="58" spreadMethod="pad" x1="0.5" x2="1" y1="0.43590915" y2="0.55046237"><stop offset="0" stop-color="#0f1752"></stop><stop offset="1" stop-color="#272884"></stop></linearGradient><linearGradient gradientUnits="objectBoundingBox" id="linearGradient-19" node-id="61" spreadMethod="pad" x1="0.5" x2="0.50935054" y1="1.140151" y2="0.25901952"><stop offset="0" stop-color="#2b3389"></stop><stop offset="1" stop-color="#444fb7"></stop></linearGradient><linearGradient gradientUnits="objectBoundingBox" id="linearGradient-20" node-id="64" spreadMethod="pad" x1="0.5" x2="0.5" y1="-0.000000000000000024894982" y2="1"><stop offset="0" stop-color="#4dbcfa"></stop><stop offset="1" stop-color="#1486db"></stop></linearGradient><linearGradient gradientUnits="objectBoundingBox" id="linearGradient-21" node-id="67" spreadMethod="pad" x1="0.5" x2="1" y1="0" y2="0.8936784"><stop offset="0" stop-color="#0f1752"></stop><stop offset="1" stop-color="#272884"></stop></linearGradient><linearGradient gradientUnits="objectBoundingBox" id="linearGradient-22" node-id="70" spreadMethod="pad" x1="0.5" x2="0.5" y1="-0.27364156" y2="1"><stop offset="0" stop-color="#c0e4fd"></stop><stop offset="1" stop-color="#72b9fe"></stop></linearGradient><linearGradient gradientUnits="objectBoundingBox" id="linearGradient-23" node-id="73" spreadMethod="pad" x1="0.8257673" x2="0.8257673" y1="-0.5295138" y2="1.8666481"><stop offset="0" stop-color="#1533b6"></stop><stop offset="1" stop-color="#356be9"></stop></linearGradient><linearGradient gradientUnits="objectBoundingBox" id="linearGradient-24" node-id="76" spreadMethod="pad" x1="0.5" x2="0.5" y1="0" y2="1"><stop offset="0" stop-color="#1d2a78"></stop><stop offset="1" stop-color="#12033b"></stop></linearGradient><linearGradient gradientUnits="objectBoundingBox" id="linearGradient-25" node-id="79" spreadMethod="pad" x1="0.5" x2="0.5" y1="-0.000000000000000024894982" y2="1"><stop offset="0" stop-color="#4dbcfa"></stop><stop offset="1" stop-color="#1486db"></stop></linearGradient><linearGradient gradientUnits="objectBoundingBox" id="linearGradient-26" node-id="82" spreadMethod="pad" x1="0.5" x2="0.5" y1="-0.27364156" y2="1"><stop offset="0" stop-color="#c0e4fd"></stop><stop offset="1" stop-color="#72b9fe"></stop></linearGradient><linearGradient gradientUnits="objectBoundingBox" id="linearGradient-27" node-id="85" spreadMethod="pad" x1="0.5" x2="0.5" y1="-0.27364156" y2="1"><stop offset="0" stop-color="#c0e4fd"></stop><stop offset="1" stop-color="#72b9fe"></stop></linearGradient></defs><path d="M 0.00 0.00 L 1440.00 0.00 L 1440.00 1024.00 L 0.00 1024.00 Z" fill="#ffffff" fill-rule="evenodd" node-id="318" stroke="none" target-height="1024" target-width="1440" target-x="0" target-y="0"></path><g node-id="320"><g node-id="326"><path d="M 986.00 923.04 L 1038.96 923.04 L 1093.93 923.04 L 1148.43 923.04 L 1199.98 923.04 L 1246.09 923.04 L 1284.26 923.04 L 1284.03 914.71 L 1283.37 906.57 L 1282.30 898.61 L 1280.82 890.81 L 1278.94 883.16 L 1276.00 873.70 L 1272.52 864.59 L 1268.49 855.80 L 1263.90 847.31 L 1258.77 839.12 L 1253.18 831.34 L 1247.12 823.96 L 1240.58 816.95 L 1233.61 810.37 L 1226.27 804.27 L 1218.54 798.65 L 1210.40 793.49 L 1201.96 788.87 L 1193.23 784.81 L 1184.17 781.31 L 1174.78 778.36 L 1167.17 776.46 L 1159.42 774.97 L 1151.50 773.90 L 1143.41 773.24 L 1135.13 773.00 L 1126.85 773.24 L 1118.76 773.90 L 1110.85 774.97 L 1103.09 776.46 L 1095.49 778.36 L 1086.09 781.31 L 1077.04 784.81 L 1068.30 788.87 L 1059.86 793.49 L 1051.73 798.65 L 1043.99 804.27 L 1036.65 810.37 L 1029.68 816.95 L 1023.14 823.96 L 1017.08 831.34 L 1011.49 839.12 L 1006.36 847.31 L 1001.77 855.80 L 997.74 864.59 L 994.26 873.70 L 991.33 883.16 L 989.44 890.81 L 987.96 898.61 L 986.89 906.57 L 986.24 914.71 L 986.00 923.04 Z" fill="#66d4ff" fill-rule="evenodd" group-id="1,7" id="Shape" node-id="91" stroke="none" target-height="150.03998" target-width="298.26" target-x="986" target-y="773"></path></g><g node-id="327"><path d="M 1100.50 822.85 L 1103.89 810.82 L 1107.59 799.75 L 1111.59 789.58 L 1115.86 780.26 L 1120.39 771.73 L 1125.16 763.94 L 1130.17 756.84 L 1135.42 750.39 L 1140.91 744.56 L 1146.64 739.30 L 1152.61 734.59 L 1158.85 730.41 L 1165.37 726.75 L 1172.18 723.58 L 1179.32 720.90 L 1186.80 718.73 L 1194.66 717.05 L 1202.92 715.90 L 1211.63 715.28 L 1220.81 715.23 L 1230.50 715.77 L 1240.74 716.95 L 1251.58 718.79 L 1263.04 721.35 L 1275.18 724.69 L 1272.86 735.51 L 1270.09 745.74 L 1266.89 755.43 L 1263.25 764.59 L 1259.19 773.25 L 1254.72 781.46 L 1249.84 789.21 L 1244.54 796.55 L 1238.81 803.48 L 1232.66 810.03 L 1226.05 816.20 L 1218.99 822.01 L 1213.26 826.06 L 1207.34 829.54 L 1201.20 832.49 L 1194.82 834.91 L 1188.19 836.81 L 1181.26 838.19 L 1174.02 839.02 L 1166.43 839.31 L 1158.46 839.02 L 1150.06 838.11 L 1141.21 836.56 L 1131.87 834.31 L 1122.00 831.31 L 1111.55 827.51 L 1100.50 822.85 Z" fill="url(#linearGradient-1)" fill-rule="evenodd" group-id="1,8" id="Shape" node-id="93" stroke="none" target-height="124.08002" target-width="174.68005" target-x="1100.5" target-y="715.23"></path><path d="M 1171.91 781.32 L 1175.18 749.21 L 1175.40 748.66 L 1175.79 748.38 L 1176.28 748.32 L 1176.75 748.48 L 1177.07 748.83 L 1177.17 749.42 L 1174.04 780.11 L 1265.02 729.05 L 1265.78 728.96 L 1266.38 729.43 L 1266.47 730.19 L 1266.00 730.79 L 1211.67 761.22 L 1239.85 767.94 L 1240.47 768.39 L 1240.59 769.15 L 1240.14 769.77 L 1239.38 769.89 L 1209.10 762.66 L 1173.52 782.71 L 1173.20 782.89 L 1141.62 800.83 L 1167.83 810.40 L 1168.40 810.92 L 1168.43 811.68 L 1167.91 812.25 L 1167.15 812.28 L 1139.47 802.17 L 1139.36 802.12 L 1119.76 813.44 L 1109.09 819.77 L 1108.34 819.89 L 1107.72 819.44 L 1107.60 818.68 L 1108.05 818.06 L 1127.45 806.66 L 1171.91 781.32 Z" fill="#ffffff" fill-rule="nonzero" group-id="1,8" id="Shape" node-id="94" stroke="none" target-height="90.92999" target-width="158.87" target-x="1107.6" target-y="728.96"></path><path d="M 1111.29 850.93 L 1105.18 840.02 L 1099.97 829.57 L 1095.61 819.56 L 1092.03 809.95 L 1089.20 800.72 L 1087.07 791.83 L 1085.60 783.27 L 1084.75 775.00 L 1084.50 766.99 L 1084.84 759.22 L 1085.74 751.67 L 1087.19 744.30 L 1089.21 737.10 L 1091.78 730.04 L 1094.94 723.11 L 1098.69 716.28 L 1103.06 709.54 L 1108.09 702.88 L 1113.81 696.29 L 1120.27 689.76 L 1127.50 683.29 L 1135.57 676.87 L 1144.54 670.52 L 1154.46 664.23 L 1165.39 658.00 L 1171.41 667.29 L 1176.69 676.48 L 1181.27 685.60 L 1185.17 694.65 L 1188.44 703.64 L 1191.07 712.60 L 1193.11 721.54 L 1194.55 730.48 L 1195.40 739.43 L 1195.68 748.41 L 1195.37 757.45 L 1194.48 766.55 L 1193.29 773.46 L 1191.57 780.12 L 1189.32 786.54 L 1186.52 792.76 L 1183.17 798.80 L 1179.24 804.66 L 1174.72 810.38 L 1169.55 815.95 L 1163.70 821.38 L 1157.13 826.67 L 1149.77 831.83 L 1141.57 836.85 L 1132.47 841.71 L 1122.40 846.41 L 1111.29 850.93 Z" fill="url(#linearGradient-2)" fill-rule="evenodd" group-id="1,8" id="Shape" node-id="95" stroke="none" target-height="192.93" target-width="111.18005" target-x="1084.5" target-y="658"></path><path d="M 1132.42 771.07 L 1112.03 746.05 L 1111.79 745.51 L 1111.87 745.03 L 1112.18 744.64 L 1112.62 744.43 L 1113.10 744.44 L 1113.58 744.79 L 1133.07 768.71 L 1161.30 668.26 L 1161.77 667.66 L 1162.53 667.57 L 1163.13 668.05 L 1163.22 668.81 L 1146.32 728.74 L 1171.00 713.57 L 1171.75 713.45 L 1172.37 713.89 L 1172.49 714.65 L 1172.05 715.27 L 1145.52 731.57 L 1134.54 770.91 L 1134.44 771.26 L 1124.80 806.28 L 1150.10 794.51 L 1150.86 794.48 L 1151.43 795.00 L 1151.46 795.76 L 1150.94 796.33 L 1124.23 808.75 L 1124.11 808.79 L 1118.26 830.66 L 1115.19 842.67 L 1114.74 843.29 L 1113.98 843.41 L 1113.36 842.96 L 1113.25 842.20 L 1118.90 820.42 L 1132.42 771.07 L 1132.42 771.07 Z" fill="#ffffff" fill-rule="nonzero" group-id="1,8" id="Shape" node-id="96" stroke="none" target-height="175.83997" target-width="60.69995" target-x="1111.79" target-y="667.57"></path><path d="M 1061.00 885.32 L 1067.39 874.58 L 1073.84 864.84 L 1080.33 856.05 L 1086.86 848.16 L 1093.44 841.09 L 1100.07 834.80 L 1106.75 829.24 L 1113.49 824.37 L 1120.30 820.16 L 1127.19 816.56 L 1134.18 813.56 L 1141.29 811.14 L 1148.54 809.28 L 1155.94 807.99 L 1163.52 807.25 L 1171.31 807.08 L 1179.34 807.50 L 1187.62 808.53 L 1196.19 810.18 L 1205.07 812.51 L 1214.29 815.54 L 1223.88 819.32 L 1233.86 823.91 L 1244.27 829.35 L 1255.13 835.71 L 1250.10 845.57 L 1244.77 854.74 L 1239.17 863.26 L 1233.29 871.17 L 1227.13 878.49 L 1220.68 885.25 L 1213.96 891.48 L 1206.94 897.20 L 1199.62 902.41 L 1191.97 907.14 L 1184.00 911.40 L 1175.67 915.18 L 1169.09 917.60 L 1162.47 919.44 L 1155.77 920.70 L 1148.99 921.39 L 1142.09 921.50 L 1135.05 921.04 L 1127.83 919.97 L 1120.43 918.28 L 1112.80 915.94 L 1104.93 912.89 L 1096.78 909.10 L 1088.34 904.51 L 1079.58 899.06 L 1070.47 892.69 L 1061.00 885.32 Z" fill="url(#linearGradient-3)" fill-rule="nonzero" group-id="1,8" id="Shape" node-id="97" stroke="none" target-height="114.41998" target-width="194.13" target-x="1061" target-y="807.08"></path><path d="M 1140.72 863.69 L 1152.20 833.52 L 1152.55 833.05 L 1153.00 832.88 L 1153.49 832.95 L 1153.90 833.22 L 1154.12 833.65 L 1154.07 834.24 L 1143.10 863.08 L 1244.20 837.30 L 1244.95 837.41 L 1245.41 838.02 L 1245.30 838.78 L 1244.69 839.24 L 1184.34 854.56 L 1209.81 868.35 L 1210.30 868.94 L 1210.22 869.70 L 1209.62 870.19 L 1208.86 870.11 L 1181.48 855.29 L 1141.92 865.44 L 1141.57 865.54 L 1106.42 874.69 L 1129.26 890.72 L 1129.67 891.37 L 1129.51 892.12 L 1128.86 892.53 L 1128.11 892.36 L 1104.00 875.44 L 1103.90 875.36 L 1082.04 881.22 L 1070.10 884.57 L 1069.34 884.49 L 1068.86 883.89 L 1068.94 883.13 L 1069.54 882.65 L 1091.23 876.66 L 1140.72 863.69 Z" fill="#ffffff" fill-rule="nonzero" group-id="1,8" id="Shape" node-id="98" stroke="none" target-height="59.650024" target-width="176.55005" target-x="1068.86" target-y="832.88"></path></g><path d="M 687.82 269.58 L 687.65 270.78 L 687.22 271.80 L 686.53 272.70 L 685.63 273.39 L 684.61 273.82 L 683.41 273.99 L 682.21 273.82 L 681.19 273.39 L 680.29 272.70 L 679.60 271.80 L 679.17 270.78 L 679.00 269.58 L 679.17 268.38 L 679.60 267.36 L 680.29 266.46 L 681.19 265.77 L 682.21 265.34 L 683.41 265.17 L 684.61 265.34 L 685.63 265.77 L 686.53 266.46 L 687.22 267.36 L 687.65 268.38 L 687.82 269.58 Z M 687.82 251.95 L 687.65 253.14 L 687.22 254.17 L 686.53 255.06 L 685.63 255.76 L 684.61 256.18 L 683.41 256.35 L 682.21 256.18 L 681.19 255.76 L 680.29 255.06 L 679.60 254.17 L 679.17 253.14 L 679.00 251.95 L 679.17 250.75 L 679.60 249.72 L 680.29 248.83 L 681.19 248.13 L 682.21 247.71 L 683.41 247.54 L 684.61 247.71 L 685.63 248.13 L 686.53 248.83 L 687.22 249.72 L 687.65 250.75 L 687.82 251.95 Z M 687.82 234.31 L 687.65 235.51 L 687.22 236.53 L 686.53 237.43 L 685.63 238.12 L 684.61 238.55 L 683.41 238.72 L 682.21 238.55 L 681.19 238.12 L 680.29 237.43 L 679.60 236.53 L 679.17 235.51 L 679.00 234.31 L 679.17 233.11 L 679.60 232.09 L 680.29 231.19 L 681.19 230.50 L 682.21 230.07 L 683.41 229.90 L 684.61 230.07 L 685.63 230.50 L 686.53 231.19 L 687.22 232.09 L 687.65 233.11 L 687.82 234.31 Z M 687.82 216.68 L 687.65 217.87 L 687.22 218.90 L 686.53 219.79 L 685.63 220.49 L 684.61 220.92 L 683.41 221.09 L 682.21 220.92 L 681.19 220.49 L 680.29 219.79 L 679.60 218.90 L 679.17 217.87 L 679.00 216.68 L 679.17 215.48 L 679.60 214.45 L 680.29 213.56 L 681.19 212.87 L 682.21 212.44 L 683.41 212.27 L 684.61 212.44 L 685.63 212.87 L 686.53 213.56 L 687.22 214.45 L 687.65 215.48 L 687.82 216.68 Z M 687.82 199.04 L 687.65 200.24 L 687.22 201.27 L 686.53 202.16 L 685.63 202.85 L 684.61 203.28 L 683.41 203.45 L 682.21 203.28 L 681.19 202.85 L 680.29 202.16 L 679.60 201.27 L 679.17 200.24 L 679.00 199.04 L 679.17 197.85 L 679.60 196.82 L 680.29 195.93 L 681.19 195.23 L 682.21 194.80 L 683.41 194.63 L 684.61 194.80 L 685.63 195.23 L 686.53 195.93 L 687.22 196.82 L 687.65 197.85 L 687.82 199.04 Z M 687.82 181.41 L 687.65 182.61 L 687.22 183.63 L 686.53 184.53 L 685.63 185.22 L 684.61 185.65 L 683.41 185.82 L 682.21 185.65 L 681.19 185.22 L 680.29 184.53 L 679.60 183.63 L 679.17 182.61 L 679.00 181.41 L 679.17 180.21 L 679.60 179.19 L 680.29 178.29 L 681.19 177.60 L 682.21 177.17 L 683.41 177.00 L 684.61 177.17 L 685.63 177.60 L 686.53 178.29 L 687.22 179.19 L 687.65 180.21 L 687.82 181.41 Z M 705.45 269.58 L 705.28 270.78 L 704.85 271.80 L 704.16 272.70 L 703.27 273.39 L 702.24 273.82 L 701.04 273.99 L 699.85 273.82 L 698.82 273.39 L 697.93 272.70 L 697.23 271.80 L 696.80 270.78 L 696.64 269.58 L 696.80 268.38 L 697.23 267.36 L 697.93 266.46 L 698.82 265.77 L 699.85 265.34 L 701.04 265.17 L 702.24 265.34 L 703.27 265.77 L 704.16 266.46 L 704.85 267.36 L 705.28 268.38 L 705.45 269.58 Z M 705.45 251.95 L 705.28 253.14 L 704.85 254.17 L 704.16 255.06 L 703.27 255.76 L 702.24 256.18 L 701.04 256.35 L 699.85 256.18 L 698.82 255.76 L 697.93 255.06 L 697.23 254.17 L 696.80 253.14 L 696.64 251.95 L 696.80 250.75 L 697.23 249.72 L 697.93 248.83 L 698.82 248.13 L 699.85 247.71 L 701.04 247.54 L 702.24 247.71 L 703.27 248.13 L 704.16 248.83 L 704.85 249.72 L 705.28 250.75 L 705.45 251.95 Z M 705.45 234.31 L 705.28 235.51 L 704.85 236.53 L 704.16 237.43 L 703.27 238.12 L 702.24 238.55 L 701.04 238.72 L 699.85 238.55 L 698.82 238.12 L 697.93 237.43 L 697.23 236.53 L 696.80 235.51 L 696.64 234.31 L 696.80 233.11 L 697.23 232.09 L 697.93 231.19 L 698.82 230.50 L 699.85 230.07 L 701.04 229.90 L 702.24 230.07 L 703.27 230.50 L 704.16 231.19 L 704.85 232.09 L 705.28 233.11 L 705.45 234.31 Z M 705.45 216.68 L 705.28 217.87 L 704.85 218.90 L 704.16 219.79 L 703.27 220.49 L 702.24 220.92 L 701.04 221.09 L 699.85 220.92 L 698.82 220.49 L 697.93 219.79 L 697.23 218.90 L 696.80 217.87 L 696.64 216.68 L 696.80 215.48 L 697.23 214.45 L 697.93 213.56 L 698.82 212.87 L 699.85 212.44 L 701.04 212.27 L 702.24 212.44 L 703.27 212.87 L 704.16 213.56 L 704.85 214.45 L 705.28 215.48 L 705.45 216.68 Z M 705.45 199.04 L 705.28 200.24 L 704.85 201.27 L 704.16 202.16 L 703.27 202.85 L 702.24 203.28 L 701.04 203.45 L 699.85 203.28 L 698.82 202.85 L 697.93 202.16 L 697.23 201.27 L 696.80 200.24 L 696.64 199.04 L 696.80 197.85 L 697.23 196.82 L 697.93 195.93 L 698.82 195.23 L 699.85 194.80 L 701.04 194.63 L 702.24 194.80 L 703.27 195.23 L 704.16 195.93 L 704.85 196.82 L 705.28 197.85 L 705.45 199.04 Z M 705.45 181.41 L 705.28 182.61 L 704.85 183.63 L 704.16 184.53 L 703.27 185.22 L 702.24 185.65 L 701.04 185.82 L 699.85 185.65 L 698.82 185.22 L 697.93 184.53 L 697.23 183.63 L 696.80 182.61 L 696.64 181.41 L 696.80 180.21 L 697.23 179.19 L 697.93 178.29 L 698.82 177.60 L 699.85 177.17 L 701.04 177.00 L 702.24 177.17 L 703.27 177.60 L 704.16 178.29 L 704.85 179.19 L 705.28 180.21 L 705.45 181.41 Z M 723.09 269.58 L 722.92 270.78 L 722.49 271.80 L 721.80 272.70 L 720.90 273.39 L 719.88 273.82 L 718.68 273.99 L 717.48 273.82 L 716.46 273.39 L 715.56 272.70 L 714.87 271.80 L 714.44 270.78 L 714.27 269.58 L 714.44 268.38 L 714.87 267.36 L 715.56 266.46 L 716.46 265.77 L 717.48 265.34 L 718.68 265.17 L 719.88 265.34 L 720.90 265.77 L 721.80 266.46 L 722.49 267.36 L 722.92 268.38 L 723.09 269.58 Z M 723.09 251.95 L 722.92 253.14 L 722.49 254.17 L 721.80 255.06 L 720.90 255.76 L 719.88 256.18 L 718.68 256.35 L 717.48 256.18 L 716.46 255.76 L 715.56 255.06 L 714.87 254.17 L 714.44 253.14 L 714.27 251.95 L 714.44 250.75 L 714.87 249.72 L 715.56 248.83 L 716.46 248.13 L 717.48 247.71 L 718.68 247.54 L 719.88 247.71 L 720.90 248.13 L 721.80 248.83 L 722.49 249.72 L 722.92 250.75 L 723.09 251.95 Z M 723.09 234.31 L 722.92 235.51 L 722.49 236.53 L 721.80 237.43 L 720.90 238.12 L 719.88 238.55 L 718.68 238.72 L 717.48 238.55 L 716.46 238.12 L 715.56 237.43 L 714.87 236.53 L 714.44 235.51 L 714.27 234.31 L 714.44 233.11 L 714.87 232.09 L 715.56 231.19 L 716.46 230.50 L 717.48 230.07 L 718.68 229.90 L 719.88 230.07 L 720.90 230.50 L 721.80 231.19 L 722.49 232.09 L 722.92 233.11 L 723.09 234.31 Z M 723.09 216.68 L 722.92 217.87 L 722.49 218.90 L 721.80 219.79 L 720.90 220.49 L 719.88 220.92 L 718.68 221.09 L 717.48 220.92 L 716.46 220.49 L 715.56 219.79 L 714.87 218.90 L 714.44 217.87 L 714.27 216.68 L 714.44 215.48 L 714.87 214.45 L 715.56 213.56 L 716.46 212.87 L 717.48 212.44 L 718.68 212.27 L 719.88 212.44 L 720.90 212.87 L 721.80 213.56 L 722.49 214.45 L 722.92 215.48 L 723.09 216.68 Z M 723.09 199.04 L 722.92 200.24 L 722.49 201.27 L 721.80 202.16 L 720.90 202.85 L 719.88 203.28 L 718.68 203.45 L 717.48 203.28 L 716.46 202.85 L 715.56 202.16 L 714.87 201.27 L 714.44 200.24 L 714.27 199.04 L 714.44 197.85 L 714.87 196.82 L 715.56 195.93 L 716.46 195.23 L 717.48 194.80 L 718.68 194.63 L 719.88 194.80 L 720.90 195.23 L 721.80 195.93 L 722.49 196.82 L 722.92 197.85 L 723.09 199.04 Z M 723.09 181.41 L 722.92 182.61 L 722.49 183.63 L 721.80 184.53 L 720.90 185.22 L 719.88 185.65 L 718.68 185.82 L 717.48 185.65 L 716.46 185.22 L 715.56 184.53 L 714.87 183.63 L 714.44 182.61 L 714.27 181.41 L 714.44 180.21 L 714.87 179.19 L 715.56 178.29 L 716.46 177.60 L 717.48 177.17 L 718.68 177.00 L 719.88 177.17 L 720.90 177.60 L 721.80 178.29 L 722.49 179.19 L 722.92 180.21 L 723.09 181.41 Z M 740.72 269.58 L 740.55 270.78 L 740.13 271.80 L 739.43 272.70 L 738.54 273.39 L 737.51 273.82 L 736.31 273.99 L 735.12 273.82 L 734.09 273.39 L 733.20 272.70 L 732.50 271.80 L 732.08 270.78 L 731.91 269.58 L 732.08 268.38 L 732.50 267.36 L 733.20 266.46 L 734.09 265.77 L 735.12 265.34 L 736.31 265.17 L 737.51 265.34 L 738.54 265.77 L 739.43 266.46 L 740.13 267.36 L 740.55 268.38 L 740.72 269.58 Z M 740.72 251.95 L 740.55 253.14 L 740.13 254.17 L 739.43 255.06 L 738.54 255.76 L 737.51 256.18 L 736.31 256.35 L 735.12 256.18 L 734.09 255.76 L 733.20 255.06 L 732.50 254.17 L 732.08 253.14 L 731.91 251.95 L 732.08 250.75 L 732.50 249.72 L 733.20 248.83 L 734.09 248.13 L 735.12 247.71 L 736.31 247.54 L 737.51 247.71 L 738.54 248.13 L 739.43 248.83 L 740.13 249.72 L 740.55 250.75 L 740.72 251.95 Z M 740.72 234.31 L 740.55 235.51 L 740.13 236.53 L 739.43 237.43 L 738.54 238.12 L 737.51 238.55 L 736.31 238.72 L 735.12 238.55 L 734.09 238.12 L 733.20 237.43 L 732.50 236.53 L 732.08 235.51 L 731.91 234.31 L 732.08 233.11 L 732.50 232.09 L 733.20 231.19 L 734.09 230.50 L 735.12 230.07 L 736.31 229.90 L 737.51 230.07 L 738.54 230.50 L 739.43 231.19 L 740.13 232.09 L 740.55 233.11 L 740.72 234.31 Z M 740.72 216.68 L 740.55 217.87 L 740.13 218.90 L 739.43 219.79 L 738.54 220.49 L 737.51 220.92 L 736.31 221.09 L 735.12 220.92 L 734.09 220.49 L 733.20 219.79 L 732.50 218.90 L 732.08 217.87 L 731.91 216.68 L 732.08 215.48 L 732.50 214.45 L 733.20 213.56 L 734.09 212.87 L 735.12 212.44 L 736.31 212.27 L 737.51 212.44 L 738.54 212.87 L 739.43 213.56 L 740.13 214.45 L 740.55 215.48 L 740.72 216.68 Z M 740.72 199.04 L 740.55 200.24 L 740.13 201.27 L 739.43 202.16 L 738.54 202.85 L 737.51 203.28 L 736.31 203.45 L 735.12 203.28 L 734.09 202.85 L 733.20 202.16 L 732.50 201.27 L 732.08 200.24 L 731.91 199.04 L 732.08 197.85 L 732.50 196.82 L 733.20 195.93 L 734.09 195.23 L 735.12 194.80 L 736.31 194.63 L 737.51 194.80 L 738.54 195.23 L 739.43 195.93 L 740.13 196.82 L 740.55 197.85 L 740.72 199.04 Z M 740.72 181.41 L 740.55 182.61 L 740.13 183.63 L 739.43 184.53 L 738.54 185.22 L 737.51 185.65 L 736.31 185.82 L 735.12 185.65 L 734.09 185.22 L 733.20 184.53 L 732.50 183.63 L 732.08 182.61 L 731.91 181.41 L 732.08 180.21 L 732.50 179.19 L 733.20 178.29 L 734.09 177.60 L 735.12 177.17 L 736.31 177.00 L 737.51 177.17 L 738.54 177.60 L 739.43 178.29 L 740.13 179.19 L 740.55 180.21 L 740.72 181.41 Z M 758.36 269.58 L 758.19 270.78 L 757.76 271.80 L 757.07 272.70 L 756.17 273.39 L 755.15 273.82 L 753.95 273.99 L 752.75 273.82 L 751.73 273.39 L 750.83 272.70 L 750.14 271.80 L 749.71 270.78 L 749.54 269.58 L 749.71 268.38 L 750.14 267.36 L 750.83 266.46 L 751.73 265.77 L 752.75 265.34 L 753.95 265.17 L 755.15 265.34 L 756.17 265.77 L 757.07 266.46 L 757.76 267.36 L 758.19 268.38 L 758.36 269.58 Z M 758.36 251.95 L 758.19 253.14 L 757.76 254.17 L 757.07 255.06 L 756.17 255.76 L 755.15 256.18 L 753.95 256.35 L 752.75 256.18 L 751.73 255.76 L 750.83 255.06 L 750.14 254.17 L 749.71 253.14 L 749.54 251.95 L 749.71 250.75 L 750.14 249.72 L 750.83 248.83 L 751.73 248.13 L 752.75 247.71 L 753.95 247.54 L 755.15 247.71 L 756.17 248.13 L 757.07 248.83 L 757.76 249.72 L 758.19 250.75 L 758.36 251.95 Z M 758.36 234.31 L 758.19 235.51 L 757.76 236.53 L 757.07 237.43 L 756.17 238.12 L 755.15 238.55 L 753.95 238.72 L 752.75 238.55 L 751.73 238.12 L 750.83 237.43 L 750.14 236.53 L 749.71 235.51 L 749.54 234.31 L 749.71 233.11 L 750.14 232.09 L 750.83 231.19 L 751.73 230.50 L 752.75 230.07 L 753.95 229.90 L 755.15 230.07 L 756.17 230.50 L 757.07 231.19 L 757.76 232.09 L 758.19 233.11 L 758.36 234.31 Z M 758.36 216.68 L 758.19 217.87 L 757.76 218.90 L 757.07 219.79 L 756.17 220.49 L 755.15 220.92 L 753.95 221.09 L 752.75 220.92 L 751.73 220.49 L 750.83 219.79 L 750.14 218.90 L 749.71 217.87 L 749.54 216.68 L 749.71 215.48 L 750.14 214.45 L 750.83 213.56 L 751.73 212.87 L 752.75 212.44 L 753.95 212.27 L 755.15 212.44 L 756.17 212.87 L 757.07 213.56 L 757.76 214.45 L 758.19 215.48 L 758.36 216.68 Z M 758.36 199.04 L 758.19 200.24 L 757.76 201.27 L 757.07 202.16 L 756.17 202.85 L 755.15 203.28 L 753.95 203.45 L 752.75 203.28 L 751.73 202.85 L 750.83 202.16 L 750.14 201.27 L 749.71 200.24 L 749.54 199.04 L 749.71 197.85 L 750.14 196.82 L 750.83 195.93 L 751.73 195.23 L 752.75 194.80 L 753.95 194.63 L 755.15 194.80 L 756.17 195.23 L 757.07 195.93 L 757.76 196.82 L 758.19 197.85 L 758.36 199.04 Z M 758.36 181.41 L 758.19 182.61 L 757.76 183.63 L 757.07 184.53 L 756.17 185.22 L 755.15 185.65 L 753.95 185.82 L 752.75 185.65 L 751.73 185.22 L 750.83 184.53 L 750.14 183.63 L 749.71 182.61 L 749.54 181.41 L 749.71 180.21 L 750.14 179.19 L 750.83 178.29 L 751.73 177.60 L 752.75 177.17 L 753.95 177.00 L 755.15 177.17 L 756.17 177.60 L 757.07 178.29 L 757.76 179.19 L 758.19 180.21 L 758.36 181.41 Z M 775.99 269.58 L 775.82 270.78 L 775.40 271.80 L 774.70 272.70 L 773.81 273.39 L 772.78 273.82 L 771.58 273.99 L 770.39 273.82 L 769.36 273.39 L 768.47 272.70 L 767.77 271.80 L 767.35 270.78 L 767.18 269.58 L 767.35 268.38 L 767.77 267.36 L 768.47 266.46 L 769.36 265.77 L 770.39 265.34 L 771.58 265.17 L 772.78 265.34 L 773.81 265.77 L 774.70 266.46 L 775.40 267.36 L 775.82 268.38 L 775.99 269.58 Z M 775.99 251.95 L 775.82 253.14 L 775.40 254.17 L 774.70 255.06 L 773.81 255.76 L 772.78 256.18 L 771.58 256.35 L 770.39 256.18 L 769.36 255.76 L 768.47 255.06 L 767.77 254.17 L 767.35 253.14 L 767.18 251.95 L 767.35 250.75 L 767.77 249.72 L 768.47 248.83 L 769.36 248.13 L 770.39 247.71 L 771.58 247.54 L 772.78 247.71 L 773.81 248.13 L 774.70 248.83 L 775.40 249.72 L 775.82 250.75 L 775.99 251.95 Z M 775.99 234.31 L 775.82 235.51 L 775.40 236.53 L 774.70 237.43 L 773.81 238.12 L 772.78 238.55 L 771.58 238.72 L 770.39 238.55 L 769.36 238.12 L 768.47 237.43 L 767.77 236.53 L 767.35 235.51 L 767.18 234.31 L 767.35 233.11 L 767.77 232.09 L 768.47 231.19 L 769.36 230.50 L 770.39 230.07 L 771.58 229.90 L 772.78 230.07 L 773.81 230.50 L 774.70 231.19 L 775.40 232.09 L 775.82 233.11 L 775.99 234.31 Z M 775.99 216.68 L 775.82 217.87 L 775.40 218.90 L 774.70 219.79 L 773.81 220.49 L 772.78 220.92 L 771.58 221.09 L 770.39 220.92 L 769.36 220.49 L 768.47 219.79 L 767.77 218.90 L 767.35 217.87 L 767.18 216.68 L 767.35 215.48 L 767.77 214.45 L 768.47 213.56 L 769.36 212.87 L 770.39 212.44 L 771.58 212.27 L 772.78 212.44 L 773.81 212.87 L 774.70 213.56 L 775.40 214.45 L 775.82 215.48 L 775.99 216.68 Z M 775.99 199.04 L 775.82 200.24 L 775.40 201.27 L 774.70 202.16 L 773.81 202.85 L 772.78 203.28 L 771.58 203.45 L 770.39 203.28 L 769.36 202.85 L 768.47 202.16 L 767.77 201.27 L 767.35 200.24 L 767.18 199.04 L 767.35 197.85 L 767.77 196.82 L 768.47 195.93 L 769.36 195.23 L 770.39 194.80 L 771.58 194.63 L 772.78 194.80 L 773.81 195.23 L 774.70 195.93 L 775.40 196.82 L 775.82 197.85 L 775.99 199.04 Z M 775.99 181.41 L 775.82 182.61 L 775.40 183.63 L 774.70 184.53 L 773.81 185.22 L 772.78 185.65 L 771.58 185.82 L 770.39 185.65 L 769.36 185.22 L 768.47 184.53 L 767.77 183.63 L 767.35 182.61 L 767.18 181.41 L 767.35 180.21 L 767.77 179.19 L 768.47 178.29 L 769.36 177.60 L 770.39 177.17 L 771.58 177.00 L 772.78 177.17 L 773.81 177.60 L 774.70 178.29 L 775.40 179.19 L 775.82 180.21 L 775.99 181.41 Z" fill="url(#linearGradient-4)" fill-rule="evenodd" group-id="1" id="Shape" node-id="99" stroke="none" target-height="96.98999" target-width="96.98999" target-x="679" target-y="177"></path><path d="M 490.00 474.00 L 559.53 474.00 L 631.74 474.00 L 704.22 474.00 L 774.56 474.00 L 840.36 474.00 L 899.21 474.00 L 948.70 474.00 L 948.44 463.06 L 947.69 452.33 L 946.48 441.80 L 944.79 431.45 L 942.65 421.26 L 940.02 411.13 L 936.98 401.23 L 933.53 391.56 L 929.67 382.10 L 925.39 372.85 L 920.69 363.77 L 915.64 354.97 L 910.23 346.44 L 904.46 338.17 L 898.32 330.15 L 891.83 322.39 L 885.04 314.96 L 877.94 307.84 L 870.53 301.04 L 862.80 294.53 L 854.80 288.37 L 846.55 282.58 L 838.04 277.15 L 829.27 272.09 L 820.21 267.38 L 810.99 263.09 L 801.56 259.21 L 791.92 255.75 L 782.05 252.71 L 771.94 250.07 L 761.78 247.92 L 751.46 246.23 L 740.96 245.01 L 730.26 244.27 L 719.35 244.00 L 708.45 244.27 L 697.75 245.01 L 687.24 246.23 L 676.92 247.92 L 666.76 250.07 L 656.66 252.71 L 646.79 255.75 L 637.14 259.21 L 627.71 263.09 L 618.49 267.38 L 609.44 272.09 L 600.66 277.15 L 592.15 282.58 L 583.90 288.37 L 575.90 294.53 L 568.17 301.04 L 560.76 307.84 L 553.67 314.96 L 546.88 322.39 L 540.39 330.15 L 534.25 338.17 L 528.47 346.44 L 523.06 354.97 L 518.01 363.77 L 513.31 372.85 L 509.03 382.10 L 505.17 391.56 L 501.72 401.23 L 498.68 411.13 L 496.06 421.26 L 493.91 431.45 L 492.23 441.80 L 491.01 452.33 L 490.27 463.06 L 490.00 474.00 Z" fill="url(#linearGradient-5)" fill-rule="evenodd" group-id="1,9" id="Shape" node-id="100" stroke="none" target-height="230" target-width="458.7" target-x="490" target-y="244"></path><path d="M 276.00 923.00 L 276.23 917.52 L 276.87 912.23 L 277.92 907.11 L 279.36 902.14 L 281.21 897.28 L 283.38 892.65 L 285.89 888.23 L 288.73 884.02 L 291.90 880.03 L 295.33 876.33 L 299.03 872.90 L 303.02 869.73 L 307.23 866.89 L 311.65 864.38 L 316.28 862.21 L 321.14 860.36 L 326.11 858.92 L 331.23 857.87 L 336.52 857.23 L 342.00 857.00 L 1055.00 857.00 L 1054.77 862.48 L 1054.13 867.77 L 1053.08 872.89 L 1051.64 877.86 L 1049.79 882.72 L 1047.62 887.35 L 1045.11 891.77 L 1042.27 895.98 L 1039.10 899.97 L 1035.67 903.67 L 1031.97 907.10 L 1027.98 910.27 L 1023.77 913.11 L 1019.35 915.62 L 1014.72 917.79 L 1009.86 919.64 L 1004.89 921.08 L 999.77 922.13 L 994.48 922.77 L 989.00 923.00 L 276.00 923.00 Z" fill="url(#linearGradient-6)" fill-rule="evenodd" group-id="1" id="Shape" node-id="101" stroke="none" target-height="66" target-width="779" target-x="276" target-y="857"></path></g><g node-id="321"><path d="M 732.00 405.00 L 1119.00 405.00 L 1121.92 405.27 L 1124.60 406.00 L 1127.08 407.18 L 1129.32 408.77 L 1131.23 410.68 L 1132.82 412.92 L 1134.00 415.40 L 1134.73 418.08 L 1135.00 421.00 L 1135.00 906.54 L 1134.73 909.46 L 1134.00 912.14 L 1132.82 914.62 L 1131.23 916.86 L 1129.32 918.77 L 1127.08 920.36 L 1124.60 921.54 L 1121.92 922.27 L 1119.00 922.54 L 732.00 922.54 L 729.08 922.27 L 726.40 921.54 L 723.92 920.36 L 721.68 918.77 L 719.77 916.86 L 718.18 914.62 L 717.00 912.14 L 716.27 909.46 L 716.00 906.54 L 716.00 421.00 L 716.27 418.08 L 717.00 415.40 L 718.18 412.92 L 719.77 410.68 L 721.68 408.77 L 723.92 407.18 L 726.40 406.00 L 729.08 405.27 L 732.00 405.00 Z" fill="url(#linearGradient-7)" fill-rule="evenodd" group-id="2" id="Shape" node-id="103" stroke="none" target-height="517.54" target-width="419" target-x="716" target-y="405"></path><path d="M 755.18 445.03 L 903.11 445.03 L 903.11 467.45 L 755.18 467.45 L 755.18 445.03 Z M 755.18 500.27 L 1095.02 500.27 L 1095.02 522.69 L 755.18 522.69 L 755.18 500.27 Z M 755.18 547.51 L 1039.05 547.51 L 1039.05 569.93 L 755.18 569.93 L 755.18 547.51 Z M 755.18 595.55 L 1095.02 595.55 L 1095.02 617.96 L 755.18 617.96 L 755.18 595.55 Z M 755.18 642.78 L 967.08 642.78 L 967.08 665.20 L 755.18 665.20 L 755.18 642.78 Z M 755.18 690.02 L 1095.02 690.02 L 1095.02 712.44 L 755.18 712.44 L 755.18 690.02 Z M 755.18 737.26 L 1071.03 737.26 L 1071.03 759.67 L 755.18 759.67 L 755.18 737.26 Z M 755.18 784.49 L 1095.02 784.49 L 1095.02 806.91 L 755.18 806.91 L 755.18 784.49 Z M 755.18 831.73 L 1039.05 831.73 L 1039.05 854.15 L 755.18 854.15 L 755.18 831.73 Z" fill="url(#linearGradient-8)" fill-rule="evenodd" group-id="2" id="Shape" node-id="104" stroke="none" target-height="409.12003" target-width="339.84003" target-x="755.18" target-y="445.03"></path></g><g node-id="322"><path d="M 1089.36 531.17 L 1086.12 506.88 L 1106.96 505.60 L 1110.43 531.17 Z" fill="#f4b696" fill-rule="evenodd" group-id="3" id="Shape" node-id="106" stroke="none" target-height="25.569977" target-width="24.310059" target-x="1086.12" target-y="505.6"></path><path d="M 1087.25 527.52 L 1109.91 525.94 L 1124.60 529.72 L 1131.44 531.63 L 1133.42 532.40 L 1135.08 533.38 L 1136.47 534.54 L 1137.53 535.96 L 1138.30 537.88 L 1138.74 540.42 L 1138.59 541.92 L 1138.03 543.13 L 1137.11 544.00 L 1135.95 544.37 L 1093.45 547.34 L 1092.13 547.25 L 1090.99 546.86 L 1089.96 546.18 L 1089.14 545.26 L 1088.60 544.18 L 1088.32 542.89 L 1087.56 532.00 L 1087.25 527.52 Z" fill="#211d41" fill-rule="evenodd" group-id="3" id="Shape" node-id="107" stroke="none" target-height="21.400024" target-width="51.48999" target-x="1087.25" target-y="525.94"></path><path d="M 1070.69 452.93 L 1052.12 393.61 L 885.96 350.77 L 965.31 324.70 L 1081.84 342.57 L 1085.96 343.54 L 1089.72 345.05 L 1093.18 347.11 L 1096.31 349.65 L 1098.98 352.58 L 1101.23 355.92 L 1102.95 359.56 L 1104.11 363.45 L 1104.70 367.64 L 1113.68 516.73 L 1084.48 519.77 L 1070.69 452.93 Z" fill="#211d41" fill-rule="evenodd" group-id="3" id="Shape" node-id="108" stroke="none" target-height="195.07" target-width="227.72003" target-x="885.96" target-y="324.7"></path><path d="M 1020.53 334.23 L 955.91 352.43 L 912.27 285.92 L 901.00 182.21 L 905.66 183.44 L 910.14 185.18 L 914.49 187.46 L 918.72 190.30 L 922.84 193.75 L 926.88 197.86 L 930.82 202.69 L 934.68 208.32 L 938.44 214.83 L 942.09 222.31 L 945.61 230.86 L 948.99 240.58 L 952.19 251.58 L 955.18 263.98 L 957.94 277.90 L 960.42 293.46 L 962.58 310.81 L 1020.53 334.23 Z" fill="#211d41" fill-rule="evenodd" group-id="3" id="Shape" node-id="109" stroke="none" target-height="170.21999" target-width="119.53003" target-x="901" target-y="182.21"></path><path d="M 1051.56 552.17 L 1048.12 527.88 L 1069.50 526.60 L 1072.34 552.17 Z" fill="#f4b696" fill-rule="evenodd" group-id="3" id="Shape" node-id="110" stroke="none" target-height="25.570007" target-width="24.21997" target-x="1048.12" target-y="526.6"></path><path d="M 1074.78 535.39 L 1046.86 538.40 L 1032.37 405.84 L 891.63 405.84 L 886.23 404.40 L 881.26 402.48 L 876.66 400.10 L 872.41 397.25 L 868.49 393.92 L 864.86 390.06 L 861.52 385.66 L 858.47 380.64 L 855.71 374.96 L 853.28 368.55 L 851.19 361.32 L 849.47 353.21 L 846.14 335.57 L 842.16 313.92 L 840.27 302.17 L 838.57 289.81 L 837.23 277.32 L 836.38 264.82 L 836.13 256.47 L 836.22 248.36 L 836.63 240.50 L 837.45 232.67 L 838.70 225.32 L 840.35 218.41 L 841.98 213.31 L 843.89 208.58 L 846.09 204.20 L 848.58 200.13 L 851.45 196.32 L 854.69 192.91 L 858.30 189.88 L 862.33 187.22 L 866.57 185.07 L 871.33 183.34 L 876.66 182.04 L 882.63 181.23 L 889.46 180.94 L 895.60 181.16 L 901.13 181.85 L 906.11 182.96 L 911.08 184.58 L 915.58 186.56 L 919.66 188.87 L 923.35 191.51 L 926.79 194.54 L 929.92 197.81 L 932.75 201.35 L 935.29 205.17 L 938.24 210.54 L 940.78 216.20 L 942.91 222.20 L 944.65 228.33 L 946.07 234.55 L 947.17 240.87 L 948.34 250.35 L 949.02 259.46 L 949.35 268.36 L 949.42 276.25 L 949.35 289.50 L 949.35 342.35 L 1052.88 361.62 L 1056.29 362.54 L 1059.40 363.90 L 1062.24 365.72 L 1064.78 367.93 L 1066.93 370.46 L 1068.71 373.32 L 1070.04 376.41 L 1070.89 379.69 L 1071.26 383.22 L 1074.78 535.39 Z" fill="url(#linearGradient-9)" fill-rule="evenodd" group-id="3" id="Shape" node-id="111" stroke="none" target-height="357.46002" target-width="238.65002" target-x="836.13" target-y="180.94"></path><path d="M 1075.94 535.98 L 1046.86 538.40 L 1032.37 405.84 L 891.63 405.84 L 886.23 404.40 L 881.26 402.48 L 876.66 400.10 L 872.41 397.25 L 868.49 393.92 L 864.86 390.06 L 861.52 385.66 L 858.47 380.64 L 855.71 374.96 L 853.28 368.55 L 851.19 361.32 L 849.47 353.21 L 884.30 350.10 L 919.66 346.49 L 955.57 342.35 L 1053.21 361.50 L 1056.57 362.44 L 1059.63 363.81 L 1062.43 365.62 L 1064.93 367.81 L 1067.05 370.31 L 1068.81 373.14 L 1070.14 376.19 L 1070.99 379.44 L 1071.37 382.91 L 1075.94 535.98 Z" fill="#312c74" fill-rule="evenodd" group-id="3" id="Shape" node-id="112" stroke="none" target-height="196.05002" target-width="226.46997" target-x="849.47" target-y="342.35"></path><path d="M 1060.64 528.57 L 1060.14 521.59 L 1061.13 521.52 L 1061.63 528.50 L 1060.64 528.57 Z M 1059.42 511.62 L 1058.92 504.64 L 1059.91 504.56 L 1060.42 511.55 L 1059.42 511.62 Z M 1058.20 494.66 L 1057.70 487.68 L 1058.69 487.61 L 1059.20 494.59 L 1058.20 494.66 Z M 1056.98 477.71 L 1056.48 470.72 L 1057.47 470.65 L 1057.98 477.63 L 1056.98 477.71 Z M 1055.76 460.75 L 1055.26 453.77 L 1056.25 453.70 L 1056.76 460.68 L 1055.76 460.75 Z M 1054.54 443.79 L 1054.04 436.81 L 1055.03 436.74 L 1055.54 443.72 L 1054.54 443.79 Z M 1053.32 426.84 L 1052.82 419.85 L 1053.81 419.78 L 1054.32 426.76 L 1053.32 426.84 Z M 1052.10 409.88 L 1051.60 402.90 L 1052.59 402.83 L 1053.10 409.81 L 1052.10 409.88 Z M 1050.88 392.92 L 1050.81 391.94 L 1050.45 390.04 L 1049.71 388.34 L 1048.59 386.80 L 1049.33 386.12 L 1050.58 387.84 L 1051.40 389.74 L 1051.81 391.87 L 1051.88 392.85 L 1050.88 392.92 Z M 1039.73 384.05 L 1032.73 384.05 L 1032.73 383.05 L 1039.73 383.05 L 1039.73 384.05 Z M 1022.73 384.05 L 1015.73 384.05 L 1015.73 383.05 L 1022.73 383.05 L 1022.73 384.05 Z M 1005.73 384.05 L 998.73 384.05 L 998.73 383.05 L 1005.73 383.05 L 1005.73 384.05 Z M 988.73 384.05 L 981.73 384.05 L 981.73 383.05 L 988.73 383.05 L 988.73 384.05 Z M 971.73 384.05 L 964.73 384.05 L 964.73 383.05 L 971.73 383.05 L 971.73 384.05 Z M 954.73 384.05 L 947.73 384.05 L 947.73 383.05 L 954.73 383.05 L 954.73 384.05 Z M 937.73 384.05 L 934.17 383.86 L 930.67 383.37 L 930.85 382.39 L 934.27 382.87 L 937.73 383.05 L 937.73 384.05 Z M 921.02 380.30 L 917.87 378.67 L 914.88 376.77 L 915.45 375.95 L 918.37 377.80 L 921.45 379.39 L 921.02 380.30 Z M 907.36 369.99 L 905.17 367.20 L 903.23 364.23 L 904.09 363.72 L 905.98 366.62 L 908.12 369.33 L 907.36 369.99 Z M 899.04 354.96 L 898.69 354.04 L 899.62 353.68 L 899.98 354.60 L 899.04 354.96 Z" fill="#a587ff" fill-rule="nonzero" group-id="3" id="Shape" node-id="113" stroke="none" target-height="174.89001" target-width="162.94" target-x="898.69" target-y="353.68"></path><path d="M 1049.25 548.52 L 1071.91 546.94 L 1086.60 550.72 L 1093.44 552.63 L 1095.42 553.40 L 1097.08 554.38 L 1098.47 555.54 L 1099.53 556.96 L 1100.30 558.88 L 1100.74 561.42 L 1100.59 562.92 L 1100.03 564.13 L 1099.11 565.00 L 1097.95 565.37 L 1055.45 568.34 L 1054.13 568.25 L 1052.99 567.86 L 1051.96 567.18 L 1051.14 566.26 L 1050.60 565.18 L 1050.32 563.89 L 1049.56 553.00 L 1049.25 548.52 Z" fill="#211d41" fill-rule="evenodd" group-id="3" id="Shape" node-id="114" stroke="none" target-height="21.400024" target-width="51.48999" target-x="1049.25" target-y="546.94"></path><path d="M 957.98 330.69 L 857.95 316.12 L 845.92 285.39 L 875.02 225.71 L 875.02 301.00 Z" fill="#211d41" fill-rule="evenodd" group-id="3" id="Shape" node-id="115" stroke="none" target-height="104.979996" target-width="112.06" target-x="845.92" target-y="225.71"></path><path d="M 1010.12 363.92 L 923.48 363.92 L 923.48 358.00 L 1010.12 346.19 L 1026.51 341.30 L 1072.47 341.30 L 1072.47 353.49 L 1071.23 359.17 Z" fill="url(#linearGradient-10)" fill-rule="evenodd" group-id="3" id="Shape" node-id="116" stroke="none" target-height="22.620026" target-width="148.98999" target-x="923.48" target-y="341.3"></path><path d="M 984.11 341.30 L 1072.47 341.30 L 1072.47 353.49 L 1012.13 358.00 L 923.48 358.00 Z" fill="#ffffff" fill-rule="evenodd" group-id="3" id="Shape" node-id="117" stroke="none" target-height="16.700012" target-width="148.98999" target-x="923.48" target-y="341.3"></path><path d="M 974.14 349.52 L 974.27 350.13 L 975.02 351.11 L 978.01 353.67 L 979.75 355.31 L 980.23 356.11 L 980.20 356.50 L 979.93 356.74 L 979.25 356.82 L 978.03 356.62 L 976.22 356.03 L 974.35 355.16 L 972.29 353.96 L 968.88 351.59 L 967.33 350.60 L 965.52 349.66 L 963.46 348.86 L 960.48 348.01 L 957.04 347.29 L 952.03 346.49 L 946.29 345.79 L 938.93 345.11 L 922.49 343.88 L 904.75 342.64 L 887.76 341.20 L 883.13 340.53 L 878.18 339.50 L 872.91 338.06 L 864.85 335.54 L 855.52 332.42 L 845.64 329.20 L 833.92 325.70 L 833.92 269.05 L 867.35 272.29 L 860.88 306.30 L 893.39 315.94 L 917.27 322.52 L 934.19 326.70 L 945.67 329.06 L 980.12 335.13 L 982.90 336.78 L 985.63 338.89 L 988.34 341.52 L 991.03 344.74 L 993.70 348.60 L 994.18 349.99 L 994.04 350.60 L 993.47 350.85 L 992.06 350.60 L 990.55 349.74 L 988.72 348.04 L 984.74 343.95 L 982.41 342.09 L 979.81 340.76 L 983.98 344.39 L 987.05 347.59 L 989.54 350.82 L 991.01 353.36 L 991.47 354.61 L 991.47 355.09 L 991.27 355.23 L 990.64 355.09 L 989.36 354.31 L 986.56 352.02 L 984.16 349.78 L 978.89 345.99 L 977.59 345.27 L 977.46 345.35 L 978.16 346.28 L 982.30 350.64 L 985.88 354.38 L 986.54 355.43 L 986.38 355.82 L 985.78 355.93 L 984.53 355.68 L 983.18 355.15 L 981.65 354.31 L 978.42 352.06 L 975.50 349.97 L 974.41 349.41 L 974.14 349.52 Z" fill="#f4b696" fill-rule="evenodd" group-id="3" id="Shape" node-id="118" stroke="none" target-height="87.77002" target-width="160.26001" target-x="833.92" target-y="269.05"></path><path d="M 1095.89 269.75 L 1072.47 353.49 L 1012.13 358.00 L 1037.35 264.34 Z" fill="url(#linearGradient-11)" fill-rule="evenodd" group-id="3" id="Shape" node-id="119" stroke="none" target-height="93.66" target-width="83.76001" target-x="1012.13" target-y="264.34"></path><path d="M 869.61 284.99 L 867.56 305.00 L 958.18 330.69 L 951.35 349.26 L 844.88 336.32 L 841.39 335.57 L 838.24 334.32 L 835.39 332.55 L 832.87 330.33 L 830.79 327.77 L 829.13 324.85 L 827.98 321.70 L 827.39 318.36 L 827.36 314.79 L 832.31 258.44 L 834.20 240.30 L 835.43 232.60 L 836.83 226.09 L 838.37 220.64 L 840.01 216.11 L 842.14 211.46 L 844.27 207.77 L 846.38 204.90 L 848.47 202.72 L 850.97 200.79 L 853.35 199.50 L 855.66 198.76 L 857.93 198.52 L 860.25 198.73 L 862.47 199.35 L 864.62 200.39 L 866.74 201.91 L 869.18 204.36 L 871.35 207.45 L 873.24 211.27 L 874.59 215.32 L 875.45 219.87 L 875.78 225.00 L 875.53 232.08 L 874.62 243.45 L 872.76 260.53 L 869.61 284.99 Z" fill="url(#linearGradient-12)" fill-rule="evenodd" group-id="3" id="Shape" node-id="120" stroke="none" target-height="150.74" target-width="130.82" target-x="827.36" target-y="198.52"></path><path d="M 877.17 150.09 L 880.47 142.34 L 883.66 136.12 L 886.73 131.20 L 889.69 127.39 L 892.53 124.53 L 895.29 122.46 L 897.98 121.07 L 900.64 120.26 L 903.32 120.00 L 906.85 120.26 L 909.88 121.00 L 912.50 122.18 L 914.77 123.79 L 916.73 125.87 L 918.41 128.48 L 919.79 131.70 L 920.84 135.66 L 926.96 149.00 L 927.14 149.78 L 927.01 150.53 L 926.62 151.18 L 925.97 151.65 L 925.43 151.81 L 920.84 152.48 L 920.60 157.32 L 919.91 162.23 L 918.72 167.22 L 917.83 169.33 L 916.42 171.19 L 914.41 172.85 L 911.68 174.31 L 908.05 175.52 L 903.32 176.43 L 902.91 183.22 L 905.77 184.80 L 908.02 186.43 L 909.76 188.08 L 911.05 189.76 L 912.37 192.32 L 913.02 194.79 L 913.07 197.23 L 912.59 199.64 L 911.64 201.86 L 910.20 203.92 L 908.38 205.67 L 906.22 207.07 L 903.66 208.13 L 900.95 208.69 L 897.98 208.71 L 894.67 208.15 L 891.23 206.95 L 888.33 205.41 L 885.90 203.54 L 883.89 201.33 L 882.26 198.73 L 881.01 195.70 L 880.16 192.17 L 879.75 188.04 L 879.85 183.21 L 879.85 160.33 L 877.17 150.09 Z" fill="#f4b696" fill-rule="evenodd" group-id="3" id="Shape" node-id="121" stroke="none" target-height="88.71001" target-width="49.97003" target-x="877.17" target-y="120"></path><path d="M 920.15 132.00 L 907.62 136.47 L 897.08 140.00 L 893.85 141.39 L 891.48 142.99 L 889.79 144.79 L 888.53 146.92 L 887.75 149.11 L 887.44 151.41 L 887.52 153.75 L 887.90 155.98 L 888.60 158.12 L 890.60 162.31 L 893.29 168.21 L 894.50 171.57 L 895.41 175.13 L 895.87 178.76 L 895.70 182.37 L 895.19 184.71 L 894.26 186.98 L 892.89 189.23 L 891.16 191.21 L 888.81 193.13 L 885.71 195.00 L 879.66 198.17 L 872.94 201.89 L 866.17 205.86 L 859.46 210.09 L 853.01 214.54 L 847.32 218.92 L 843.76 222.03 L 840.86 224.94 L 838.55 227.67 L 836.61 230.65 L 835.54 233.28 L 835.17 235.66 L 832.99 228.48 L 831.58 221.90 L 830.87 215.84 L 830.79 210.25 L 831.29 205.07 L 832.35 200.25 L 833.93 195.75 L 836.05 191.51 L 838.72 187.52 L 841.98 183.75 L 851.38 174.05 L 855.08 169.98 L 857.83 166.57 L 860.09 163.15 L 861.65 159.87 L 862.66 156.42 L 863.15 152.50 L 863.13 148.31 L 862.64 143.03 L 862.39 139.33 L 862.55 135.60 L 863.13 131.83 L 864.09 128.13 L 865.42 124.54 L 867.11 121.05 L 869.14 117.74 L 871.46 114.69 L 874.09 111.88 L 877.00 109.38 L 880.16 107.26 L 883.57 105.51 L 887.18 104.22 L 891.00 103.42 L 895.07 103.12 L 901.92 103.32 L 907.48 103.87 L 911.95 104.69 L 916.28 106.00 L 919.70 107.59 L 922.35 109.42 L 924.61 111.70 L 926.38 114.32 L 927.68 117.33 L 928.32 120.00 L 928.39 122.37 L 927.94 124.52 L 926.97 126.53 L 925.43 128.43 L 923.21 130.26 L 920.15 132.00 Z" fill="url(#linearGradient-13)" fill-rule="evenodd" group-id="3" id="Shape" node-id="122" stroke="none" target-height="132.54001" target-width="97.60004" target-x="830.79" target-y="103.12"></path></g><g node-id="323"><path d="M 194.00 97.00 L 662.00 97.00 L 663.83 97.17 L 665.50 97.63 L 667.05 98.37 L 668.45 99.36 L 669.64 100.55 L 670.63 101.95 L 671.37 103.50 L 671.83 105.17 L 672.00 107.00 L 672.00 505.00 L 671.83 506.83 L 671.37 508.50 L 670.63 510.05 L 669.64 511.45 L 668.45 512.64 L 667.05 513.63 L 665.50 514.37 L 663.83 514.83 L 662.00 515.00 L 194.00 515.00 L 192.17 514.83 L 190.50 514.37 L 188.95 513.63 L 187.55 512.64 L 186.36 511.45 L 185.37 510.05 L 184.63 508.50 L 184.17 506.83 L 184.00 505.00 L 184.00 107.00 L 184.17 105.17 L 184.63 103.50 L 185.37 101.95 L 186.36 100.55 L 187.55 99.36 L 188.95 98.37 L 190.50 97.63 L 192.17 97.17 L 194.00 97.00 Z" fill="url(#linearGradient-14)" fill-rule="evenodd" group-id="4" id="Shape" node-id="124" stroke="none" target-height="418" target-width="488" target-x="184" target-y="97"></path><path d="M 505.34 454.00 L 497.62 453.76 L 490.27 453.08 L 483.28 451.98 L 476.63 450.49 L 470.28 448.60 L 464.21 446.32 L 458.21 443.57 L 452.55 440.44 L 447.20 436.95 L 442.16 433.09 L 437.40 428.84 L 432.91 424.19 L 428.83 419.28 L 425.05 414.01 L 421.57 408.37 L 418.40 402.33 L 415.54 395.86 L 412.99 388.94 L 410.57 380.73 L 408.64 371.97 L 407.21 362.62 L 406.32 352.62 L 406.00 341.93 L 406.00 331.07 L 406.22 322.51 L 406.81 314.39 L 407.77 306.69 L 409.08 299.38 L 410.72 292.44 L 412.81 285.42 L 415.20 278.82 L 417.90 272.61 L 420.88 266.77 L 424.15 261.28 L 427.84 255.93 L 431.78 250.97 L 435.98 246.38 L 440.45 242.13 L 445.19 238.22 L 450.20 234.65 L 455.44 231.43 L 460.93 228.58 L 466.69 226.07 L 472.73 223.91 L 478.81 222.18 L 485.13 220.81 L 491.70 219.82 L 498.54 219.21 L 505.66 219.00 L 513.13 219.23 L 520.27 219.87 L 527.10 220.92 L 533.65 222.36 L 539.94 224.19 L 545.98 226.39 L 551.94 229.06 L 557.59 232.08 L 562.94 235.48 L 568.01 239.26 L 572.82 243.42 L 577.37 247.98 L 581.52 252.79 L 585.37 257.98 L 588.91 263.55 L 592.16 269.53 L 595.11 275.96 L 597.74 282.85 L 599.86 289.61 L 601.63 296.79 L 603.05 304.39 L 604.10 312.46 L 604.75 321.03 L 605.00 330.11 L 605.00 340.65 L 604.68 351.34 L 603.81 361.36 L 602.40 370.76 L 600.49 379.58 L 598.10 387.86 L 595.57 394.85 L 592.73 401.38 L 589.58 407.50 L 586.12 413.22 L 582.36 418.56 L 578.29 423.55 L 573.81 428.28 L 569.05 432.61 L 564.00 436.55 L 558.64 440.11 L 552.95 443.30 L 546.92 446.12 L 540.83 448.45 L 534.43 450.39 L 527.71 451.92 L 520.64 453.05 L 513.19 453.75 L 505.34 454.00 Z M 506.96 414.00 L 512.46 413.74 L 517.47 413.00 L 522.06 411.82 L 526.25 410.21 L 530.10 408.19 L 533.64 405.75 L 536.90 402.87 L 539.88 399.52 L 542.60 395.67 L 545.02 391.37 L 547.20 386.50 L 549.13 380.99 L 550.79 374.77 L 552.15 367.77 L 553.16 359.92 L 553.80 351.12 L 554.00 341.30 L 554.00 331.06 L 553.76 321.51 L 553.06 312.89 L 551.96 305.12 L 550.48 298.15 L 548.68 291.88 L 546.64 286.46 L 544.35 281.65 L 541.81 277.38 L 539.03 273.62 L 536.02 270.31 L 532.76 267.43 L 529.17 264.93 L 525.30 262.86 L 521.12 261.22 L 516.59 260.02 L 511.68 259.27 L 506.32 259.00 L 500.87 259.26 L 495.87 259.99 L 491.28 261.16 L 487.04 262.76 L 483.12 264.77 L 479.49 267.20 L 476.13 270.07 L 473.02 273.41 L 470.16 277.25 L 467.59 281.56 L 465.27 286.42 L 463.22 291.90 L 461.46 298.07 L 460.02 304.99 L 458.93 312.74 L 458.24 321.40 L 458.00 331.06 L 458.00 341.94 L 458.26 351.73 L 458.98 360.48 L 460.10 368.30 L 461.58 375.25 L 463.39 381.42 L 465.48 386.89 L 467.85 391.73 L 470.48 395.99 L 473.40 399.79 L 476.56 403.09 L 479.97 405.93 L 483.63 408.33 L 487.59 410.32 L 491.86 411.89 L 496.48 413.04 L 501.50 413.75 L 506.96 414.00 Z M 298.29 451.00 L 298.29 273.24 L 252.00 303.67 L 252.00 259.47 L 304.67 222.00 L 350.00 222.00 L 350.00 451.00 L 298.29 451.00 Z" fill="url(#linearGradient-15)" fill-rule="evenodd" group-id="4" id="Shape" node-id="125" stroke="none" target-height="235" target-width="353" target-x="252" target-y="219"></path><path d="M 194.00 97.00 L 662.00 97.00 L 663.83 97.17 L 665.50 97.63 L 667.05 98.37 L 668.45 99.36 L 669.64 100.55 L 670.63 101.95 L 671.37 103.50 L 671.83 105.17 L 672.00 107.00 L 672.00 175.00 L 184.00 175.00 L 184.00 107.00 L 184.17 105.17 L 184.63 103.50 L 185.37 101.95 L 186.36 100.55 L 187.55 99.36 L 188.95 98.37 L 190.50 97.63 L 192.17 97.17 L 194.00 97.00 Z" fill="url(#linearGradient-16)" fill-rule="evenodd" group-id="4" id="Shape" node-id="126" stroke="none" target-height="78" target-width="488" target-x="184" target-y="97"></path></g><g node-id="324"><path d="M 532.00 305.00 L 557.00 305.00 L 558.83 305.17 L 560.50 305.63 L 562.05 306.37 L 563.45 307.36 L 564.64 308.55 L 565.63 309.95 L 566.37 311.50 L 566.83 313.17 L 567.00 315.00 L 567.00 414.00 L 566.83 415.83 L 566.37 417.50 L 565.63 419.05 L 564.64 420.45 L 563.45 421.64 L 562.05 422.63 L 560.50 423.37 L 558.83 423.83 L 557.00 424.00 L 532.00 424.00 L 530.17 423.83 L 528.50 423.37 L 526.95 422.63 L 525.55 421.64 L 524.36 420.45 L 523.37 419.05 L 522.63 417.50 L 522.17 415.83 L 522.00 414.00 L 522.00 315.00 L 522.17 313.17 L 522.63 311.50 L 523.37 309.95 L 524.36 308.55 L 525.55 307.36 L 526.95 306.37 L 528.50 305.63 L 530.17 305.17 L 532.00 305.00 Z" fill="url(#linearGradient-17)" fill-rule="evenodd" group-id="5" id="Shape" node-id="128" stroke="none" target-height="119" target-width="45" target-x="522" target-y="305"></path><path d="M 519.50 305.00 L 571.50 305.00 L 574.15 305.25 L 576.57 305.91 L 578.82 306.98 L 580.85 308.42 L 582.58 310.15 L 584.02 312.18 L 585.09 314.43 L 585.75 316.85 L 586.00 319.50 L 585.75 322.15 L 585.09 324.57 L 584.02 326.82 L 582.58 328.85 L 580.85 330.58 L 578.82 332.02 L 576.57 333.09 L 574.15 333.75 L 571.50 334.00 L 519.50 334.00 L 516.85 333.75 L 514.43 333.09 L 512.18 332.02 L 510.15 330.58 L 508.42 328.85 L 506.98 326.82 L 505.91 324.57 L 505.25 322.15 L 505.00 319.50 L 505.25 316.85 L 505.91 314.43 L 506.98 312.18 L 508.42 310.15 L 510.15 308.42 L 512.18 306.98 L 514.43 305.91 L 516.85 305.25 L 519.50 305.00 Z" fill="url(#linearGradient-18)" fill-rule="evenodd" group-id="5" id="Shape" node-id="129" stroke="none" target-height="29" target-width="81" target-x="505" target-y="305"></path><path d="M 824.00 644.50 L 823.68 657.74 L 822.77 670.74 L 821.30 683.49 L 819.25 696.03 L 816.64 708.36 L 813.46 720.63 L 809.77 732.62 L 805.58 744.33 L 800.89 755.78 L 795.69 766.98 L 789.99 777.97 L 783.85 788.62 L 777.28 798.96 L 770.27 808.97 L 762.82 818.69 L 754.94 828.08 L 746.69 837.07 L 738.07 845.69 L 729.08 853.94 L 719.69 861.82 L 709.97 869.27 L 699.96 876.28 L 689.62 882.85 L 678.97 888.99 L 667.98 894.69 L 656.78 899.89 L 645.33 904.58 L 633.62 908.77 L 621.63 912.46 L 609.36 915.64 L 597.03 918.25 L 584.49 920.30 L 571.74 921.77 L 558.74 922.68 L 545.50 923.00 L 532.26 922.68 L 519.26 921.77 L 506.51 920.30 L 493.97 918.25 L 481.64 915.64 L 469.37 912.46 L 457.38 908.77 L 445.67 904.58 L 434.22 899.89 L 423.02 894.69 L 412.03 888.99 L 401.38 882.85 L 391.04 876.28 L 381.03 869.27 L 371.31 861.82 L 361.92 853.94 L 352.93 845.69 L 344.31 837.07 L 336.06 828.08 L 328.18 818.69 L 320.73 808.97 L 313.72 798.96 L 307.15 788.62 L 301.01 777.97 L 295.31 766.98 L 290.11 755.78 L 285.42 744.33 L 281.23 732.62 L 277.54 720.63 L 274.36 708.36 L 271.75 696.03 L 269.70 683.49 L 268.23 670.74 L 267.32 657.74 L 267.00 644.50 L 267.32 631.26 L 268.23 618.26 L 269.70 605.51 L 271.75 592.97 L 274.36 580.64 L 277.54 568.37 L 281.23 556.38 L 285.42 544.67 L 290.11 533.22 L 295.31 522.02 L 301.01 511.03 L 307.15 500.38 L 313.72 490.04 L 320.73 480.03 L 328.18 470.31 L 336.06 460.92 L 344.31 451.93 L 352.93 443.31 L 361.92 435.06 L 371.31 427.18 L 381.03 419.73 L 391.04 412.72 L 401.38 406.15 L 412.03 400.01 L 423.02 394.31 L 434.22 389.11 L 445.67 384.42 L 457.38 380.23 L 469.37 376.54 L 481.64 373.36 L 493.97 370.75 L 506.51 368.70 L 519.26 367.23 L 532.26 366.32 L 545.50 366.00 L 558.74 366.32 L 571.74 367.23 L 584.49 368.70 L 597.03 370.75 L 609.36 373.36 L 621.63 376.54 L 633.62 380.23 L 645.33 384.42 L 656.78 389.11 L 667.98 394.31 L 678.97 400.01 L 689.62 406.15 L 699.96 412.72 L 709.97 419.73 L 719.69 427.18 L 729.08 435.06 L 738.07 443.31 L 746.69 451.93 L 754.94 460.92 L 762.82 470.31 L 770.27 480.03 L 777.28 490.04 L 783.85 500.38 L 789.99 511.03 L 795.69 522.02 L 800.89 533.22 L 805.58 544.67 L 809.77 556.38 L 813.46 568.37 L 816.64 580.64 L 819.25 592.97 L 821.30 605.51 L 822.77 618.26 L 823.68 631.26 L 824.00 644.50 Z" fill="url(#linearGradient-19)" fill-rule="evenodd" group-id="5" id="Shape" node-id="130" stroke="none" target-height="557" target-width="557" target-x="267" target-y="366"></path><path d="M 772.78 645.30 L 772.52 656.07 L 771.79 666.64 L 770.58 677.01 L 768.92 687.20 L 766.80 697.23 L 764.21 707.21 L 761.21 716.96 L 757.80 726.48 L 753.99 735.79 L 749.76 744.90 L 745.12 753.84 L 740.13 762.51 L 734.79 770.91 L 729.09 779.05 L 723.03 786.95 L 716.62 794.59 L 709.91 801.90 L 702.90 808.91 L 695.59 815.62 L 687.95 822.03 L 680.05 828.09 L 671.91 833.79 L 663.50 839.13 L 654.84 844.12 L 645.90 848.76 L 636.79 852.99 L 627.48 856.80 L 617.96 860.21 L 608.21 863.21 L 598.23 865.80 L 588.20 867.92 L 578.01 869.58 L 567.64 870.79 L 557.07 871.52 L 546.30 871.78 L 535.53 871.52 L 524.97 870.79 L 514.59 869.58 L 504.40 867.92 L 494.37 865.80 L 484.39 863.21 L 474.64 860.21 L 465.12 856.80 L 455.81 852.99 L 446.70 848.76 L 437.76 844.12 L 429.10 839.13 L 420.69 833.79 L 412.55 828.09 L 404.65 822.03 L 397.01 815.62 L 389.70 808.91 L 382.69 801.90 L 375.98 794.59 L 369.57 786.95 L 363.51 779.05 L 357.81 770.91 L 352.47 762.50 L 347.48 753.84 L 342.84 744.90 L 338.61 735.79 L 334.80 726.48 L 331.39 716.96 L 328.39 707.21 L 325.80 697.23 L 323.68 687.20 L 322.02 677.01 L 320.82 666.64 L 320.08 656.07 L 319.82 645.30 L 320.08 634.53 L 320.82 623.97 L 322.02 613.59 L 323.68 603.40 L 325.80 593.37 L 328.39 583.39 L 331.39 573.64 L 334.80 564.12 L 338.61 554.81 L 342.84 545.70 L 347.48 536.76 L 352.47 528.10 L 357.81 519.69 L 363.51 511.55 L 369.57 503.65 L 375.98 496.01 L 382.69 488.70 L 389.70 481.69 L 397.01 474.98 L 404.65 468.57 L 412.55 462.51 L 420.69 456.81 L 429.10 451.47 L 437.76 446.48 L 446.70 441.84 L 455.81 437.61 L 465.12 433.80 L 474.64 430.39 L 484.39 427.39 L 494.37 424.80 L 504.40 422.68 L 514.59 421.02 L 524.97 419.82 L 535.53 419.08 L 546.30 418.82 L 557.07 419.08 L 567.64 419.82 L 578.01 421.02 L 588.20 422.68 L 598.23 424.80 L 608.21 427.39 L 617.96 430.39 L 627.48 433.80 L 636.79 437.61 L 645.90 441.84 L 654.84 446.48 L 663.51 451.47 L 671.91 456.81 L 680.05 462.51 L 687.95 468.57 L 695.59 474.98 L 702.90 481.69 L 709.91 488.70 L 716.62 496.01 L 723.03 503.65 L 729.09 511.55 L 734.79 519.69 L 740.13 528.10 L 745.12 536.76 L 749.76 545.70 L 753.99 554.81 L 757.80 564.12 L 761.21 573.64 L 764.21 583.39 L 766.80 593.37 L 768.92 603.40 L 770.58 613.59 L 771.79 623.97 L 772.52 634.53 L 772.78 645.30 Z" fill="url(#linearGradient-20)" fill-rule="evenodd" group-id="5" id="Shape" node-id="131" stroke="none" target-height="452.96002" target-width="452.96002" target-x="319.82" target-y="418.82"></path><path d="M 544.55 871.77 L 533.43 870.21 L 522.57 868.14 L 511.95 865.57 L 501.55 862.49 L 491.37 858.92 L 481.33 854.83 L 471.58 850.32 L 462.13 845.37 L 452.95 839.99 L 444.03 834.17 L 435.39 827.91 L 427.10 821.30 L 419.15 814.32 L 411.53 806.96 L 404.24 799.23 L 397.33 791.16 L 390.83 782.79 L 384.72 774.11 L 379.02 765.12 L 373.71 755.80 L 368.86 746.27 L 364.48 736.50 L 360.57 726.47 L 357.12 716.18 L 354.13 705.61 L 351.69 694.97 L 349.77 684.15 L 348.38 673.11 L 347.53 661.85 L 347.23 650.35 L 347.49 639.75 L 348.21 629.35 L 349.39 619.15 L 351.03 609.11 L 353.11 599.25 L 355.66 589.42 L 358.62 579.83 L 361.97 570.46 L 365.72 561.30 L 369.88 552.33 L 374.45 543.54 L 379.36 535.01 L 384.61 526.74 L 390.22 518.73 L 396.19 510.95 L 402.50 503.44 L 409.10 496.24 L 415.99 489.34 L 423.19 482.74 L 430.71 476.44 L 438.48 470.47 L 446.50 464.86 L 454.76 459.60 L 463.29 454.69 L 472.09 450.13 L 481.05 445.97 L 490.21 442.22 L 499.58 438.86 L 509.18 435.91 L 519.00 433.36 L 528.87 431.27 L 538.90 429.64 L 549.11 428.45 L 559.50 427.73 L 570.10 427.47 L 581.71 427.77 L 593.10 428.64 L 604.28 430.08 L 615.37 432.08 L 626.21 434.59 L 636.82 437.63 L 646.35 442.06 L 655.59 446.89 L 664.55 452.10 L 673.25 457.71 L 681.69 463.72 L 689.86 470.12 L 697.69 476.85 L 705.19 483.91 L 712.38 491.31 L 719.25 499.07 L 725.76 507.12 L 731.88 515.44 L 737.62 524.04 L 742.98 532.93 L 747.97 542.13 L 752.52 551.51 L 756.62 561.12 L 760.29 570.96 L 763.53 581.04 L 766.32 591.38 L 768.61 601.78 L 770.41 612.35 L 771.70 623.12 L 772.50 634.10 L 772.78 645.30 L 772.52 656.07 L 771.79 666.64 L 770.58 677.01 L 768.92 687.20 L 766.80 697.23 L 764.21 707.21 L 761.21 716.96 L 757.80 726.48 L 753.99 735.79 L 749.76 744.90 L 745.12 753.84 L 740.13 762.51 L 734.79 770.91 L 729.09 779.05 L 723.03 786.95 L 716.62 794.59 L 709.91 801.90 L 702.90 808.91 L 695.59 815.62 L 687.95 822.03 L 680.05 828.09 L 671.91 833.79 L 663.50 839.13 L 654.84 844.12 L 645.90 848.76 L 636.79 852.99 L 627.48 856.80 L 617.96 860.21 L 608.21 863.21 L 598.23 865.80 L 588.20 867.92 L 578.01 869.58 L 567.64 870.79 L 557.07 871.52 L 546.30 871.78 L 544.55 871.77 L 544.55 871.77 Z" fill="#ffffff" fill-rule="evenodd" group-id="5" id="Shape" node-id="132" stroke="none" target-height="444.31003" target-width="425.55002" target-x="347.23" target-y="427.47"></path><path d="M 647.05 550.79 L 649.16 548.76 L 651.47 547.21 L 653.99 546.12 L 656.66 545.46 L 659.35 545.27 L 662.08 545.54 L 664.73 546.27 L 667.23 547.48 L 669.62 549.18 L 671.64 551.30 L 673.19 553.61 L 674.28 556.13 L 674.94 558.80 L 675.13 561.48 L 674.86 564.22 L 674.13 566.87 L 672.93 569.37 L 671.22 571.75 L 556.09 704.48 L 554.26 706.27 L 552.28 707.70 L 550.12 708.79 L 547.81 709.54 L 545.46 709.93 L 543.03 709.97 L 540.63 709.65 L 538.29 708.94 L 535.98 707.85 L 478.98 674.85 L 476.59 673.15 L 474.64 671.18 L 473.09 668.91 L 471.94 666.41 L 471.25 663.81 L 471.00 661.07 L 471.22 658.33 L 471.93 655.65 L 473.15 652.98 L 474.85 650.59 L 476.82 648.64 L 479.09 647.09 L 481.59 645.94 L 484.19 645.25 L 486.93 645.00 L 489.67 645.22 L 492.35 645.93 L 495.02 647.15 L 540.58 673.53 L 647.05 550.79 Z M 549.50 434.00 L 549.50 452.00 L 549.27 453.60 L 548.74 454.82 L 547.94 455.75 L 546.89 456.45 L 545.76 456.86 L 544.50 457.00 L 543.24 456.86 L 542.11 456.45 L 541.06 455.75 L 540.26 454.82 L 539.73 453.60 L 539.50 452.00 L 539.50 434.00 L 539.73 432.40 L 540.26 431.18 L 541.06 430.25 L 542.11 429.55 L 543.24 429.14 L 544.50 429.00 L 545.76 429.14 L 546.89 429.55 L 547.94 430.25 L 548.74 431.18 L 549.27 432.40 L 549.50 434.00 Z M 549.50 839.00 L 549.50 857.00 L 549.27 858.60 L 548.74 859.82 L 547.94 860.75 L 546.89 861.45 L 545.76 861.86 L 544.50 862.00 L 543.24 861.86 L 542.11 861.45 L 541.06 860.75 L 540.26 859.82 L 539.73 858.60 L 539.50 857.00 L 539.50 839.00 L 539.73 837.40 L 540.26 836.18 L 541.06 835.25 L 542.11 834.55 L 543.24 834.14 L 544.50 834.00 L 545.76 834.14 L 546.89 834.55 L 547.94 835.25 L 548.74 836.18 L 549.27 837.40 L 549.50 839.00 Z M 333.00 640.50 L 351.00 640.50 L 352.60 640.73 L 353.82 641.26 L 354.75 642.06 L 355.45 643.11 L 355.86 644.24 L 356.00 645.50 L 355.86 646.76 L 355.45 647.89 L 354.75 648.94 L 353.82 649.74 L 352.60 650.27 L 351.00 650.50 L 333.00 650.50 L 331.40 650.27 L 330.18 649.74 L 329.25 648.94 L 328.55 647.89 L 328.14 646.76 L 328.00 645.50 L 328.14 644.24 L 328.55 643.11 L 329.25 642.06 L 330.18 641.26 L 331.40 640.73 L 333.00 640.50 Z M 738.00 640.50 L 756.00 640.50 L 757.60 640.73 L 758.82 641.26 L 759.75 642.06 L 760.45 643.11 L 760.86 644.24 L 761.00 645.50 L 760.86 646.76 L 760.45 647.89 L 759.75 648.94 L 758.82 649.74 L 757.60 650.27 L 756.00 650.50 L 738.00 650.50 L 736.40 650.27 L 735.18 649.74 L 734.25 648.94 L 733.55 647.89 L 733.14 646.76 L 733.00 645.50 L 733.14 644.24 L 733.55 643.11 L 734.25 642.06 L 735.18 641.26 L 736.40 640.73 L 738.00 640.50 Z M 391.41 791.52 L 404.14 778.79 L 405.43 777.82 L 406.67 777.33 L 407.90 777.24 L 409.13 777.49 L 410.22 778.00 L 411.21 778.79 L 412.00 779.78 L 412.51 780.87 L 412.76 782.10 L 412.67 783.33 L 412.18 784.57 L 411.21 785.86 L 398.48 798.59 L 397.19 799.56 L 395.95 800.05 L 394.73 800.14 L 393.49 799.89 L 392.40 799.38 L 391.41 798.59 L 390.62 797.60 L 390.11 796.51 L 389.86 795.27 L 389.95 794.05 L 390.44 792.81 L 391.41 791.52 Z M 677.79 505.14 L 690.52 492.41 L 691.81 491.44 L 693.05 490.95 L 694.27 490.86 L 695.51 491.11 L 696.60 491.62 L 697.59 492.41 L 698.38 493.40 L 698.89 494.49 L 699.14 495.73 L 699.05 496.95 L 698.56 498.19 L 697.59 499.48 L 684.86 512.21 L 683.57 513.18 L 682.33 513.67 L 681.10 513.76 L 679.87 513.51 L 678.78 513.00 L 677.79 512.21 L 677.00 511.22 L 676.49 510.13 L 676.24 508.90 L 676.33 507.67 L 676.82 506.43 L 677.79 505.14 Z M 690.52 798.59 L 677.79 785.86 L 676.82 784.57 L 676.33 783.33 L 676.24 782.10 L 676.49 780.87 L 677.00 779.78 L 677.79 778.79 L 678.78 778.00 L 679.87 777.49 L 681.10 777.24 L 682.33 777.33 L 683.57 777.82 L 684.86 778.79 L 697.59 791.52 L 698.56 792.81 L 699.05 794.05 L 699.14 795.27 L 698.89 796.51 L 698.38 797.60 L 697.59 798.59 L 696.60 799.38 L 695.51 799.89 L 694.27 800.14 L 693.05 800.05 L 691.81 799.56 L 690.52 798.59 Z M 404.14 512.21 L 391.41 499.48 L 390.44 498.19 L 389.95 496.95 L 389.86 495.73 L 390.11 494.49 L 390.62 493.40 L 391.41 492.41 L 392.40 491.62 L 393.49 491.11 L 394.73 490.86 L 395.95 490.95 L 397.19 491.44 L 398.48 492.41 L 411.21 505.14 L 412.18 506.43 L 412.67 507.67 L 412.76 508.90 L 412.51 510.13 L 412.00 511.22 L 411.21 512.21 L 410.22 513.00 L 409.13 513.51 L 407.90 513.76 L 406.67 513.67 L 405.43 513.18 L 404.14 512.21 Z" fill="url(#linearGradient-21)" fill-rule="evenodd" group-id="5" id="Shape" node-id="133" stroke="none" target-height="433" target-width="433" target-x="328" target-y="429"></path></g><g node-id="325"><path d="M 293.11 493.00 L 303.96 515.22 L 305.51 519.06 L 306.51 522.94 L 306.96 526.90 L 306.89 530.88 L 306.31 534.77 L 305.21 538.60 L 303.61 542.25 L 301.52 545.66 L 298.91 548.88 L 271.44 578.24 L 256.91 562.83 L 281.00 534.78 L 270.14 515.00 L 293.11 493.00 Z" fill="#f4b696" fill-rule="evenodd" group-id="6" id="Shape" node-id="135" stroke="none" target-height="85.23999" target-width="50.049988" target-x="256.91" target-y="493"></path><path d="M 241.65 435.00 L 274.48 450.21 L 303.00 506.65 L 276.28 530.00 L 241.65 488.95 Z" fill="url(#linearGradient-22)" fill-rule="evenodd" group-id="6" id="Shape" node-id="136" stroke="none" target-height="95" target-width="61.350006" target-x="241.65" target-y="435"></path><path d="M 273.00 883.00 L 276.00 904.61 L 254.37 904.61 L 251.37 883.00 Z" fill="#f4b696" fill-rule="evenodd" group-id="6" id="Shape" node-id="137" stroke="none" target-height="21.609985" target-width="24.630005" target-x="251.37" target-y="883"></path><path d="M 191.87 881.37 L 191.87 902.99 L 170.24 902.99 L 170.24 881.37 Z" fill="#f4b696" fill-rule="evenodd" group-id="6" id="Shape" node-id="138" stroke="none" target-height="21.619995" target-width="21.62999" target-x="170.24" target-y="881.37"></path><path d="M 250.02 894.51 L 212.02 770.60 L 199.85 607.08 L 270.70 605.33 L 258.78 764.75 L 278.15 894.51 Z" fill="#121958" fill-rule="evenodd" group-id="6" id="Shape" node-id="139" stroke="none" target-height="289.18" target-width="78.29999" target-x="199.85" target-y="605.33"></path><path d="M 165.82 894.18 L 165.82 737.63 L 174.89 607.27 L 270.77 605.69 L 216.04 758.17 L 195.57 894.18 Z" fill="url(#linearGradient-23)" fill-rule="evenodd" group-id="6" id="Shape" node-id="140" stroke="none" target-height="288.49" target-width="104.94998" target-x="165.82" target-y="605.69"></path><path d="M 193.07 900.59 L 193.07 915.99 L 192.89 917.30 L 192.42 918.41 L 191.66 919.39 L 190.69 920.14 L 189.57 920.61 L 188.27 920.79 L 145.66 920.79 L 144.48 920.50 L 143.50 919.70 L 142.85 918.53 L 142.60 917.05 L 142.86 914.48 L 143.50 912.51 L 144.46 911.02 L 145.76 909.76 L 147.35 908.68 L 149.28 907.77 L 155.96 905.39 L 170.35 900.59 L 193.07 900.59 Z" fill="#211d41" fill-rule="evenodd" group-id="6" id="Shape" node-id="141" stroke="none" target-height="20.199951" target-width="50.47" target-x="142.6" target-y="900.59"></path><path d="M 277.00 903.00 L 277.00 918.41 L 276.82 919.71 L 276.35 920.83 L 275.59 921.80 L 274.62 922.56 L 273.50 923.02 L 272.20 923.21 L 229.59 923.21 L 228.41 922.92 L 227.43 922.11 L 226.78 920.95 L 226.53 919.46 L 226.79 916.89 L 227.43 914.93 L 228.39 913.44 L 229.69 912.18 L 231.28 911.09 L 233.21 910.18 L 239.89 907.80 L 254.28 903.00 L 277.00 903.00 Z" fill="#211d41" fill-rule="evenodd" group-id="6" id="Shape" node-id="142" stroke="none" target-height="20.210022" target-width="50.47" target-x="226.53" target-y="903"></path><path d="M 217.72 439.84 L 214.53 433.53 L 211.75 429.11 L 209.32 426.16 L 207.21 424.33 L 205.33 423.35 L 203.62 423.02 L 198.01 422.73 L 195.77 422.19 L 194.02 421.20 L 193.12 420.25 L 192.34 418.87 L 191.68 416.95 L 190.80 414.12 L 189.91 412.29 L 188.79 410.84 L 187.66 409.99 L 186.38 409.47 L 184.99 409.25 L 183.57 408.90 L 182.31 408.07 L 181.70 407.29 L 181.37 406.25 L 181.34 404.88 L 181.67 403.52 L 182.53 401.75 L 184.14 399.45 L 185.49 397.32 L 186.43 394.74 L 186.93 391.59 L 186.89 387.75 L 186.21 383.06 L 184.73 377.36 L 190.73 372.81 L 196.11 369.34 L 200.92 366.81 L 205.23 365.09 L 209.12 364.07 L 212.64 363.65 L 215.86 363.76 L 218.84 364.37 L 221.61 365.46 L 224.24 367.06 L 226.74 369.20 L 229.13 371.97 L 231.42 375.46 L 234.98 382.16 L 237.76 388.40 L 239.83 394.22 L 241.26 399.66 L 242.10 404.77 L 242.41 409.57 L 242.21 414.12 L 241.54 418.43 L 248.00 435.80 L 217.72 439.84 Z" fill="#f4b696" fill-rule="evenodd" group-id="6" id="Shape" node-id="143" stroke="none" target-height="76.19" target-width="66.66" target-x="181.34" target-y="363.65"></path><path d="M 241.83 418.06 L 236.52 419.66 L 232.74 420.33 L 230.12 420.34 L 228.36 419.90 L 227.19 419.14 L 225.74 417.44 L 224.34 415.31 L 223.12 413.04 L 222.16 410.91 L 221.40 408.89 L 221.06 407.62 L 221.10 406.67 L 221.52 406.06 L 222.22 405.63 L 223.16 405.29 L 225.12 404.71 L 225.92 404.07 L 226.62 402.78 L 226.96 401.22 L 226.90 399.47 L 226.58 398.35 L 226.00 397.34 L 225.12 396.43 L 223.56 395.51 L 222.28 395.19 L 221.04 395.24 L 220.03 395.56 L 219.15 396.07 L 218.53 396.59 L 217.85 396.97 L 216.80 397.03 L 215.71 396.68 L 214.52 395.73 L 213.62 394.30 L 212.91 391.88 L 212.29 386.68 L 211.94 384.41 L 211.44 382.94 L 210.92 382.27 L 210.21 382.02 L 209.19 382.19 L 205.49 383.24 L 202.74 383.77 L 199.35 384.18 L 195.82 384.29 L 192.18 383.99 L 189.79 383.51 L 187.55 382.73 L 185.43 381.67 L 183.55 380.28 L 181.91 378.48 L 180.53 376.20 L 179.21 372.97 L 178.42 370.06 L 178.07 367.42 L 178.12 365.01 L 178.60 362.61 L 179.48 360.57 L 180.75 358.82 L 182.46 357.33 L 184.40 356.25 L 186.79 355.49 L 189.72 355.11 L 193.30 355.16 L 198.30 355.49 L 202.12 355.55 L 205.65 355.39 L 208.58 355.08 L 214.22 354.12 L 220.60 353.03 L 224.24 352.56 L 227.85 352.32 L 231.43 352.48 L 234.95 353.22 L 237.19 354.09 L 239.44 355.39 L 241.72 357.17 L 243.73 359.25 L 245.81 362.02 L 247.95 365.61 L 250.26 370.67 L 251.73 375.13 L 252.47 379.08 L 252.68 383.10 L 252.41 386.75 L 251.68 390.09 L 250.57 393.34 L 249.21 396.39 L 247.63 399.24 L 245.99 402.25 L 245.10 404.34 L 244.57 406.24 L 244.43 407.59 L 244.74 409.93 L 245.13 412.25 L 245.01 413.89 L 244.45 415.37 L 243.42 416.75 L 241.83 418.06 Z" fill="url(#linearGradient-24)" fill-rule="evenodd" group-id="6" id="Shape" node-id="144" stroke="none" target-height="68.01999" target-width="74.609985" target-x="178.07" target-y="352.32"></path><path d="M 100.54 509.04 L 43.56 485.80 L 65.86 470.00 L 128.00 491.04 Z" fill="url(#linearGradient-25)" fill-rule="evenodd" group-id="6" id="Shape" node-id="145" stroke="none" target-height="39.04001" target-width="84.44" target-x="43.56" target-y="470"></path><path d="M 230.80 433.50 L 234.43 432.39 L 238.01 431.66 L 241.57 431.30 L 245.11 431.31 L 249.82 431.85 L 254.33 432.96 L 258.68 434.65 L 262.79 436.88 L 266.55 439.60 L 270.01 442.85 L 272.31 445.55 L 274.33 448.50 L 276.09 451.70 L 277.58 455.18 L 278.70 458.82 L 279.43 462.50 L 279.78 466.23 L 279.74 470.04 L 270.14 621.00 L 174.82 607.46 L 187.12 488.67 L 188.07 481.87 L 189.51 475.59 L 191.42 469.77 L 193.79 464.37 L 196.62 459.37 L 199.90 454.72 L 203.67 450.40 L 207.93 446.41 L 212.73 442.72 L 218.11 439.33 L 224.12 436.25 L 230.80 433.50 Z" fill="url(#linearGradient-26)" fill-rule="evenodd" group-id="6" id="Shape" node-id="146" stroke="none" target-height="189.70001" target-width="104.95999" target-x="174.82" target-y="431.3"></path><path d="M 246.56 505.16 L 222.38 539.38 L 178.19 566.85 L 180.31 538.51 Z" fill="#221e41" fill-rule="evenodd" group-id="6" id="Shape" node-id="147" stroke="none" target-height="61.689972" target-width="68.369995" target-x="178.19" target-y="505.16"></path><path d="M 218.73 484.14 L 233.38 517.06 L 224.75 525.50 L 216.90 532.50 L 209.77 538.22 L 203.30 542.82 L 197.43 546.41 L 192.11 549.13 L 187.27 551.08 L 182.87 552.35 L 178.83 553.03 L 175.12 553.18 L 171.12 552.80 L 166.46 551.77 L 161.02 549.97 L 154.67 547.26 L 147.29 543.46 L 138.75 538.40 L 128.90 531.88 L 117.58 523.68 L 104.65 513.57 L 97.57 513.73 L 85.69 513.57 L 82.78 513.26 L 80.09 512.46 L 77.56 511.18 L 75.16 509.38 L 72.87 506.99 L 70.68 503.92 L 68.61 500.06 L 66.67 495.28 L 88.09 499.03 L 84.95 489.38 L 87.21 489.39 L 89.58 489.82 L 92.11 490.70 L 94.82 492.09 L 97.26 493.79 L 99.49 495.86 L 101.53 498.34 L 103.37 501.28 L 173.65 526.00 L 218.73 484.14 Z" fill="#f4b696" fill-rule="evenodd" group-id="6" id="Shape" node-id="148" stroke="none" target-height="69.03998" target-width="166.71" target-x="66.67" target-y="484.14"></path><path d="M 182.42 872.28 L 182.88 865.29 L 183.87 865.36 L 183.42 872.34 L 182.42 872.28 Z M 183.53 855.32 L 183.99 848.33 L 184.98 848.40 L 184.53 855.38 L 183.53 855.32 Z M 184.64 838.35 L 185.10 831.37 L 186.09 831.43 L 185.64 838.42 L 184.64 838.35 Z M 185.75 821.39 L 186.21 814.40 L 187.20 814.47 L 186.75 821.45 L 185.75 821.39 Z M 186.86 804.42 L 187.31 797.44 L 188.31 797.50 L 187.86 804.49 L 186.86 804.42 Z M 187.97 787.46 L 188.42 780.48 L 189.42 780.54 L 188.97 787.53 L 187.97 787.46 Z M 189.08 770.50 L 189.53 763.51 L 190.53 763.58 L 190.07 770.56 L 189.08 770.50 Z M 190.19 753.53 L 190.64 746.55 L 191.64 746.61 L 191.18 753.60 L 190.19 753.53 Z M 191.89 736.58 L 193.37 729.74 L 194.35 729.95 L 192.86 736.79 L 191.89 736.58 Z M 195.50 719.96 L 196.98 713.12 L 197.96 713.34 L 196.47 720.18 L 195.50 719.96 Z M 199.11 703.35 L 200.59 696.51 L 201.57 696.72 L 200.08 703.56 L 199.11 703.35 Z M 202.72 686.74 L 204.20 679.90 L 205.18 680.11 L 203.70 686.95 L 202.72 686.74 Z M 206.33 670.13 L 207.82 663.29 L 208.79 663.50 L 207.31 670.34 L 206.33 670.13 Z M 209.94 653.52 L 211.43 646.68 L 212.40 646.89 L 210.92 653.73 L 209.94 653.52 Z M 213.55 636.90 L 215.04 630.06 L 216.01 630.28 L 214.53 637.12 L 213.55 636.90 Z" fill="#ffffff" fill-rule="nonzero" group-id="6" id="Shape" node-id="149" stroke="none" target-height="242.28003" target-width="33.589996" target-x="182.42" target-y="630.06"></path><path d="M 220.16 533.80 L 193.66 502.59 L 200.39 494.84 L 206.43 488.65 L 211.86 483.80 L 216.74 480.13 L 221.13 477.45 L 225.09 475.62 L 228.68 474.51 L 231.96 474.03 L 235.00 474.11 L 237.86 474.71 L 240.58 475.83 L 243.21 477.50 L 245.77 479.80 L 247.93 482.42 L 249.47 485.11 L 250.48 487.91 L 250.96 490.85 L 250.90 494.00 L 250.28 497.41 L 249.00 501.14 L 246.97 505.26 L 244.04 509.82 L 240.08 514.90 L 234.91 520.54 L 228.34 526.82 L 220.16 533.80 Z" fill="url(#linearGradient-27)" fill-rule="evenodd" group-id="6" id="Shape" node-id="150" stroke="none" target-height="59.76999" target-width="57.300003" target-x="193.66" target-y="474.03"></path></g></svg>