<svg viewBox="0 0 1200 600" fill="none" xmlns="http://www.w3.org/2000/svg">
    <rect fill="#f3f4f6" />
    <g filter="url(#filter0_f_1_793)">
        <path
            d="M673 257.5C673 299.474 601.974 357.5 560 357.5C518.026 357.5 448 326.974 448 285C448 243.026 507.026 169.5 549 169.5C590.974 169.5 673 215.526 673 257.5Z"
            fill="url(#paint0_linear_1_793)" />
    </g>
    <g filter="url(#filter1_f_1_793)">
        <path
            d="M673 257.5C673 299.474 601.974 357.5 560 357.5C518.026 357.5 448 326.974 448 285C448 243.026 507.026 169.5 549 169.5C590.974 169.5 673 215.526 673 257.5Z"
            fill="url(#paint1_linear_1_793)" />
    </g>
    <g filter="url(#filter2_f_1_793)">
        <path
            d="M725.5 311.501C725.5 355.684 645.183 413.501 601 413.501C556.817 413.501 486 400.184 486 356.001C486 311.818 477.817 243.001 522 243.001C566.183 243.001 725.5 267.318 725.5 311.501Z"
            fill="url(#paint2_linear_1_793)" />
    </g>
    <g filter="url(#filter3_f_1_793)">
        <path
            d="M725.5 311.5C725.5 355.683 645.183 413.5 601 413.5C556.817 413.5 486 400.183 486 356C486 311.817 477.817 243 522 243C566.183 243 725.5 267.317 725.5 311.5Z"
            fill="url(#paint3_linear_1_793)" />
    </g>
    <g style="mix-blend-mode:overlay">
        <rect x="516" y="292" width="8" height="16" rx="4" fill="#f3f4f6" />
        <rect x="536" y="276" width="8" height="48" rx="4" fill="#f3f4f6" />
        <rect x="556" y="294" width="8" height="12" rx="4" fill="#f3f4f6" />
        <rect x="576" y="268" width="8" height="64" rx="4" fill="#f3f4f6" />
        <rect x="596" y="284" width="8" height="32" rx="4" fill="#f3f4f6" />
        <rect x="616" y="290" width="8" height="20" rx="4" fill="#f3f4f6" />
        <rect x="636" y="282" width="8" height="36" rx="4" fill="#f3f4f6" />
        <rect x="656" y="294" width="8" height="12" rx="4" fill="#f3f4f6" />
        <rect x="676" y="276" width="8" height="48" rx="4" fill="#f3f4f6" />
    </g>
    <defs>
        <filter id="filter0_f_1_793" x="413.73" y="135.23" width="293.54" height="256.54" filterUnits="userSpaceOnUse"
            color-interpolation-filters="sRGB">
            <feFlood flood-opacity="0" result="BackgroundImageFix" />
            <feBlend mode="normal" in="SourceGraphic" in2="BackgroundImageFix" result="shape" />
            <feGaussianBlur stdDeviation="17.135" result="effect1_foregroundBlur_1_793" />
        </filter>
        <filter id="filter1_f_1_793" x="413.73" y="135.23" width="293.54" height="256.54" filterUnits="userSpaceOnUse"
            color-interpolation-filters="sRGB">
            <feFlood flood-opacity="0" result="BackgroundImageFix" />
            <feBlend mode="normal" in="SourceGraphic" in2="BackgroundImageFix" result="shape" />
            <feGaussianBlur stdDeviation="17.135" result="effect1_foregroundBlur_1_793" />
        </filter>
        <filter id="filter2_f_1_793" x="451.132" y="208.731" width="308.638" height="239.04"
            filterUnits="userSpaceOnUse" color-interpolation-filters="sRGB">
            <feFlood flood-opacity="0" result="BackgroundImageFix" />
            <feBlend mode="normal" in="SourceGraphic" in2="BackgroundImageFix" result="shape" />
            <feGaussianBlur stdDeviation="17.135" result="effect1_foregroundBlur_1_793" />
        </filter>
        <filter id="filter3_f_1_793" x="451.132" y="208.73" width="308.638" height="239.04" filterUnits="userSpaceOnUse"
            color-interpolation-filters="sRGB">
            <feFlood flood-opacity="0" result="BackgroundImageFix" />
            <feBlend mode="normal" in="SourceGraphic" in2="BackgroundImageFix" result="shape" />
            <feGaussianBlur stdDeviation="17.135" result="effect1_foregroundBlur_1_793" />
        </filter>
        <linearGradient id="paint0_linear_1_793" x1="499.712" y1="192.474" x2="605.795" y2="334"
            gradientUnits="userSpaceOnUse">
            <stop stop-color="#FF00F5" />
            <stop offset="1" stop-color="#6C5FFE" stop-opacity="0" />
        </linearGradient>
        <linearGradient id="paint1_linear_1_793" x1="499.712" y1="192.474" x2="605.795" y2="334"
            gradientUnits="userSpaceOnUse">
            <stop stop-color="#FF00F5" />
            <stop offset="1" stop-color="#6C5FFE" stop-opacity="0" />
        </linearGradient>
        <linearGradient id="paint2_linear_1_793" x1="610" y1="259.001" x2="610" y2="419.001"
            gradientUnits="userSpaceOnUse">
            <stop stop-color="#FFF500" stop-opacity="0.58" />
            <stop offset="1" stop-color="#9CFFED" stop-opacity="0" />
        </linearGradient>
        <linearGradient id="paint3_linear_1_793" x1="610" y1="259" x2="610" y2="419" gradientUnits="userSpaceOnUse">
            <stop stop-color="#FFF500" stop-opacity="0.58" />
            <stop offset="1" stop-color="#9CFFED" stop-opacity="0" />
        </linearGradient>
    </defs>
</svg>