<svg t="1692664589858" class="icon" viewBox="0 0 1028 1024" version="1.1" xmlns="http://www.w3.org/2000/svg" p-id="11123" width="128" height="128"><path d="M429.2 213.3l85.8-148.7 85.8 148.7z" fill="#38C9E5" p-id="11124"></path><path d="M0 959.4l85.7-148.7 85.9 148.7z" fill="#2ED7FF" p-id="11125"></path><path d="M856.8 959.4l85.8-148.7 85.8 148.7z" fill="#00EACA" p-id="11126"></path><path d="M265.8 502.5H763.2v250.1H265.8z" fill="#545EFB" p-id="11127"></path><path d="M318.6 591.2h391.8v84.6H318.6z" fill="#FFFFFF" p-id="11128"></path><path d="M440.2 944V780h-58.6l132.7-143.8L647.1 780H588.2v164z" fill="#FFFFFF" p-id="11129"></path><path d="M514.3 658.3L612.9 765H573.2v164H455.2V765h-39.4l98.5-106.7m0-44.2L347.3 795H425.2v164h178V795h78.2L514.3 614.1z" fill="#545EFB" p-id="11130"></path><path d="M733.8 449H294.7L265.2 499.3v3.7h499.5z" fill="#C7C9FD" p-id="11131"></path><path d="M671 624.7v19.9H358.5v-19.9h312.5m14-14H344.5v47.9h340.5v-47.9z" fill="#545EFB" p-id="11132"></path><path d="M344.3 610.2h339.8v24H344.3z" fill="#545EFB" p-id="11133"></path></svg>