<svg viewBox="0 0 1200 600" fill="none" xmlns="http://www.w3.org/2000/svg">
    <rect fill="#f3f4f6" />
    <g filter="url(#filter0_f_1_730)">
        <path
            d="M733 336C733 385.706 613.706 398 564 398C514.294 398 445.5 293.205 445.5 243.5C445.5 193.794 535.294 243.5 585 243.5C634.706 243.5 733 286.294 733 336Z"
            fill="url(#paint0_linear_1_730)" />
        <path
            d="M733 336C733 385.706 613.706 398 564 398C514.294 398 445.5 293.205 445.5 243.5C445.5 193.794 535.294 243.5 585 243.5C634.706 243.5 733 286.294 733 336Z"
            fill="url(#paint1_linear_1_730)" />
    </g>
    <g filter="url(#filter1_f_1_730)">
        <path
            d="M733 336C733 385.706 613.706 398 564 398C514.294 398 445.5 293.205 445.5 243.5C445.5 193.794 535.294 243.5 585 243.5C634.706 243.5 733 286.294 733 336Z"
            fill="url(#paint2_linear_1_730)" />
        <path
            d="M733 336C733 385.706 613.706 398 564 398C514.294 398 445.5 293.205 445.5 243.5C445.5 193.794 535.294 243.5 585 243.5C634.706 243.5 733 286.294 733 336Z"
            fill="url(#paint3_linear_1_730)" />
    </g>
    <g filter="url(#filter2_f_1_730)">
        <path
            d="M765.5 289C765.5 342.019 727.519 404 674.5 404C621.481 404 524 342.019 524 289C524 235.981 586.481 155.5 639.5 155.5C692.519 155.5 765.5 235.981 765.5 289Z"
            fill="url(#paint4_linear_1_730)" />
    </g>
    <g filter="url(#filter3_f_1_730)">
        <path
            d="M765.5 289C765.5 342.019 727.519 404 674.5 404C621.481 404 524 342.019 524 289C524 235.981 586.481 155.5 639.5 155.5C692.519 155.5 765.5 235.981 765.5 289Z"
            fill="url(#paint5_linear_1_730)" />
    </g>
    <g style="mix-blend-mode:overlay">
        <rect x="516" y="296" width="8" height="8" rx="4" fill="#f3f4f6" />
        <rect x="536" y="296" width="8" height="8" rx="4" fill="#f3f4f6" />
        <rect x="556" y="296" width="8" height="8" rx="4" fill="#f3f4f6" />
        <rect x="576" y="296" width="8" height="8" rx="4" fill="#f3f4f6" />
        <rect x="596" y="296" width="8" height="8" rx="4" fill="#f3f4f6" />
        <rect x="616" y="296" width="8" height="8" rx="4" fill="#f3f4f6" />
        <rect x="636" y="296" width="8" height="8" rx="4" fill="#f3f4f6" />
        <rect x="656" y="296" width="8" height="8" rx="4" fill="#f3f4f6" />
        <rect x="676" y="296" width="8" height="8" rx="4" fill="#f3f4f6" />
    </g>
    <defs>
        <filter id="filter0_f_1_730" x="411.23" y="187.138" width="356.04" height="245.132" filterUnits="userSpaceOnUse"
            color-interpolation-filters="sRGB">
            <feFlood flood-opacity="0" result="BackgroundImageFix" />
            <feBlend mode="normal" in="SourceGraphic" in2="BackgroundImageFix" result="shape" />
            <feGaussianBlur stdDeviation="17.135" result="effect1_foregroundBlur_1_730" />
        </filter>
        <filter id="filter1_f_1_730" x="411.23" y="187.138" width="356.04" height="245.132" filterUnits="userSpaceOnUse"
            color-interpolation-filters="sRGB">
            <feFlood flood-opacity="0" result="BackgroundImageFix" />
            <feBlend mode="normal" in="SourceGraphic" in2="BackgroundImageFix" result="shape" />
            <feGaussianBlur stdDeviation="17.135" result="effect1_foregroundBlur_1_730" />
        </filter>
        <filter id="filter2_f_1_730" x="489.73" y="121.23" width="310.04" height="317.04" filterUnits="userSpaceOnUse"
            color-interpolation-filters="sRGB">
            <feFlood flood-opacity="0" result="BackgroundImageFix" />
            <feBlend mode="normal" in="SourceGraphic" in2="BackgroundImageFix" result="shape" />
            <feGaussianBlur stdDeviation="17.135" result="effect1_foregroundBlur_1_730" />
        </filter>
        <filter id="filter3_f_1_730" x="489.73" y="121.23" width="310.04" height="317.04" filterUnits="userSpaceOnUse"
            color-interpolation-filters="sRGB">
            <feFlood flood-opacity="0" result="BackgroundImageFix" />
            <feBlend mode="normal" in="SourceGraphic" in2="BackgroundImageFix" result="shape" />
            <feGaussianBlur stdDeviation="17.135" result="effect1_foregroundBlur_1_730" />
        </filter>
        <linearGradient id="paint0_linear_1_730" x1="492.606" y1="230.404" x2="618.231" y2="398"
            gradientUnits="userSpaceOnUse">
            <stop stop-color="#FF2E00" />
            <stop offset="1" stop-color="#1400FF" stop-opacity="0.2" />
        </linearGradient>
        <linearGradient id="paint1_linear_1_730" x1="564" y1="218" x2="564" y2="398" gradientUnits="userSpaceOnUse">
            <stop stop-color="#00FFA3" stop-opacity="0.58" />
            <stop offset="1" stop-color="#3300FF" stop-opacity="0.2" />
        </linearGradient>
        <linearGradient id="paint2_linear_1_730" x1="492.606" y1="230.404" x2="618.231" y2="398"
            gradientUnits="userSpaceOnUse">
            <stop stop-color="#FF2E00" />
            <stop offset="1" stop-color="#1400FF" stop-opacity="0.2" />
        </linearGradient>
        <linearGradient id="paint3_linear_1_730" x1="564" y1="218" x2="564" y2="398" gradientUnits="userSpaceOnUse">
            <stop stop-color="#00FFA3" stop-opacity="0.58" />
            <stop offset="1" stop-color="#3300FF" stop-opacity="0.2" />
        </linearGradient>
        <linearGradient id="paint4_linear_1_730" x1="620" y1="193" x2="620" y2="385" gradientUnits="userSpaceOnUse">
            <stop stop-color="#00FFA3" stop-opacity="0.48" />
            <stop offset="1" stop-color="#3300FF" stop-opacity="0.2" />
        </linearGradient>
        <linearGradient id="paint5_linear_1_730" x1="620" y1="193" x2="620" y2="385" gradientUnits="userSpaceOnUse">
            <stop stop-color="#00FFA3" stop-opacity="0.48" />
            <stop offset="1" stop-color="#3300FF" stop-opacity="0.2" />
        </linearGradient>
    </defs>
</svg>