<svg viewBox="0 0 1200 600" fill="none" xmlns="http://www.w3.org/2000/svg">
    <rect fill="#f3f4f6" />
    <g filter="url(#filter0_f_1_772)">
        <path
            d="M651 291.5C651 348.661 604.661 395 547.5 395C490.339 395 410 303.162 410 246C410 188.839 490.339 197.5 547.5 197.5C604.661 197.5 651 234.338 651 291.5Z"
            fill="url(#paint0_linear_1_772)" />
        <path
            d="M651 291.5C651 348.661 604.661 395 547.5 395C490.339 395 410 303.162 410 246C410 188.839 490.339 197.5 547.5 197.5C604.661 197.5 651 234.338 651 291.5Z"
            fill="url(#paint1_linear_1_772)" />
    </g>
    <g filter="url(#filter1_f_1_772)">
        <path
            d="M651 291.5C651 348.661 604.661 395 547.5 395C490.339 395 410 303.161 410 246C410 188.839 490.339 197.5 547.5 197.5C604.661 197.5 651 234.338 651 291.5Z"
            fill="url(#paint2_linear_1_772)" />
        <path
            d="M651 291.5C651 348.661 604.661 395 547.5 395C490.339 395 410 303.161 410 246C410 188.839 490.339 197.5 547.5 197.5C604.661 197.5 651 234.338 651 291.5Z"
            fill="url(#paint3_linear_1_772)" />
    </g>
    <g filter="url(#filter2_f_1_772)">
        <path
            d="M721.5 280C721.5 335.781 581.281 455.5 525.5 455.5C469.719 455.5 548.5 318.281 548.5 262.5C548.5 206.719 594.219 205.5 650 205.5C705.781 205.5 721.5 224.219 721.5 280Z"
            fill="url(#paint4_linear_1_772)" />
    </g>
    <g filter="url(#filter3_f_1_772)">
        <path
            d="M721.5 280C721.5 335.781 581.281 455.5 525.5 455.5C469.719 455.5 548.5 318.281 548.5 262.5C548.5 206.719 594.219 205.5 650 205.5C705.781 205.5 721.5 224.219 721.5 280Z"
            fill="url(#paint5_linear_1_772)" />
    </g>
    <g style="mix-blend-mode:overlay">
        <rect x="516" y="276" width="8" height="48" rx="4" fill="#f3f4f6" />
        <rect x="536" y="288" width="8" height="24" rx="4" fill="#f3f4f6" />
        <rect x="556" y="280" width="8" height="40" rx="4" fill="#f3f4f6" />
        <rect x="576" y="284" width="8" height="32" rx="4" fill="#f3f4f6" />
        <rect x="596" y="264" width="8" height="72" rx="4" fill="#f3f4f6" />
        <rect x="616" y="268" width="8" height="64" rx="4" fill="#f3f4f6" />
        <rect x="636" y="286" width="8" height="28" rx="4" fill="#f3f4f6" />
        <rect x="656" y="276" width="8" height="48" rx="4" fill="#f3f4f6" />
        <rect x="676" y="288" width="8" height="24" rx="4" fill="#f3f4f6" />
    </g>
    <defs>
        <filter id="filter0_f_1_772" x="375.73" y="162.762" width="309.54" height="266.508" filterUnits="userSpaceOnUse"
            color-interpolation-filters="sRGB">
            <feFlood flood-opacity="0" result="BackgroundImageFix" />
            <feBlend mode="normal" in="SourceGraphic" in2="BackgroundImageFix" result="shape" />
            <feGaussianBlur stdDeviation="17.135" result="effect1_foregroundBlur_1_772" />
        </filter>
        <filter id="filter1_f_1_772" x="375.73" y="162.761" width="309.54" height="266.508" filterUnits="userSpaceOnUse"
            color-interpolation-filters="sRGB">
            <feFlood flood-opacity="0" result="BackgroundImageFix" />
            <feBlend mode="normal" in="SourceGraphic" in2="BackgroundImageFix" result="shape" />
            <feGaussianBlur stdDeviation="17.135" result="effect1_foregroundBlur_1_772" />
        </filter>
        <filter id="filter2_f_1_772" x="471.26" y="171.23" width="284.51" height="318.54" filterUnits="userSpaceOnUse"
            color-interpolation-filters="sRGB">
            <feFlood flood-opacity="0" result="BackgroundImageFix" />
            <feBlend mode="normal" in="SourceGraphic" in2="BackgroundImageFix" result="shape" />
            <feGaussianBlur stdDeviation="17.135" result="effect1_foregroundBlur_1_772" />
        </filter>
        <filter id="filter3_f_1_772" x="471.26" y="171.23" width="284.51" height="318.54" filterUnits="userSpaceOnUse"
            color-interpolation-filters="sRGB">
            <feFlood flood-opacity="0" result="BackgroundImageFix" />
            <feBlend mode="normal" in="SourceGraphic" in2="BackgroundImageFix" result="shape" />
            <feGaussianBlur stdDeviation="17.135" result="effect1_foregroundBlur_1_772" />
        </filter>
        <linearGradient id="paint0_linear_1_772" x1="465.397" y1="202.265" x2="609.865" y2="395"
            gradientUnits="userSpaceOnUse">
            <stop stop-color="#FF2E00" />
            <stop offset="1" stop-color="#BFB9FF" />
        </linearGradient>
        <linearGradient id="paint1_linear_1_772" x1="547.5" y1="188" x2="547.5" y2="395" gradientUnits="userSpaceOnUse">
            <stop stop-color="#33C5B3" stop-opacity="0.64" />
            <stop offset="1" stop-color="#44FFC7" stop-opacity="0.6" />
        </linearGradient>
        <linearGradient id="paint2_linear_1_772" x1="465.397" y1="202.264" x2="609.865" y2="395"
            gradientUnits="userSpaceOnUse">
            <stop stop-color="#FF2E00" />
            <stop offset="1" stop-color="#BFB9FF" />
        </linearGradient>
        <linearGradient id="paint3_linear_1_772" x1="547.5" y1="188" x2="547.5" y2="395" gradientUnits="userSpaceOnUse">
            <stop stop-color="#33C5B3" stop-opacity="0.64" />
            <stop offset="1" stop-color="#44FFC7" stop-opacity="0.6" />
        </linearGradient>
        <linearGradient id="paint4_linear_1_772" x1="650" y1="197" x2="650" y2="399" gradientUnits="userSpaceOnUse">
            <stop stop-color="#4200FF" stop-opacity="0.9" />
            <stop offset="1" stop-color="#f3f4f6" stop-opacity="0" />
        </linearGradient>
        <linearGradient id="paint5_linear_1_772" x1="650" y1="197" x2="650" y2="399" gradientUnits="userSpaceOnUse">
            <stop stop-color="#4200FF" stop-opacity="0.9" />
            <stop offset="1" stop-color="#f3f4f6" stop-opacity="0" />
        </linearGradient>
    </defs>
</svg>