<?xml version="1.0" standalone="no"?><!DOCTYPE svg PUBLIC "-//W3C//DTD SVG 1.1//EN" "http://www.w3.org/Graphics/SVG/1.1/DTD/svg11.dtd"><svg height="700" node-id="1" sillyvg="true" template-height="700" template-width="693" version="1.1" viewBox="0 0 693 700" width="693" xmlns="http://www.w3.org/2000/svg" xmlns:xlink="http://www.w3.org/1999/xlink"><defs node-id="54"><linearGradient gradientUnits="userSpaceOnUse" id="SVGID_1_" node-id="19" spreadMethod="pad" x1="260.5822" x2="289.5195" y1="403.7194" y2="403.7194"><stop offset="0" stop-color="#c8b28e"></stop><stop offset="1" stop-color="#92784d"></stop></linearGradient><linearGradient gradientUnits="userSpaceOnUse" id="SVGID_2_" node-id="23" spreadMethod="pad" x1="120.7815" x2="138.3484" y1="420.7172" y2="420.7172"><stop offset="0" stop-color="#6a8075"></stop><stop offset="1" stop-color="#000000"></stop></linearGradient><linearGradient gradientUnits="userSpaceOnUse" id="SVGID_3_" node-id="27" spreadMethod="pad" x1="314.1134" x2="343.7264" y1="405.3347" y2="405.3347"><stop offset="0" stop-color="#ccc1ba"></stop><stop offset="1" stop-color="#7f6c60"></stop></linearGradient><linearGradient gradientUnits="userSpaceOnUse" id="SVGID_4_" node-id="36" spreadMethod="pad" x1="552.4836" x2="575.0845" y1="407.445" y2="407.445"><stop offset="0" stop-color="#030d1f"></stop><stop offset="1" stop-color="#104481"></stop></linearGradient><linearGradient gradientUnits="userSpaceOnUse" id="SVGID_5_" node-id="40" spreadMethod="pad" x1="189.7255" x2="221.1438" y1="404.1893" y2="404.1893"><stop offset="0" stop-color="#104481"></stop><stop offset="1" stop-color="#030d1f"></stop></linearGradient></defs><path d="M 62.86 497.94 L 120.06 497.94 L 120.06 499.92 L 62.86 499.92 Z" fill="#3d3d44" fill-rule="nonzero" node-id="87" stroke="none" target-height="1.980011" target-width="57.199997" target-x="62.86" target-y="497.94"></path><path d="M 62.86 506.03 L 120.06 506.03 L 120.06 509.63 L 62.86 509.63 Z" fill="#3d3d44" fill-rule="nonzero" node-id="89" stroke="none" target-height="3.600006" target-width="57.199997" target-x="62.86" target-y="506.03"></path><path d="M 62.15 512.87 L 120.79 512.87 L 120.79 552.79 L 62.15 552.79 Z" fill="#3d3d44" fill-rule="nonzero" node-id="91" stroke="none" target-height="39.919983" target-width="58.64" target-x="62.15" target-y="512.87"></path><g node-id="155"><path d="M 450.11 180.25 L 301.33 180.25 C 292.80 180.25 285.89 173.34 285.89 164.81 L 285.89 162.82 C 285.89 154.29 292.80 147.38 301.33 147.38 L 450.12 147.38 L 450.12 180.25 Z" fill="#d97786" fill-rule="nonzero" group-id="1" node-id="95" stroke="none" target-height="32.869995" target-width="164.22998" target-x="285.89" target-y="147.38"></path><path d="M 450.11 177.71 L 391.64 177.71 L 391.64 149.66 L 450.11 149.66 L 450.11 164.66 Z" fill="#f8f3f2" fill-rule="nonzero" group-id="1" node-id="97" stroke="none" target-height="28.050003" target-width="58.46997" target-x="391.64" target-y="149.66"></path><path d="M 439.98 254.89 L 248.79 254.89 C 237.15 254.89 227.71 245.45 227.71 233.81 L 227.71 233.47 C 227.71 221.83 237.15 212.39 248.79 212.39 L 439.98 212.39 L 439.98 254.89 Z" fill="#b990a5" fill-rule="nonzero" group-id="1" node-id="99" stroke="none" target-height="42.5" target-width="212.27" target-x="227.71" target-y="212.39"></path><path d="M 439.98 251.60 L 364.41 251.60 L 364.41 215.34 L 439.98 215.34 L 439.98 234.73 Z" fill="#f8f3f2" fill-rule="nonzero" group-id="1" node-id="101" stroke="none" target-height="36.26001" target-width="75.57001" target-x="364.41" target-y="215.34"></path><path d="M 415.36 212.22 L 268.52 212.22 C 259.58 212.22 252.33 204.97 252.33 196.03 L 252.33 195.77 C 252.33 186.83 259.58 179.58 268.52 179.58 L 415.36 179.58 L 415.36 212.22 Z" fill="#95aab7" fill-rule="nonzero" group-id="1" node-id="103" stroke="none" target-height="32.64" target-width="163.02998" target-x="252.33" target-y="179.58"></path><path d="M 415.36 209.69 L 357.32 209.69 L 357.32 181.85 L 415.36 181.85 L 415.36 196.74 Z" fill="#f8f3f2" fill-rule="nonzero" group-id="1" node-id="105" stroke="none" target-height="27.839996" target-width="58.039978" target-x="357.32" target-y="181.85"></path><path d="M 104.72 552.61 L 78.21 552.61 C 68.95 552.61 61.43 545.10 61.43 535.83 L 61.43 300.17 C 61.43 290.91 68.94 283.39 78.21 283.39 L 104.73 283.39 C 113.99 283.39 121.51 290.90 121.51 300.17 L 121.51 535.84 C 121.50 545.10 113.99 552.61 104.72 552.61 Z" fill="#9ebfb0" fill-rule="nonzero" group-id="1" node-id="107" stroke="none" target-height="269.21997" target-width="60.08" target-x="61.43" target-y="283.39"></path><path d="M 62.38 320.80 L 120.54 320.80 L 120.54 325.93 L 62.38 325.93 Z" fill="#363e31" fill-rule="nonzero" group-id="1" node-id="109" stroke="none" target-height="5.130005" target-width="58.16" target-x="62.38" target-y="320.8"></path><path d="M 62.38 335.26 L 120.79 335.26 L 120.79 339.70 L 62.38 339.70 Z" fill="#363e31" fill-rule="nonzero" group-id="1" node-id="111" stroke="none" target-height="4.4400024" target-width="58.41" target-x="62.38" target-y="335.26"></path><path d="M 69.77 298.32 L 110.29 298.32 L 110.29 315.85 L 69.77 315.85 Z" fill="#d68a71" fill-rule="nonzero" group-id="1" node-id="113" stroke="none" target-height="17.529999" target-width="40.520004" target-x="69.77" target-y="298.32"></path><path d="M 61.71 346.92 L 120.55 346.92 L 120.55 349.08 L 61.71 349.08 Z" fill="#3c3d42" fill-rule="nonzero" group-id="1" node-id="115" stroke="none" target-height="2.1599731" target-width="58.840004" target-x="61.71" target-y="346.92"></path><path d="M 277.91 257.25 L 289.52 259.80 L 262.89 548.98 L 260.58 550.19 Z" fill="url(#SVGID_1_)" fill-rule="nonzero" group-id="1" node-id="117" stroke="none" target-height="292.94" target-width="28.940002" target-x="260.58" target-y="257.25"></path><path d="M 121.16 288.65 L 138.35 303.55 L 125.22 550.19 L 120.78 552.79 Z" fill="url(#SVGID_2_)" fill-rule="nonzero" group-id="1" node-id="119" stroke="none" target-height="264.13998" target-width="17.570007" target-x="120.78" target-y="288.65"></path><path d="M 314.11 552.90 L 333.99 548.57 L 343.73 262.27 L 340.79 257.77 Z" fill="url(#SVGID_3_)" fill-rule="nonzero" group-id="1" node-id="121" stroke="#000000" stroke-linecap="butt" stroke-width="1" target-height="295.13004" target-width="29.620026" target-x="314.11" target-y="257.77"></path><path d="M 392.70 553.43 L 333.85 552.73 L 343.85 258.63 L 410.89 259.22 L 399.52 551.21 C 399.50 552.43 396.45 553.43 392.70 553.43 Z" fill="#67ab9b" fill-rule="nonzero" group-id="1" node-id="123" stroke="none" target-height="294.8" target-width="77.04001" target-x="333.85" target-y="258.63"></path><path d="M 411.39 259.22 L 403.25 552.74 C 403.25 552.74 446.56 558.60 493.75 552.74 L 504.69 260.38 C 504.69 260.37 465.80 256.23 411.39 259.22 Z" fill="#332e45" fill-rule="nonzero" group-id="1" node-id="125" stroke="none" target-height="302.36996" target-width="101.44" target-x="403.25" target-y="256.23"></path><path d="M 504.53 261.70 C 504.53 261.70 504.83 258.94 516.69 258.64 L 552.25 258.64 C 552.25 258.64 561.67 258.33 567.45 261.70 L 552.37 552.95 C 552.37 552.95 528.54 560.50 496.32 552.95 L 504.53 261.70 Z" fill="#259b83" fill-rule="nonzero" group-id="1" node-id="127" stroke="none" target-height="302.17" target-width="71.130005" target-x="496.32" target-y="258.33"></path><path d="M 561.30 380.62 C 540.17 380.29 523.59 371.18 524.27 360.28 C 524.95 349.38 542.62 340.81 563.75 341.15" fill="#fdfdfe" fill-rule="nonzero" group-id="1" node-id="129" stroke="none" target-height="39.809998" target-width="40.159973" target-x="523.59" target-y="340.81"></path><path d="M 573.73 262.35 C 573.73 262.35 622.27 259.83 631.69 263.74 L 618.01 549.51 C 618.01 549.51 618.01 551.81 605.85 552.57 C 605.85 552.57 574.32 554.25 567.44 552.57 C 567.44 552.57 558.07 553.34 560.26 545.83 L 573.73 262.35 Z" fill="#1c396e" fill-rule="nonzero" group-id="1" node-id="131" stroke="none" target-height="294.42" target-width="73.619995" target-x="558.07" target-y="259.83"></path><path d="M 567.43 264.20 L 575.08 261.94 L 561.98 550.05 L 552.48 552.95 Z" fill="url(#SVGID_4_)" fill-rule="nonzero" group-id="1" node-id="133" stroke="none" target-height="291.01" target-width="22.600037" target-x="552.48" target-y="261.94"></path><path d="M 210.09 257.25 L 221.14 263.13 L 203.71 551.13 L 189.73 549.26 Z" fill="url(#SVGID_5_)" fill-rule="nonzero" group-id="1" node-id="135" stroke="none" target-height="293.88" target-width="31.410004" target-x="189.73" target-y="257.25"></path><path d="M 188.39 551.91 L 132.45 552.72 C 125.92 552.81 120.72 547.30 121.19 540.79 L 141.54 261.34 C 141.76 258.27 144.34 255.91 147.42 255.95 L 206.11 256.76 C 209.85 256.81 212.80 257.83 212.76 259.05 L 195.20 549.63 C 194.38 551.13 192.14 551.86 188.39 551.91 Z" fill="#99b8b7" fill-rule="nonzero" group-id="1" node-id="137" stroke="none" target-height="296.9" target-width="92.08" target-x="120.72" target-y="255.91"></path><path d="M 251.43 552.90 L 200.07 552.57 L 221.60 256.86 L 277.27 257.25 L 260.63 549.88 C 260.64 551.55 256.52 552.90 251.43 552.90 Z" fill="#ddd9b5" fill-rule="nonzero" group-id="1" node-id="139" stroke="none" target-height="296.04004" target-width="77.19998" target-x="200.07" target-y="256.86"></path><path d="M 568.28 431.57 L 567.16 455.01 C 567.16 455.01 606.94 457.31 623.35 455.01 L 624.48 432.33 C 624.48 432.33 580.06 433.50 568.28 431.57 Z" fill="#ded697" fill-rule="nonzero" group-id="1" node-id="141" stroke="none" target-height="25.73999" target-width="57.320007" target-x="567.16" target-y="431.57"></path><path d="M 289.50 257.50 L 262.69 551.14 C 262.69 551.14 261.25 553.36 269.26 553.43 C 277.27 553.50 314.11 552.91 314.11 552.91 L 334.74 332.25 L 340.79 257.78 C 340.79 257.77 315.69 256.71 289.50 257.50 Z" fill="#e7885f" fill-rule="nonzero" group-id="1" node-id="143" stroke="none" target-height="296.79" target-width="79.54001" target-x="261.25" target-y="256.71"></path><path d="M 154.87 298.32 L 142.32 460.98 L 183.38 461.14 L 196.36 298.32 Z" fill="#e6bd96" fill-rule="nonzero" group-id="1" node-id="145" stroke="none" target-height="162.82" target-width="54.039993" target-x="142.32" target-y="298.32"></path><path d="M 196.36 288.15 L 155.84 288.15 L 157.99 270.62 L 198.42 270.62 Z" fill="#eaa954" fill-rule="nonzero" group-id="1" node-id="147" stroke="none" target-height="17.529999" target-width="42.58" target-x="155.84" target-y="270.62"></path><path d="M 485.77 406.02 C 485.77 447.60 471.53 481.30 453.97 481.30 C 436.41 481.30 422.17 447.60 422.17 406.02 C 422.17 364.44 436.41 330.74 453.97 330.74 C 471.53 330.74 485.77 364.44 485.77 406.02 Z" fill="#ded697" fill-rule="nonzero" group-id="1" node-id="149" stroke="none" target-height="150.56" target-width="63.599976" target-x="422.17" target-y="330.74"></path><path d="M 574.03 285.09 C 574.03 285.09 620.13 283.03 630.64 286.57 L 631.09 276.23 C 631.09 276.23 621.68 269.75 574.61 273.26 L 574.03 285.09 Z" fill="#ded697" fill-rule="nonzero" group-id="1" node-id="151" stroke="none" target-height="16.820007" target-width="57.059998" target-x="574.03" target-y="269.75"></path><path d="M 113.95 463.70 L 67.87 463.70 L 67.87 452.60 L 114.38 452.60 Z" fill="#d68a71" fill-rule="nonzero" group-id="1" node-id="153" stroke="none" target-height="11.100006" target-width="46.509995" target-x="67.87" target-y="452.6"></path></g></svg>