<svg class="icon" viewBox="0 0 1024 1024" version="1.1" xmlns="http://www.w3.org/2000/svg">
    <path
        d="M128 221.482667v227.754666a46.293333 46.293333 0 0 0 46.293333 46.293334h227.754667a46.336 46.336 0 0 0 46.336-46.293334V221.482667a46.293333 46.293333 0 0 0-46.336-46.293334H174.293333A46.293333 46.293333 0 0 0 128 221.482667z m239.658667 213.973333H208.725333a20.650667 20.650667 0 0 1-20.650666-20.650667V256a20.650667 20.650667 0 0 1 20.650666-20.650667h158.933334A20.650667 20.650667 0 0 1 388.266667 256v158.805333a20.650667 20.650667 0 0 1-20.608 20.650667zM128 621.952v227.754667A46.293333 46.293333 0 0 0 174.293333 896h227.754667a46.336 46.336 0 0 0 46.336-46.293333v-227.754667a46.336 46.336 0 0 0-46.336-46.336H174.293333A46.336 46.336 0 0 0 128 621.952z m239.658667 213.973333H208.725333a20.650667 20.650667 0 0 1-20.650666-20.650666v-158.933334a20.650667 20.650667 0 0 1 20.650666-20.650666h158.933334a20.650667 20.650667 0 0 1 20.650666 20.650666v158.933334a20.650667 20.650667 0 0 1-20.650666 20.650666zM528.469333 621.952v227.754667A46.293333 46.293333 0 0 0 574.762667 896h227.754666a46.293333 46.293333 0 0 0 46.293334-46.293333v-227.754667a46.293333 46.293333 0 0 0-46.293334-46.336h-227.754666a46.336 46.336 0 0 0-46.293334 46.336zM768 835.925333h-158.805333a20.650667 20.650667 0 0 1-20.650667-20.650666v-158.933334a20.650667 20.650667 0 0 1 20.650667-20.650666H768a20.650667 20.650667 0 0 1 20.650667 20.650666v158.933334a20.650667 20.650667 0 0 1-20.650667 20.650666zM494.933333 368.085333l160.981334 160.981334a46.250667 46.250667 0 0 0 65.450666 0l161.066667-161.066667a46.250667 46.250667 0 0 0 0-65.450667l-161.066667-160.981333a46.250667 46.250667 0 0 0-65.450666 0L494.933333 302.634667a46.250667 46.250667 0 0 0 0 65.450666z m320.682667-18.218666l-112.384 112.384a20.608 20.608 0 0 1-29.184 0L561.664 349.866667a20.608 20.608 0 0 1 0-29.184L674.133333 208.384a20.608 20.608 0 0 1 29.184 0l112.384 112.384a20.608 20.608 0 0 1-0.085333 29.098667z"
        fill="#58cbff"></path>
</svg>