<?xml version="1.0" standalone="no"?><!DOCTYPE svg PUBLIC "-//W3C//DTD SVG 1.1//EN" "http://www.w3.org/Graphics/SVG/1.1/DTD/svg11.dtd"><svg t="1684129887775" class="icon" viewBox="0 0 1024 1024" version="1.1" xmlns="http://www.w3.org/2000/svg" p-id="13396" xmlns:xlink="http://www.w3.org/1999/xlink" width="16" height="16"><path d="M849.92 0H174.08C78.336 0 0 78.336 0 174.08v675.84c0 95.744 78.336 174.08 174.08 174.08h675.84c95.744 0 174.08-78.336 174.08-174.08V174.08c0-95.744-78.336-174.08-174.08-174.08z m117.76 849.92c0 65.024-52.736 117.76-117.76 117.76H174.08c-65.024 0-117.76-52.736-117.76-117.76V174.08c0-65.024 52.736-117.76 117.76-117.76h675.84c65.024 0 117.76 52.736 117.76 117.76v675.84z" fill="#14378a" p-id="13397"></path><path d="M196.608 398.848h47.616v235.52h-47.616zM432.64 478.72c-4.096-5.632-10.24-10.24-18.944-13.824-8.192-3.584-17.408-5.632-27.136-5.632-22.528 0-41.472 9.728-56.32 28.672v-25.088h-41.984v170.496h45.056v-77.312c0-18.944 1.024-32.256 3.584-39.424 2.048-7.168 6.656-12.8 12.8-16.896 6.144-4.096 13.312-6.656 20.992-6.656 6.144 0 11.264 1.536 15.872 4.608 4.096 3.072 7.68 7.168 9.216 12.8 2.048 5.632 3.072 17.408 3.072 35.84v87.04h45.056V527.36c0-13.312-1.024-23.04-2.56-30.208-1.536-6.656-4.096-12.8-8.704-18.432zM549.888 600.576c-3.072 0-5.632-0.512-7.68-2.048-2.048-1.536-3.584-3.584-4.096-5.632-0.512-2.048-1.024-10.24-1.024-24.576V499.2h30.72v-35.84h-30.72V403.456l-45.056 26.112v33.792h-20.48v35.84h20.48V573.44c0 15.872 0.512 26.624 1.536 31.744 1.024 7.168 3.072 13.312 6.144 17.408 3.072 4.096 7.68 7.68 14.336 10.752 6.656 2.56 13.824 4.096 22.016 4.096 13.312 0 25.088-2.048 35.84-6.656l-4.096-34.816c-7.68 3.072-13.824 4.608-17.92 4.608zM724.48 484.864c-14.848-16.896-34.816-25.088-59.904-25.088-22.528 0-41.472 8.192-55.808 24.064-14.848 15.872-22.016 37.888-22.016 66.56 0 23.552 5.632 43.008 16.896 58.88 14.336 19.456 36.352 29.184 66.048 29.184 18.944 0 34.304-4.096 46.592-12.8 12.288-8.704 21.504-20.992 27.136-37.888l-45.056-7.68c-2.56 8.704-6.144 14.848-10.752 18.432s-10.752 5.632-17.92 5.632c-10.24 0-18.944-3.584-26.112-11.264-7.168-7.68-10.752-17.92-10.752-31.232h113.152c0-34.304-6.656-60.416-21.504-76.8z m-91.136 49.152c0-12.288 3.072-22.016 9.216-29.184 6.656-7.168 14.336-10.752 24.576-10.752 9.216 0 16.896 3.584 23.552 10.24 6.656 6.656 9.728 16.896 10.24 29.696h-67.584zM782.336 398.848h45.056v235.52h-45.056z" fill="#14378a" p-id="13398"></path></svg>