<?xml version="1.0" standalone="no"?><!DOCTYPE svg PUBLIC "-//W3C//DTD SVG 1.1//EN" "http://www.w3.org/Graphics/SVG/1.1/DTD/svg11.dtd"><svg t="1684130022366" class="icon" viewBox="0 0 2824 1024" version="1.1" xmlns="http://www.w3.org/2000/svg" p-id="15878" width="44.125" height="16" xmlns:xlink="http://www.w3.org/1999/xlink"><path d="M0 14.230069h190.569931V204.8H0z" fill="#00AAE8" p-id="15879"></path><path d="M589.364966 1007.156966V320.794483h-180.400552v686.362483h180.435862z m1199.13931 6.779586v-168.183173c-26.482759 0-48.834207-1.341793-65.112276-4.060689-18.996966-2.718897-33.227034-9.533793-42.725517-18.996966-9.533793-9.498483-15.607172-23.057655-18.996966-40.712827-2.718897-16.948966-4.06069-39.335724-4.060689-66.454069v-240.110345h130.895448V320.829793h-130.895448V52.894897h-181.106759v664.011034c0 56.28469 4.766897 103.741793 14.230069 141.735724 9.533793 37.287724 25.776552 67.795862 48.16331 90.888828 22.386759 23.057655 52.25931 39.335724 88.169931 49.505103 36.616828 10.169379 82.767448 14.900966 137.710345 14.900966h23.728552zM2824.827586 1007.156966V0h-181.071448v1007.156966H2824.827586zM1302.210207 387.954759c-50.21131-54.272-120.761379-81.390345-210.273104-81.390345-43.396414 0-82.732138 8.827586-118.678069 26.447448a253.881379 253.881379 0 0 0-89.511724 73.233655l-10.204689 12.888276V320.794483h-178.352552v686.362483h179.729655V641.588966v12.888275c2.048-64.406069 17.655172-111.898483 47.457104-142.40662 31.885241-32.556138 70.550069-48.834207 114.652689-48.834207 52.224 0 92.230621 16.242759 118.642759 47.457103 25.776552 31.214345 39.371034 75.281655 39.371034 131.601655v364.190897h182.448552V617.224828c0.670897-97.668414-25.070345-174.998069-75.281655-229.234759z m1247.938207 274.679172c0-49.505103-8.827586-95.620414-25.776552-139.052138-17.655172-42.725517-42.01931-80.684138-72.562759-113.240276-31.214345-32.556138-68.502069-57.661793-111.933793-75.987862-43.396414-18.290759-91.559724-27.118345-143.783724-27.118345-49.505103 0-96.29131 9.498483-139.687724 27.824552-43.431724 18.961655-81.390345 44.06731-113.275586 75.917241a353.809655 353.809655 0 0 0-75.952552 113.310897c-18.996966 43.396414-27.824552 90.182621-27.824552 139.687724 0 49.505103 8.827586 96.326621 26.482759 139.723035a348.513103 348.513103 0 0 0 73.904552 113.275586c31.214345 31.885241 69.843862 57.626483 114.617379 75.952552 44.773517 18.996966 94.278621 28.495448 147.173517 28.495448 153.282207 0 248.231724-69.879172 305.222621-134.991448L2376.527448 787.42069c-27.153655 32.556138-92.265931 76.623448-173.620965 76.623448-50.882207 0-92.936828-11.511172-124.822069-35.239724-31.849931-23.057655-53.565793-55.613793-65.112276-95.620414l-2.01269-6.10869h539.188966v-64.441379zM2012.301241 599.569655c0-50.21131 57.661793-137.710345 181.777656-138.381241 124.115862 0 182.448552 87.499034 182.448551 137.710345l-364.226207 0.670896z" fill="#000000" p-id="15880"></path></svg>