<svg width="890" height="216" viewBox="0 0 890 216" fill="none" xmlns="http://www.w3.org/2000/svg">
<path d="M175.138 142.816C167.233 140.684 161.645 135 159.6 126.9C158.783 123.916 158.101 111.695 158.101 99.9001V78.158H164.234H170.368V101.037V123.916L174.32 128.037C176.637 130.453 179.772 132.158 181.816 132.158C185.496 132.158 186.314 134.858 184.542 141.821C183.588 145.374 184.133 145.374 175.138 142.816Z" fill="#7B5DF6"/>
<path d="M35.4364 110.842V78.158H41.2971H47.0214L62.4227 101.179L77.6876 124.058V101.179V78.158H83.1394H88.5911V110.842V143.526H82.8668H77.0061L62.0138 121.216L47.0214 98.7632L46.6126 121.216L46.2037 143.526H40.8882H35.4364V110.842Z" fill="#7B5CF7"/>
<path d="M100.858 137.842V132.158H124.028H147.198V137.842V143.526H124.028H100.858V137.842Z" fill="#7B5DF6"/>
<path d="M223.522 127.184V110.842H234.835C250.236 110.842 255.96 108.995 258.277 103.311C260.185 98.6211 259.776 95.9211 256.505 92.0843C254.734 89.9527 252.008 89.5264 238.923 89.5264H223.522V83.8422V78.158H239.06C247.646 78.158 256.369 78.8685 258.55 79.7211C271.77 84.979 274.632 102.032 264.274 114.253L260.185 119.084L265.501 128.179C275.178 144.663 275.041 143.526 267.545 143.526H261.003L255.142 132.158L249.282 120.79H241.786H234.426V132.158V143.526H228.974H223.522V127.184Z" fill="#7B5CF6"/>
<path d="M276.677 142.389C276.677 141.679 281.447 127.184 287.444 109.989L298.075 78.8684H305.844H313.613L325.743 110.842L337.737 142.816L331.603 143.242C328.196 143.526 324.925 143.242 324.38 142.532C323.835 141.963 319.609 130.026 314.839 116.242C310.205 102.316 306.116 90.9474 305.844 90.9474C305.707 90.9474 301.755 102.742 297.121 117.237L288.671 143.526H282.674C279.403 143.526 276.677 142.958 276.677 142.389Z" fill="#7B5CF6"/>
<path d="M344.824 137.842V132.158H367.994H391.164V137.842V143.526H367.994H344.824V137.842Z" fill="#7A5DF5"/>
<path d="M344.824 100.895V78.158H350.957H357.09V100.895V123.632H350.957H344.824V100.895Z" fill="#7A5DF5"/>
<path d="M198.989 98.7632V78.158H205.123H211.256V98.7632V119.368H205.123H198.989V98.7632Z" fill="#7B5CF6"/>
<path d="M100.858 110.842V105.158H124.028H147.198V110.842V116.526H124.028H100.858V110.842Z" fill="#7B5CF7"/>
<path d="M100.858 84.5527V78.158H124.028H147.198V84.5527V90.9474H124.028H100.858V84.5527Z" fill="#7B5CF6"/>
<path d="M537.952 142.958C530.456 140.826 526.367 137.416 523.914 131.163C520.779 123.347 521.325 122.21 528.139 122.21C533.727 122.21 534.409 122.495 536.181 127.042C538.225 132.158 541.36 133.863 548.447 133.863C555.262 133.863 559.76 131.305 560.714 127.184C562.077 121.5 558.533 118.374 545.994 114.395C528.139 108.71 523.369 104.305 523.369 93.7894C523.369 83.842 538.089 75.3157 551.718 77.4473C564.666 79.4368 570.936 84.5526 573.116 94.7841L574.07 99.4736H567.801C562.894 99.4736 561.531 98.9052 560.85 96.6315C559.078 90.6631 554.717 88.1052 546.539 88.1052C538.361 88.1052 535.635 89.6684 535.635 94.642C535.635 99.4736 538.634 101.747 549.537 105.158C564.394 109.847 569.573 113.116 572.026 118.942C575.57 127.895 571.753 136.705 562.077 141.963C557.17 144.521 545.04 145.089 537.952 142.958Z" fill="white"/>
<path d="M648.896 143.526C643.58 142.247 638.401 138.553 634.585 133.011C631.995 129.458 631.723 126.758 631.314 103.595L630.769 78.158H637.038H643.308V101.463V124.768L647.533 128.463C649.85 130.453 652.848 132.158 654.348 132.158C656.528 132.158 656.937 133.153 656.937 138.553C656.937 145.374 656.801 145.516 648.896 143.526Z" fill="white"/>
<path d="M801.954 142.958C790.097 139.121 782.055 129.316 780.147 116.668L779.193 110.842H785.599C790.505 110.842 791.868 111.268 791.868 113.258C791.868 117.805 797.32 127.184 801.273 129.742C803.726 131.163 808.087 132.158 812.585 132.158C825.806 132.158 832.757 124.626 832.757 110.558C832.757 98.479 825.533 89.5263 815.72 89.5263C812.585 89.5263 812.312 89.1 812.312 82.9895V76.3105L817.9 77.3053C829.213 79.1527 838.89 86.8263 842.842 96.9158C845.841 104.163 845.568 118.658 842.433 125.763C835.755 141.111 818.582 148.358 801.954 142.958Z" fill="white"/>
<path d="M594.242 121.5V99.4736H600.375H606.508V121.5V143.526H600.375H594.242V121.5Z" fill="white"/>
<path d="M695.1 137.984V132.584L709.41 131.874C729.991 130.737 735.851 126.047 735.851 110.842C735.851 95.6369 729.991 90.9474 709.41 89.8106L695.1 89.1001V83.7001V78.158H710.773C733.534 78.158 742.121 82.8474 746.21 97.2001C750.162 111.126 747.573 128.179 740.485 135.284C733.807 141.963 728.083 143.526 710.773 143.526H695.1V137.984Z" fill="white"/>
<path d="M757.795 120.079V96.6316H763.928H770.061V120.079V143.526H763.928H757.795V120.079Z" fill="white"/>
<path d="M671.93 98.7632V78.158H678.063H684.196V98.7632V119.368H678.063H671.93V98.7632Z" fill="white"/>
<path d="M575.161 83.8422V78.158H599.694H624.227V83.8422V89.5264H599.694H575.161V83.8422Z" fill="white"/>
<path d="M757.795 83.1316C757.795 78.158 757.795 78.158 763.928 78.158C770.061 78.158 770.061 78.158 770.061 83.1316C770.061 88.1053 770.061 88.1053 763.928 88.1053C757.795 88.1053 757.795 88.1053 757.795 83.1316Z" fill="white"/>
<path d="M449.634 162.284C447.726 160.579 446.363 157.453 445.818 153.474C445 147.79 444.182 146.653 435.732 140.4C428.236 134.858 426.055 133.721 423.874 135C419.786 137.274 415.015 136.705 411.063 133.437C406.02 129.316 406.02 120.79 411.063 116.669C414.879 113.542 420.467 112.832 423.874 115.105C425.646 116.242 433.415 112.832 433.415 110.842C433.415 108.853 425.646 105.442 423.874 106.579C420.467 108.853 414.879 108.142 411.063 105.016C408.337 102.742 407.519 100.895 407.519 96.6317C407.519 87.8212 416.378 82.5633 423.874 86.6843C426.055 87.9633 428.236 86.8264 435.732 81.2843C444.182 75.0317 445 73.8948 445.818 68.2106C447.181 57.2685 457.13 53.1475 464.354 60.5369C467.352 63.6633 467.761 64.9422 467.08 70.2001C466.262 76.1685 466.398 76.4527 477.029 88.3896C487.796 100.469 488.069 100.611 493.248 99.9001C497.746 99.1896 499.245 99.758 502.107 102.742C510.012 110.984 504.152 123.347 492.976 121.784C488.069 121.074 487.524 121.5 477.029 133.295C466.398 145.232 466.262 145.516 467.08 151.484C467.761 156.742 467.352 158.021 464.354 161.147C460.129 165.553 454.132 165.979 449.634 162.284ZM461.355 157.737C463.4 155.463 463.672 154.042 462.582 150.916C460.265 143.811 449.77 145.374 449.77 152.905C449.77 159.869 456.858 162.853 461.355 157.737ZM450.452 143.384C450.997 142.532 454.132 142.105 457.539 142.39L463.672 142.816L474.712 130.311C480.709 123.49 485.343 117.663 485.07 117.379C484.798 116.953 480.709 118.09 475.939 119.795C468.851 122.353 467.489 123.49 467.489 126.19C467.489 130.879 461.628 136.421 456.585 136.421C450.724 136.421 445.681 130.879 445.681 124.484C445.681 120.647 444.727 118.942 441.593 116.526L437.504 113.4L433.142 116.242C429.462 118.658 428.781 120.079 428.645 124.769C428.508 130.026 428.917 130.595 438.049 137.558C448.68 145.374 449.225 145.658 450.452 143.384ZM423.193 129.316C426.464 125.479 424.965 119.653 420.194 118.516C415.56 117.237 412.426 119.369 411.881 124.2C411.063 131.732 418.286 135 423.193 129.316ZM461.219 129.884C462.446 128.747 463.4 126.474 463.4 125.053C463.4 119.369 455.222 115.674 451.406 119.653C447.59 123.632 451.133 132.158 456.585 132.158C457.948 132.158 460.129 131.163 461.219 129.884ZM483.844 110.842C483.844 109.563 480.845 107.574 475.394 105.584L467.08 102.6L463.263 105.442C459.72 108.284 455.222 108.426 449.77 106.153C448.68 105.584 446.227 106.437 444.319 108L440.911 110.842L444.319 113.684C446.227 115.247 448.68 116.1 449.77 115.532C454.949 113.258 460.129 113.542 463.4 116.242C466.534 118.942 466.671 118.942 475.257 115.958C480.845 114.111 483.844 112.405 483.844 110.842ZM499.381 115.674C506.06 108.853 497.337 99.6159 490.386 106.153C487.387 108.995 487.251 111.979 490.25 115.39C492.976 118.516 496.519 118.658 499.381 115.674ZM441.729 105.016C444.727 102.742 445.681 101.037 445.681 97.2001C445.681 90.8054 450.724 85.2633 456.585 85.2633C461.628 85.2633 467.489 90.8054 467.489 95.4948C467.489 98.1948 468.851 99.3317 475.939 101.89C480.709 103.595 484.798 104.732 485.07 104.305C485.343 104.021 480.709 98.1949 474.712 91.3738C464.354 79.7212 463.4 78.8685 458.902 79.2948C456.176 79.5791 452.769 79.0106 451.27 78.158C448.816 76.8791 447.044 77.5896 438.458 83.9843C428.917 91.0896 428.508 91.658 428.645 96.9159C428.781 101.321 429.599 103.026 432.734 105.158C437.64 108.569 436.959 108.569 441.729 105.016ZM423.057 101.463C425.919 98.6212 425.783 95.3527 422.92 92.0843C420.467 89.1001 415.697 88.6738 413.244 91.2317C411.199 93.3633 411.199 99.9001 413.244 102.032C415.561 104.447 420.603 104.163 423.057 101.463ZM461.219 101.463C465.444 97.2001 462.446 89.5264 456.585 89.5264C451.133 89.5264 447.59 98.0527 451.406 102.032C453.723 104.447 458.766 104.163 461.219 101.463ZM462.582 70.7685C464.899 63.6633 456.858 58.1212 451.951 63.3791C449.361 66.0791 449.089 71.1948 451.406 73.6106C452.36 74.6054 454.949 75.3159 457.266 75.0317C460.265 74.7475 461.628 73.6106 462.582 70.7685Z" fill="#FABB05"/>
</svg>