<svg class="icon" viewBox="0 0 1024 1024" version="1.1" xmlns="http://www.w3.org/2000/svg"><path d="M128 688a16 16 0 0 1-16-16V352a16 16 0 1 1 32 0v320a16 16 0 0 1-16 16zM183.216 271.84a16 16 0 0 1-8.08-29.808l267.84-156.32a16 16 0 1 1 16.128 27.616l-267.84 156.32a15.872 15.872 0 0 1-8.048 2.192zM896 688a16 16 0 0 1-16-16V352a16 16 0 1 1 32 0v320a16 16 0 0 1-16 16zM451.024 940.48a15.856 15.856 0 0 1-8.048-2.176l-267.84-156.336a16 16 0 1 1 16.128-27.632l267.84 156.336a16 16 0 0 1-8.08 29.808zM572.976 940.48a16 16 0 0 1-8.08-29.808l267.84-156.32a15.984 15.984 0 1 1 16.128 27.616l-267.84 156.32a15.872 15.872 0 0 1-8.048 2.192zM840.784 271.84a15.856 15.856 0 0 1-8.048-2.176l-267.84-156.336a16 16 0 1 1 16.128-27.632l267.84 156.32a16 16 0 0 1-8.08 29.824z" fill="#6b21a8"></path><path d="M512 160c-44.112 0-80-35.888-80-80s35.888-80 80-80 80 35.888 80 80-35.888 80-80 80z m0-128c-26.464 0-48 21.536-48 48s21.536 48 48 48 48-21.536 48-48-21.536-48-48-48zM512 1024c-44.112 0-80-35.888-80-80s35.888-80 80-80 80 35.888 80 80-35.888 80-80 80z m0-128c-26.464 0-48 21.536-48 48s21.536 48 48 48 48-21.536 48-48-21.536-48-48-48zM896 816c-44.112 0-80-35.888-80-80s35.888-80 80-80 80 35.888 80 80-35.888 80-80 80z m0-128c-26.464 0-48 21.536-48 48s21.536 48 48 48 48-21.536 48-48-21.536-48-48-48zM896 368c-44.112 0-80-35.888-80-80s35.888-80 80-80 80 35.888 80 80-35.888 80-80 80z m0-128c-26.464 0-48 21.536-48 48s21.536 48 48 48 48-21.536 48-48-21.536-48-48-48zM128 368c-44.112 0-80-35.888-80-80s35.888-80 80-80 80 35.888 80 80-35.888 80-80 80z m0-128c-26.464 0-48 21.536-48 48s21.536 48 48 48 48-21.536 48-48-21.536-48-48-48zM128 816c-44.112 0-80-35.888-80-80s35.888-80 80-80 80 35.888 80 80-35.888 80-80 80z m0-128c-26.464 0-48 21.536-48 48s21.536 48 48 48 48-21.536 48-48-21.536-48-48-48z" fill="#6b21a8"></path><path d="M512 896a16 16 0 0 1-16-16V576a16 16 0 1 1 32 0v304a16 16 0 0 1-16 16zM512 464a16 16 0 0 1-16-16V144a16 16 0 1 1 32 0v304a16 16 0 0 1-16 16zM456.784 495.84a15.856 15.856 0 0 1-8.048-2.176l-273.6-159.696a16 16 0 1 1 16.128-27.632l273.6 159.68a16 16 0 0 1-8.08 29.824zM567.216 495.84a16 16 0 0 1-8.08-29.808l273.6-159.68a15.984 15.984 0 1 1 16.128 27.616l-273.6 159.68a15.872 15.872 0 0 1-8.048 2.192zM840.784 719.84a15.856 15.856 0 0 1-8.048-2.176l-273.6-159.696a16 16 0 1 1 16.128-27.632l273.6 159.68a16 16 0 0 1-8.08 29.824zM183.216 719.84a16 16 0 0 1-8.08-29.808l273.6-159.68a15.984 15.984 0 1 1 16.128 27.616l-273.6 159.68a15.872 15.872 0 0 1-8.048 2.192z" fill="#6b21a8"></path><path d="M512 592c-44.112 0-80-35.888-80-80s35.888-80 80-80 80 35.888 80 80-35.888 80-80 80z m0-128c-26.464 0-48 21.536-48 48s21.536 48 48 48 48-21.536 48-48-21.536-48-48-48zM160.304 696.8a15.984 15.984 0 0 1-13.792-24.08l319.36-545.6a15.968 15.968 0 1 1 27.616 16.16l-319.36 545.6a15.968 15.968 0 0 1-13.824 7.92zM863.696 696.8a15.968 15.968 0 0 1-13.824-7.92l-319.36-545.6a16 16 0 1 1 27.616-16.16l319.36 545.6a16 16 0 0 1-13.792 24.08zM832 752H192a16 16 0 1 1 0-32h640a16 16 0 1 1 0 32z" fill="#6b21a8"></path></svg>
